{"glyphs":{"0":{"ha":603,"x_min":42,"x_max":561,"o":"m 263 831 q 244 811 244 831 l 244 197 q 248 181 244 186 q 264 176 251 176 l 338 176 q 353 181 350 176 q 357 197 357 186 l 357 811 q 339 831 357 831 l 263 831 m 42 868 q 75 967 42 928 q 178 1007 108 1007 l 425 1007 q 528 967 494 1007 q 561 868 561 928 l 561 139 q 528 40 561 79 q 425 0 494 0 l 178 0 q 75 40 108 0 q 42 139 42 79 l 42 868 z "},"1":{"ha":406,"x_min":24,"x_max":382,"o":"m 99 1007 l 314 1007 l 314 188 l 382 188 l 382 0 l 42 0 l 42 188 l 107 188 l 107 819 l 24 819 l 99 1007 z "},"2":{"ha":546,"x_min":42,"x_max":504,"o":"m 504 626 q 491 565 504 588 q 443 519 478 543 l 253 368 q 243 344 243 361 l 243 188 l 486 188 l 450 0 l 42 0 l 42 363 q 56 444 42 411 q 107 501 69 478 l 297 647 q 309 658 307 654 q 311 669 311 663 l 311 801 q 292 819 311 819 l 46 819 l 81 1007 l 386 1007 q 470 975 436 1007 q 504 883 504 943 l 504 626 z "},"3":{"ha":503,"x_min":28,"x_max":461,"o":"m 63 1007 l 319 1007 q 426 976 397 1007 q 456 875 456 944 l 456 596 q 441 536 456 561 q 378 507 426 511 q 445 477 429 507 q 461 407 461 447 l 461 156 q 426 36 461 72 q 304 0 392 0 l 64 0 l 29 188 l 231 188 q 251 191 244 188 q 258 213 258 194 l 258 378 q 254 396 258 389 q 233 403 250 403 l 79 403 l 79 576 l 231 576 q 253 582 247 576 q 258 604 258 588 l 258 794 q 252 815 258 810 q 235 819 246 819 l 28 819 l 63 1007 z "},"4":{"ha":631,"x_min":35,"x_max":596,"o":"m 260 1007 l 540 1007 l 540 343 l 596 343 l 596 183 l 540 183 l 540 0 l 342 0 l 342 183 l 35 183 l 35 411 l 260 972 l 260 1007 m 342 343 l 342 731 l 228 401 l 228 343 l 342 343 z "},"5":{"ha":538,"x_min":42,"x_max":496,"o":"m 86 0 l 51 188 l 276 188 q 293 203 293 188 l 293 429 q 279 443 293 443 l 94 443 l 42 503 l 42 1006 l 440 1006 l 475 819 l 239 819 l 239 606 l 390 606 q 466 577 436 606 q 496 508 496 549 l 496 151 q 461 34 496 68 q 340 0 426 0 l 86 0 z "},"6":{"ha":593,"x_min":42,"x_max":551,"o":"m 244 193 q 260 176 244 176 l 342 176 q 357 193 357 176 l 357 468 q 344 482 357 482 l 244 482 l 244 193 m 199 0 q 76 36 111 0 q 42 156 42 72 l 42 885 q 74 973 42 939 q 161 1007 107 1007 l 472 1007 l 507 819 l 261 819 q 244 800 244 819 l 244 631 l 446 631 q 524 605 496 631 q 551 524 551 579 l 551 156 q 517 36 551 72 q 394 0 482 0 l 199 0 z "},"7":{"ha":528,"x_min":14,"x_max":514,"o":"m 49 1007 l 514 1007 l 476 882 l 250 0 l 40 0 l 263 819 l 14 819 l 49 1007 z "},"8":{"ha":626,"x_min":42,"x_max":585,"o":"m 276 831 q 253 808 253 831 l 253 622 q 260 602 253 607 q 282 597 267 597 l 346 597 q 367 602 361 597 q 374 622 374 607 l 374 808 q 369 825 374 819 q 350 831 365 831 l 276 831 m 346 175 q 366 179 358 175 q 374 203 374 183 l 374 421 q 368 438 374 432 q 347 444 363 444 l 279 444 q 253 421 253 444 l 253 203 q 260 179 253 183 q 281 175 268 175 l 346 175 m 574 646 q 561 577 574 607 q 506 528 549 547 q 567 484 549 518 q 585 414 585 450 l 585 158 q 548 38 585 75 q 424 0 511 0 l 203 0 q 78 38 115 0 q 42 158 42 75 l 42 414 q 47 451 42 432 q 63 485 53 469 q 89 513 74 501 q 125 528 104 524 q 71 576 85 542 q 57 646 57 610 l 57 853 q 97 972 57 936 q 224 1007 136 1007 l 407 1007 q 534 972 494 1007 q 574 853 574 936 l 574 646 z "},"9":{"ha":594,"x_min":42,"x_max":553,"o":"m 350 814 q 335 831 350 831 l 253 831 q 238 814 238 831 l 238 517 q 250 503 238 503 l 350 503 l 350 814 m 553 156 q 518 36 553 72 q 396 0 483 0 l 107 0 l 72 188 l 333 188 q 350 207 350 188 l 350 350 l 147 350 q 72 377 101 350 q 42 460 42 404 l 42 883 q 76 975 42 943 q 160 1007 110 1007 l 435 1007 q 519 975 485 1007 q 553 883 553 943 l 553 156 z "}," ":{"ha":174,"x_min":0,"x_max":0,"o":""},"E":{"ha":496,"x_min":42,"x_max":468,"o":"m 42 1007 l 433 1007 l 468 819 l 249 819 l 249 581 l 415 581 l 415 407 l 249 407 l 249 188 l 460 188 l 425 0 l 42 0 l 42 1007 z "},"F":{"ha":489,"x_min":42,"x_max":468,"o":"m 42 1007 l 433 1007 l 468 819 l 249 819 l 249 581 l 415 581 l 415 407 l 249 407 l 249 0 l 42 0 l 42 1007 z "},"G":{"ha":588,"x_min":42,"x_max":550,"o":"m 42 885 q 72 974 42 940 q 161 1007 101 1007 l 449 1007 l 483 819 l 263 819 q 244 800 244 819 l 244 203 q 263 183 244 183 l 354 183 l 354 581 l 550 581 l 550 0 l 199 0 q 76 36 111 0 q 42 156 42 72 l 42 885 z "},"H":{"ha":604,"x_min":42,"x_max":563,"o":"m 563 0 l 357 0 l 357 403 l 247 403 l 247 0 l 42 0 l 42 1007 l 247 1007 l 247 576 l 357 576 l 357 1007 l 563 1007 l 563 0 z "},"Z":{"ha":515,"x_min":14,"x_max":501,"o":"m 285 188 l 474 188 l 439 0 l 14 0 l 240 819 l 31 819 l 65 1007 l 501 1007 l 285 188 z "},"Y":{"ha":626,"x_min":14,"x_max":613,"o":"m 419 0 l 207 0 l 207 256 l 14 1007 l 222 1007 l 313 532 l 404 1007 l 613 1007 l 419 256 l 419 0 z "},"X":{"ha":590,"x_min":14,"x_max":576,"o":"m 433 525 l 576 0 l 372 0 l 294 354 l 218 0 l 14 0 l 157 525 l 19 1007 l 219 1007 l 294 653 l 372 1007 l 571 1007 l 433 525 z "},"W":{"ha":876,"x_min":14,"x_max":863,"o":"m 657 1007 l 863 1007 l 704 0 l 521 0 l 438 525 l 356 0 l 172 0 l 14 1007 l 219 1007 l 283 421 l 365 1007 l 511 1007 l 592 421 l 657 1007 z "},"V":{"ha":610,"x_min":14,"x_max":596,"o":"m 392 1007 l 596 1007 l 410 0 l 200 0 l 14 1007 l 218 1007 l 236 878 l 304 357 l 374 881 l 392 1007 z "},"U":{"ha":604,"x_min":42,"x_max":563,"o":"m 199 0 q 76 36 111 0 q 42 156 42 72 l 42 1007 l 247 1007 l 247 199 q 251 182 247 188 q 267 176 254 176 l 338 176 q 353 182 350 176 q 357 199 357 188 l 357 1007 l 563 1007 l 563 156 q 528 36 563 72 q 406 0 493 0 l 199 0 z "},"T":{"ha":503,"x_min":14,"x_max":489,"o":"m 439 1007 l 489 819 l 354 819 l 354 0 l 149 0 l 149 819 l 14 819 l 67 1007 l 439 1007 z "},"S":{"ha":536,"x_min":42,"x_max":494,"o":"m 92 0 l 56 188 l 272 188 q 296 208 296 188 l 296 392 q 288 417 296 413 q 258 421 279 421 l 154 421 q 112 424 132 421 q 76 440 92 428 q 51 475 60 453 q 42 535 42 497 l 42 876 q 74 972 42 936 q 178 1007 107 1007 l 456 1007 l 490 819 l 263 819 q 238 797 238 819 l 238 614 q 245 593 238 599 q 268 588 253 588 l 394 588 q 469 565 443 588 q 494 485 494 542 l 494 153 q 460 35 494 69 q 340 0 426 0 l 92 0 z "},"R":{"ha":604,"x_min":42,"x_max":575,"o":"m 243 831 l 243 483 l 342 483 q 361 504 361 483 l 361 810 q 342 831 361 831 l 243 831 m 560 410 q 537 349 560 376 q 469 321 514 321 l 575 0 l 367 0 l 269 321 l 243 321 l 243 0 l 42 0 l 42 1007 l 424 1007 q 527 972 494 1007 q 560 876 560 936 l 560 410 z "},"Q":{"ha":610,"x_min":42,"x_max":568,"o":"m 264 831 q 244 810 244 831 l 244 197 q 248 181 244 186 q 264 176 251 176 l 344 176 q 360 181 357 176 q 364 197 364 186 l 364 811 q 346 831 364 831 l 264 831 m 432 1007 q 535 972 503 1007 q 568 876 568 936 l 568 156 q 533 36 568 72 q 411 0 499 0 l 385 0 l 385 -81 l 224 -81 l 224 0 l 199 0 q 76 36 111 0 q 42 156 42 72 l 42 876 q 74 972 42 936 q 178 1007 107 1007 l 432 1007 z "},"P":{"ha":594,"x_min":42,"x_max":557,"o":"m 242 831 l 242 435 l 342 435 q 358 440 354 435 q 361 456 361 444 l 361 811 q 343 831 361 831 l 242 831 m 438 1007 q 527 974 497 1007 q 557 885 557 940 l 557 403 q 551 349 557 374 q 528 307 544 325 q 483 278 511 289 q 414 268 456 268 l 242 268 l 242 0 l 42 0 l 42 1007 l 438 1007 z "},"O":{"ha":606,"x_min":42,"x_max":564,"o":"m 263 831 q 244 811 244 831 l 244 197 q 248 181 244 186 q 264 176 251 176 l 340 176 q 356 181 353 176 q 360 197 360 186 l 360 811 q 342 831 360 831 l 263 831 m 564 143 q 557 88 564 114 q 533 43 550 63 q 489 12 517 24 q 419 0 461 0 l 186 0 q 117 12 144 0 q 72 43 89 24 q 49 88 56 63 q 42 143 42 114 l 42 876 q 74 972 42 936 q 178 1007 107 1007 l 428 1007 q 531 972 499 1007 q 564 876 564 936 l 564 143 z "},"N":{"ha":585,"x_min":42,"x_max":543,"o":"m 42 1007 l 233 1007 l 336 603 l 336 1007 l 543 1007 l 543 0 l 336 0 l 228 421 l 228 0 l 42 0 l 42 1007 z "},"M":{"ha":729,"x_min":42,"x_max":688,"o":"m 238 475 l 238 0 l 42 0 l 42 1007 l 254 1007 l 364 582 l 474 1007 l 688 1007 l 688 0 l 492 0 l 492 475 l 364 72 l 238 475 z "},"L":{"ha":472,"x_min":42,"x_max":451,"o":"m 42 1007 l 249 1007 l 249 188 l 451 188 l 417 0 l 42 0 l 42 1007 z "},"K":{"ha":603,"x_min":42,"x_max":589,"o":"m 247 575 l 278 575 l 381 1007 l 589 1007 l 468 543 l 588 0 l 367 0 l 288 415 l 247 415 l 247 0 l 42 0 l 42 1007 l 247 1007 l 247 575 l 247 575 z "},"J":{"ha":588,"x_min":38,"x_max":546,"o":"m 38 581 l 233 581 l 233 200 q 251 181 233 181 l 325 181 q 343 201 343 181 l 343 819 l 125 819 l 160 1007 l 546 1007 l 546 144 q 511 42 546 85 q 410 0 476 0 l 171 0 q 74 35 111 0 q 38 129 38 69 l 38 581 z "},"I":{"ha":285,"x_min":42,"x_max":243,"o":"m 42 1007 l 243 1007 l 243 0 l 42 0 l 42 1007 z "},"`":{"ha":535,"x_min":69,"x_max":465,"o":"m 69 1265 l 285 1265 l 465 1097 l 318 1097 l 69 1265 z "},"{":{"ha":363,"x_min":0,"x_max":390,"o":"m 0 536 q 69 556 46 538 q 100 604 92 575 q 107 667 108 633 q 104 733 106 701 q 96 882 101 813 q 106 1003 90 951 q 172 1083 121 1054 q 332 1113 222 1113 l 390 1113 l 390 1049 q 319 1017 340 1050 q 293 935 297 983 q 294 833 289 886 q 300 743 299 781 q 298 668 301 707 q 281 594 294 629 q 244 535 268 560 q 179 506 219 511 q 244 474 219 499 q 281 416 268 450 q 298 342 294 382 q 300 268 301 303 q 294 178 299 231 q 293 76 289 125 q 319 -6 297 28 q 390 -39 340 -40 l 390 -100 l 332 -100 q 172 -71 222 -100 q 106 9 121 -42 q 96 128 90 60 q 104 278 101 197 q 107 342 106 308 q 100 406 108 376 q 69 453 92 435 q 0 474 46 472 l 0 536 z "},"|":{"ha":285,"x_min":56,"x_max":229,"o":"m 229 1038 l 229 -318 l 56 -318 l 56 1038 l 229 1038 z "},"}":{"ha":363,"x_min":-28,"x_max":363,"o":"m 363 474 q 294 453 317 472 q 263 406 271 435 q 256 342 254 376 q 258 278 257 308 q 267 128 261 197 q 256 9 272 60 q 188 -71 239 -42 q 28 -100 138 -100 l -28 -100 l -28 -39 q 44 -6 22 -40 q 69 76 65 28 q 68 178 74 125 q 61 268 63 231 q 63 342 60 303 q 80 416 67 382 q 117 474 93 450 q 182 506 142 499 q 117 535 142 511 q 80 594 93 560 q 63 668 67 629 q 61 743 60 707 q 68 833 63 781 q 69 935 74 886 q 44 1017 65 983 q -28 1049 22 1050 l -28 1113 l 28 1113 q 188 1083 138 1113 q 256 1003 239 1054 q 267 882 272 951 q 258 733 261 813 q 256 667 257 701 q 263 604 254 633 q 294 556 271 575 q 363 536 317 538 l 363 474 z "},"~":{"ha":592,"x_min":39,"x_max":557,"o":"m 549 613 q 519 449 557 513 q 394 386 481 386 q 322 403 350 386 q 265 439 293 421 q 223 457 244 451 q 183 458 201 463 q 151 436 164 453 q 139 388 139 419 l 43 388 q 85 554 39 494 q 201 614 131 614 q 258 602 232 614 q 308 576 285 590 q 351 551 331 563 q 392 539 372 539 q 436 553 417 539 q 453 613 456 568 l 549 613 z "},"€":{"ha":546,"x_min":0,"x_max":518,"o":"m 518 188 l 481 0 l 201 0 q 81 35 115 0 q 47 153 47 69 l 47 325 l 0 325 l 0 451 l 47 451 l 47 531 l 0 531 l 0 658 l 47 658 l 47 886 q 83 978 47 946 q 169 1010 118 1010 l 481 1010 l 518 822 l 268 822 q 250 803 250 822 l 250 658 l 504 658 l 469 531 l 250 531 l 250 451 l 456 451 l 421 325 l 250 325 l 250 207 q 268 188 250 188 l 518 188 z "},"‚":{"ha":275,"x_min":21,"x_max":254,"o":"m 86 201 l 254 201 l 146 -194 l 21 -194 l 86 201 z "},"ƒ":{"ha":688,"x_min":0,"x_max":660,"o":"m 574 822 q 535 809 549 822 q 517 774 522 796 l 485 650 l 608 650 l 561 533 l 450 533 l 328 39 q 288 -52 313 -21 q 228 -96 263 -83 q 151 -108 194 -108 q 54 -106 107 -108 l 0 -6 q 49 -6 28 -6 q 87 -2 71 -7 q 114 17 103 3 q 133 60 125 31 l 258 533 l 197 533 l 236 650 l 286 650 l 350 904 q 407 988 365 965 q 492 1010 449 1010 l 625 1010 l 660 822 l 574 822 z "},"„":{"ha":494,"x_min":35,"x_max":469,"o":"m 64 201 l 232 201 l 157 -194 l 35 -194 l 64 201 m 300 201 l 469 201 l 369 -194 l 242 -194 l 300 201 z "},"…":{"ha":956,"x_min":69,"x_max":886,"o":"m 69 93 q 101 169 69 138 q 178 201 133 201 q 254 169 222 201 q 286 93 286 138 q 254 17 286 49 q 178 -14 222 -14 q 101 17 133 -14 q 69 93 69 49 m 369 93 q 401 169 369 138 q 478 201 433 201 q 554 169 522 201 q 586 93 586 138 q 554 17 586 49 q 478 -14 522 -14 q 401 17 433 -14 q 369 93 369 49 m 669 93 q 701 169 669 138 q 778 201 733 201 q 854 169 822 201 q 886 93 886 138 q 854 17 886 49 q 778 -14 822 -14 q 701 17 733 -14 q 669 93 669 49 z "},"†":{"ha":664,"x_min":42,"x_max":622,"o":"m 622 707 q 593 635 622 665 q 521 604 564 604 q 465 622 490 604 q 426 667 440 640 q 392 634 401 665 q 392 566 383 603 q 427 499 400 529 q 503 468 454 468 q 458 443 479 468 q 421 378 438 418 q 391 286 404 338 q 368 181 378 235 q 331 -106 343 54 q 294 181 318 54 q 272 286 285 235 q 242 378 258 338 q 207 443 226 418 q 164 468 188 468 q 217 483 194 468 q 253 519 239 497 q 272 565 267 540 q 275 613 278 590 q 263 650 272 635 q 236 667 253 665 q 199 622 224 640 q 143 604 175 604 q 71 635 100 604 q 42 707 42 665 q 71 780 42 749 q 143 811 100 811 q 203 790 175 811 q 239 736 232 768 q 279 762 267 740 q 289 832 292 783 q 247 871 263 846 q 231 928 231 896 q 260 999 231 969 q 331 1028 290 1028 q 403 999 372 1028 q 433 928 433 969 q 417 871 433 896 q 375 832 400 846 q 385 762 371 783 q 426 735 399 740 q 461 789 433 767 q 521 811 489 811 q 593 780 564 811 q 622 707 622 749 z "},"‡":{"ha":664,"x_min":42,"x_max":622,"o":"m 622 285 q 593 212 622 243 q 521 181 564 181 q 461 203 489 181 q 426 257 433 225 q 385 230 399 251 q 375 160 371 208 q 417 121 400 146 q 433 64 433 96 q 403 -7 433 22 q 331 -36 372 -36 q 260 -7 290 -36 q 231 64 231 22 q 247 121 231 96 q 289 160 263 146 q 279 230 292 208 q 239 256 267 251 q 203 202 232 224 q 143 181 175 181 q 71 212 100 181 q 42 285 42 243 q 71 357 42 326 q 143 388 100 388 q 199 369 175 388 q 236 325 224 351 q 271 353 261 326 q 272 413 281 381 q 238 470 264 444 q 164 496 211 496 q 238 522 211 496 q 272 579 264 547 q 271 638 281 611 q 236 667 261 664 q 199 622 224 640 q 143 604 175 604 q 71 635 100 604 q 42 707 42 665 q 71 780 42 749 q 143 811 100 811 q 203 790 175 811 q 239 736 232 768 q 279 762 267 740 q 289 832 292 783 q 247 871 263 846 q 231 928 231 896 q 260 999 231 969 q 331 1028 290 1028 q 403 999 372 1028 q 433 928 433 969 q 417 871 433 896 q 375 832 400 846 q 385 762 371 783 q 426 735 399 740 q 461 789 433 767 q 521 811 489 811 q 593 780 564 811 q 622 707 622 749 q 593 635 622 665 q 521 604 564 604 q 465 622 490 604 q 426 667 440 640 q 392 638 401 665 q 392 580 383 611 q 427 522 400 549 q 503 496 454 496 q 427 469 454 496 q 392 412 400 443 q 392 353 383 381 q 426 325 401 326 q 465 369 440 351 q 521 388 490 388 q 593 357 564 388 q 622 285 622 326 z "},"ˆ":{"ha":643,"x_min":85,"x_max":560,"o":"m 403 1274 l 560 1092 l 396 1092 l 321 1192 l 246 1092 l 85 1092 l 240 1274 l 403 1274 z "},"‰":{"ha":1396,"x_min":42,"x_max":1354,"o":"m 1139 246 q 1140 183 1139 207 q 1146 145 1142 158 q 1157 128 1150 132 q 1175 124 1164 124 q 1192 128 1185 124 q 1204 145 1200 132 q 1210 183 1208 158 q 1213 246 1213 207 q 1210 309 1213 285 q 1204 347 1208 333 q 1192 364 1200 360 q 1175 368 1185 368 q 1157 364 1164 368 q 1146 347 1150 360 q 1140 309 1142 333 q 1139 246 1139 285 m 1354 246 q 1342 113 1354 164 q 1306 34 1329 63 q 1249 -5 1282 6 q 1175 -15 1217 -15 q 1101 -5 1133 -15 q 1044 34 1068 6 q 1008 113 1021 63 q 996 246 996 164 q 1008 378 996 326 q 1044 458 1021 429 q 1101 497 1068 486 q 1175 507 1133 507 q 1249 497 1217 507 q 1306 458 1282 486 q 1342 378 1329 429 q 1354 246 1354 326 m 718 246 q 719 183 718 207 q 725 145 721 158 q 736 128 729 132 q 754 124 743 124 q 772 128 764 124 q 783 145 779 132 q 790 183 788 158 q 792 246 792 207 q 790 309 792 285 q 783 347 788 333 q 772 364 779 360 q 754 368 764 368 q 736 364 743 368 q 725 347 729 360 q 719 309 721 333 q 718 246 718 285 m 933 246 q 921 113 933 164 q 885 34 908 63 q 828 -5 861 6 q 754 -15 796 -15 q 680 -5 713 -15 q 624 34 647 6 q 588 113 600 63 q 575 246 575 164 q 588 378 575 326 q 624 458 600 429 q 680 497 647 486 q 754 507 713 507 q 828 497 796 507 q 885 458 861 486 q 921 378 908 429 q 933 246 933 326 m 183 763 q 185 699 183 724 q 192 662 188 675 q 203 644 196 649 q 221 640 210 640 q 238 644 231 640 q 249 662 244 649 q 255 699 253 675 q 257 763 257 724 q 255 826 257 801 q 249 863 253 850 q 238 881 244 876 q 221 885 231 885 q 203 881 210 885 q 192 863 196 876 q 185 826 188 850 q 183 763 183 801 m 400 763 q 388 630 400 681 q 351 551 375 579 q 295 512 328 522 q 221 501 263 501 q 147 512 179 501 q 90 551 114 522 q 54 630 67 579 q 42 763 42 681 q 54 894 42 843 q 90 974 67 946 q 147 1013 114 1003 q 221 1024 179 1024 q 295 1013 263 1024 q 351 974 328 1003 q 388 894 375 946 q 400 763 400 843 m 758 1017 l 364 -7 l 214 -7 l 613 1017 l 758 1017 z "},"‹":{"ha":367,"x_min":21,"x_max":353,"o":"m 183 654 l 353 654 l 185 379 l 353 104 l 183 104 l 21 379 l 183 654 z "},"":{"ha":515,"x_min":14,"x_max":514,"o":"m 285 188 l 474 188 l 439 0 l 14 0 l 240 822 l 31 822 l 65 1010 l 501 1010 l 285 188 m 194 1058 l 39 1240 l 200 1240 l 275 1140 l 350 1240 l 514 1240 l 357 1058 l 194 1058 z "},"‘":{"ha":275,"x_min":21,"x_max":254,"o":"m 254 639 l 129 639 l 21 1035 l 189 1035 l 254 639 z "},"’":{"ha":275,"x_min":21,"x_max":254,"o":"m 86 1035 l 254 1035 l 146 639 l 21 639 l 86 1035 z "},"“":{"ha":499,"x_min":28,"x_max":467,"o":"m 467 639 l 339 639 l 261 1035 l 433 1035 l 467 639 m 253 639 l 124 639 l 28 1035 l 199 1035 l 253 639 z "},"”":{"ha":499,"x_min":32,"x_max":471,"o":"m 65 1035 l 238 1035 l 160 639 l 32 639 l 65 1035 m 300 1035 l 471 1035 l 375 639 l 246 639 l 300 1035 z "},"•":{"ha":567,"x_min":42,"x_max":525,"o":"m 42 461 q 60 557 42 513 q 112 635 79 601 q 189 687 144 668 q 283 706 233 706 q 377 687 333 706 q 454 635 421 668 q 506 557 488 601 q 525 461 525 513 q 506 367 525 411 q 454 289 488 322 q 377 236 421 256 q 283 217 333 217 q 189 236 233 217 q 112 289 144 256 q 60 367 79 322 q 42 461 42 411 z "},"–":{"ha":671,"x_min":42,"x_max":629,"o":"m 56 571 l 629 571 l 615 406 l 42 406 l 56 571 z "},"—":{"ha":879,"x_min":42,"x_max":838,"o":"m 56 571 l 838 571 l 824 406 l 42 406 l 56 571 z "},"˜":{"ha":643,"x_min":85,"x_max":563,"o":"m 556 1281 q 530 1153 563 1201 q 418 1104 497 1104 q 363 1113 386 1104 q 317 1133 339 1122 q 274 1152 296 1143 q 226 1161 253 1161 q 175 1103 175 1161 l 88 1103 q 126 1233 85 1186 q 233 1281 167 1281 q 288 1272 263 1281 q 335 1251 313 1263 q 377 1230 357 1239 q 415 1221 397 1221 q 455 1237 439 1221 q 468 1281 471 1253 l 556 1281 z "},"™":{"ha":808,"x_min":42,"x_max":767,"o":"m 313 918 l 236 918 l 236 504 l 118 504 l 118 918 l 42 918 l 69 1010 l 285 1010 l 313 918 m 767 504 l 644 504 l 644 772 l 565 544 l 478 772 l 478 504 l 364 504 l 364 1010 l 486 1010 l 565 789 l 636 1010 l 767 1010 l 767 504 z "},"š":{"ha":1108,"x_min":56,"x_max":1106,"o":"m 746 336 q 315 336 532 282 q 349 288 329 313 q 397 240 369 263 q 457 204 424 218 q 531 190 490 190 q 603 204 569 190 q 663 240 636 218 q 711 288 690 263 q 746 336 732 313 m 833 472 l 228 472 l 301 356 q 530 328 417 328 q 758 356 643 329 l 833 472 m 449 629 q 419 707 431 667 q 385 779 408 747 q 367 779 381 785 q 340 765 354 774 q 315 747 325 756 q 307 735 304 738 l 407 610 q 416 609 408 607 q 431 615 424 611 q 444 622 439 618 q 449 629 450 626 m 582 515 l 531 639 l 481 515 l 582 515 m 753 735 q 744 747 754 738 q 721 765 735 756 q 694 779 707 774 q 676 779 681 785 q 640 707 651 747 q 613 629 628 667 q 615 622 610 626 q 629 615 621 618 q 644 609 638 611 q 654 610 651 607 l 753 735 m 913 515 q 883 367 913 436 q 801 245 853 297 q 679 163 749 193 q 531 133 610 133 q 382 163 451 133 q 260 245 313 193 q 178 367 208 297 q 147 515 147 436 q 178 664 147 594 q 260 785 208 733 q 382 867 313 838 q 531 897 451 897 q 679 867 610 897 q 801 785 749 838 q 883 664 853 733 q 913 515 913 594 m 940 515 q 908 675 940 600 q 821 806 876 750 q 690 894 765 861 q 531 926 615 926 q 371 894 446 926 q 240 806 296 861 q 151 675 183 750 q 118 515 118 600 q 151 356 118 431 q 240 226 183 282 q 371 137 296 169 q 531 104 446 104 q 690 137 615 104 q 821 226 765 169 q 908 356 876 282 q 940 515 940 431 m 982 144 l 946 144 l 946 49 l 919 49 l 919 144 l 885 144 l 885 167 l 982 167 l 982 144 m 1006 515 q 968 331 1006 417 q 866 179 931 244 q 715 76 801 114 q 531 39 628 39 q 346 76 432 39 q 195 179 260 114 q 93 331 131 244 q 56 515 56 417 q 93 701 56 614 q 195 852 131 788 q 346 954 260 917 q 531 992 432 992 q 715 954 628 992 q 866 852 801 917 q 968 701 931 788 q 1006 515 1006 614 m 1106 49 l 1085 49 l 1085 144 l 1061 49 l 1039 49 l 1015 144 l 1015 49 l 993 49 l 993 167 l 1028 167 l 1051 75 l 1071 167 l 1106 167 l 1106 49 z "},"›":{"ha":368,"x_min":21,"x_max":354,"o":"m 354 379 l 186 104 l 21 104 l 185 379 l 21 654 l 186 654 l 354 379 z "},"œ":{"ha":1108,"x_min":56,"x_max":1106,"o":"m 746 336 q 315 336 532 282 q 349 288 329 313 q 397 240 369 263 q 457 204 424 218 q 531 190 490 190 q 603 204 569 190 q 663 240 636 218 q 711 288 690 263 q 746 336 732 313 m 833 472 l 228 472 l 301 356 q 530 328 417 328 q 758 356 643 329 l 833 472 m 449 629 q 419 707 431 667 q 385 779 408 747 q 367 779 381 785 q 340 765 354 774 q 315 747 325 756 q 307 735 304 738 l 407 610 q 416 609 408 607 q 431 615 424 611 q 444 622 439 618 q 449 629 450 626 m 582 515 l 531 639 l 481 515 l 582 515 m 753 735 q 744 747 754 738 q 721 765 735 756 q 694 779 707 774 q 676 779 681 785 q 640 707 651 747 q 613 629 628 667 q 615 622 610 626 q 629 615 621 618 q 644 609 638 611 q 654 610 651 607 l 753 735 m 913 515 q 883 367 913 436 q 801 245 853 297 q 679 163 749 193 q 531 133 610 133 q 382 163 451 133 q 260 245 313 193 q 178 367 208 297 q 147 515 147 436 q 178 664 147 594 q 260 785 208 733 q 382 867 313 838 q 531 897 451 897 q 679 867 610 897 q 801 785 749 838 q 883 664 853 733 q 913 515 913 594 m 940 515 q 908 675 940 600 q 821 806 876 750 q 690 894 765 861 q 531 926 615 926 q 371 894 446 926 q 240 806 296 861 q 151 675 183 750 q 118 515 118 600 q 151 356 118 431 q 240 226 183 282 q 371 137 296 169 q 531 104 446 104 q 690 137 615 104 q 821 226 765 169 q 908 356 876 282 q 940 515 940 431 m 982 144 l 946 144 l 946 49 l 919 49 l 919 144 l 885 144 l 885 167 l 982 167 l 982 144 m 1006 515 q 968 331 1006 417 q 866 179 931 244 q 715 76 801 114 q 531 39 628 39 q 346 76 432 39 q 195 179 260 114 q 93 331 131 244 q 56 515 56 417 q 93 701 56 614 q 195 852 131 788 q 346 954 260 917 q 531 992 432 992 q 715 954 628 992 q 866 852 801 917 q 968 701 931 788 q 1006 515 1006 614 m 1106 49 l 1085 49 l 1085 144 l 1061 49 l 1039 49 l 1015 144 l 1015 49 l 993 49 l 993 167 l 1028 167 l 1051 75 l 1071 167 l 1106 167 l 1106 49 z "},"":{"ha":1108,"x_min":56,"x_max":1106,"o":"m 746 336 q 315 336 532 282 q 349 288 329 313 q 397 240 369 263 q 457 204 424 218 q 531 190 490 190 q 603 204 569 190 q 663 240 636 218 q 711 288 690 263 q 746 336 732 313 m 833 472 l 228 472 l 301 356 q 530 328 417 328 q 758 356 643 329 l 833 472 m 449 629 q 419 707 431 667 q 385 779 408 747 q 367 779 381 785 q 340 765 354 774 q 315 747 325 756 q 307 735 304 738 l 407 610 q 416 609 408 607 q 431 615 424 611 q 444 622 439 618 q 449 629 450 626 m 582 515 l 531 639 l 481 515 l 582 515 m 753 735 q 744 747 754 738 q 721 765 735 756 q 694 779 707 774 q 676 779 681 785 q 640 707 651 747 q 613 629 628 667 q 615 622 610 626 q 629 615 621 618 q 644 609 638 611 q 654 610 651 607 l 753 735 m 913 515 q 883 367 913 436 q 801 245 853 297 q 679 163 749 193 q 531 133 610 133 q 382 163 451 133 q 260 245 313 193 q 178 367 208 297 q 147 515 147 436 q 178 664 147 594 q 260 785 208 733 q 382 867 313 838 q 531 897 451 897 q 679 867 610 897 q 801 785 749 838 q 883 664 853 733 q 913 515 913 594 m 940 515 q 908 675 940 600 q 821 806 876 750 q 690 894 765 861 q 531 926 615 926 q 371 894 446 926 q 240 806 296 861 q 151 675 183 750 q 118 515 118 600 q 151 356 118 431 q 240 226 183 282 q 371 137 296 169 q 531 104 446 104 q 690 137 615 104 q 821 226 765 169 q 908 356 876 282 q 940 515 940 431 m 982 144 l 946 144 l 946 49 l 919 49 l 919 144 l 885 144 l 885 167 l 982 167 l 982 144 m 1006 515 q 968 331 1006 417 q 866 179 931 244 q 715 76 801 114 q 531 39 628 39 q 346 76 432 39 q 195 179 260 114 q 93 331 131 244 q 56 515 56 417 q 93 701 56 614 q 195 852 131 788 q 346 954 260 917 q 531 992 432 992 q 715 954 628 992 q 866 852 801 917 q 968 701 931 788 q 1006 515 1006 614 m 1106 49 l 1085 49 l 1085 144 l 1061 49 l 1039 49 l 1015 144 l 1015 49 l 993 49 l 993 167 l 1028 167 l 1051 75 l 1071 167 l 1106 167 l 1106 49 z "},"Ÿ":{"ha":626,"x_min":14,"x_max":613,"o":"m 419 0 l 207 0 l 207 256 l 14 1007 l 222 1007 l 313 532 l 404 1007 l 613 1007 l 419 256 l 419 0 m 74 1150 q 103 1224 74 1193 q 176 1254 132 1254 q 249 1224 219 1254 q 278 1150 278 1193 q 249 1076 278 1107 q 176 1046 219 1046 q 103 1076 132 1046 q 74 1150 74 1107 m 349 1150 q 378 1224 349 1193 q 450 1254 407 1254 q 523 1224 493 1254 q 553 1150 553 1193 q 523 1076 553 1107 q 450 1046 493 1046 q 378 1076 407 1046 q 349 1150 349 1107 z "}," ":{"ha":694,"x_min":0,"x_max":0,"o":""},"¡":{"ha":279,"x_min":28,"x_max":251,"o":"m 28 -236 l 251 -236 l 201 507 l 75 507 l 28 -236 m 31 678 q 63 753 31 722 q 139 785 94 785 q 215 753 183 785 q 247 678 247 722 q 215 601 247 633 q 139 569 183 569 q 63 601 94 569 q 31 678 31 633 z "},"¢":{"ha":424,"x_min":38,"x_max":403,"o":"m 140 188 q 38 292 38 188 l 38 718 q 140 822 38 822 l 178 822 l 178 1010 l 274 1010 l 274 822 l 368 822 l 403 635 l 221 635 q 204 617 204 635 l 204 393 q 221 375 204 375 l 403 375 l 368 188 l 274 188 l 274 0 l 178 0 l 178 188 l 140 188 z "},"£":{"ha":547,"x_min":28,"x_max":526,"o":"m 78 882 q 115 979 78 949 q 201 1010 153 1010 l 475 1010 l 510 822 l 300 822 q 281 801 281 822 l 281 568 l 483 568 l 451 426 l 281 426 l 281 188 l 526 188 l 490 0 l 44 0 l 44 188 l 78 188 l 78 426 l 28 426 l 46 568 l 78 568 l 78 882 l 78 882 z "},"¤":{"ha":631,"x_min":42,"x_max":589,"o":"m 236 504 q 249 394 236 433 q 315 354 263 354 q 380 394 367 354 q 393 504 393 433 q 380 615 393 575 q 315 656 367 656 q 249 615 263 656 q 236 504 236 575 m 544 504 q 539 413 544 458 q 518 322 533 367 l 589 257 l 510 175 l 438 240 q 377 224 404 228 q 315 219 350 219 q 253 224 281 219 q 193 240 226 228 l 121 175 l 42 257 l 111 322 q 92 413 97 367 q 86 504 86 458 q 92 597 86 551 q 111 686 97 642 l 42 751 l 121 833 l 193 769 q 253 785 226 781 q 315 789 281 789 q 377 785 350 789 q 438 769 404 781 l 510 833 l 589 751 l 518 686 q 539 597 533 642 q 544 504 544 551 z "},"¥":{"ha":683,"x_min":14,"x_max":669,"o":"m 101 267 l 239 267 l 239 318 l 85 318 l 103 442 l 217 442 l 14 1010 l 226 1010 l 342 618 l 457 1010 l 669 1010 l 467 442 l 603 442 l 585 318 l 442 318 l 442 267 l 601 267 l 585 143 l 442 143 l 442 0 l 239 0 l 239 143 l 85 143 l 101 267 z "},"¦":{"ha":285,"x_min":56,"x_max":229,"o":"m 229 -318 l 56 -318 l 56 225 l 229 225 l 229 -318 m 229 494 l 56 494 l 56 1038 l 229 1038 l 229 494 z "},"§":{"ha":581,"x_min":42,"x_max":539,"o":"m 379 463 q 361 533 379 504 q 319 581 343 563 l 251 581 q 212 571 219 581 q 204 542 204 561 l 204 501 q 219 460 204 475 q 233 443 224 454 q 250 426 243 432 l 356 426 q 375 439 371 426 q 379 463 379 451 m 539 443 q 531 399 539 421 q 506 360 524 378 q 460 332 489 343 q 389 321 431 321 l 379 321 q 415 241 403 293 q 428 126 428 189 q 422 82 428 104 q 399 42 415 60 q 356 12 383 24 q 286 0 329 0 l 72 0 l 72 138 l 239 138 q 258 144 254 138 q 263 161 263 150 q 246 232 263 206 q 205 278 229 258 q 152 313 181 297 q 99 349 124 328 q 58 403 74 371 q 42 486 42 435 l 42 582 q 53 626 42 604 q 84 664 64 647 q 134 691 104 681 q 201 701 164 701 q 169 743 182 719 q 156 792 156 767 l 156 889 q 162 922 156 903 q 183 960 168 942 q 222 993 197 979 q 286 1010 247 1007 l 499 1010 l 499 886 l 363 886 q 326 874 332 886 q 319 843 319 863 l 319 813 q 322 790 319 800 q 331 771 324 781 q 356 749 342 760 q 385 728 369 739 q 438 697 410 713 q 488 653 465 682 q 524 575 510 624 q 539 443 539 526 z "},"¨":{"ha":696,"x_min":108,"x_max":588,"o":"m 108 1200 q 138 1274 108 1243 q 211 1304 167 1304 q 283 1274 254 1304 q 313 1200 313 1243 q 283 1126 313 1157 q 211 1096 254 1096 q 138 1126 167 1096 q 108 1200 108 1157 m 383 1200 q 413 1274 383 1243 q 485 1304 442 1304 q 558 1274 528 1304 q 588 1200 588 1243 q 558 1126 588 1157 q 485 1096 528 1096 q 413 1126 442 1096 q 383 1200 383 1157 z "},"©":{"ha":1111,"x_min":46,"x_max":1065,"o":"m 557 1010 q 752 972 660 1010 q 914 866 844 933 q 1024 706 983 799 q 1065 503 1065 613 q 1024 298 1065 392 q 914 136 983 204 q 752 30 844 68 q 557 -8 660 -8 q 360 30 453 -8 q 198 136 268 68 q 87 298 128 204 q 46 503 46 392 q 87 706 46 613 q 198 866 128 799 q 360 972 268 933 q 557 1010 453 1010 m 557 924 q 396 892 471 924 q 266 803 321 860 q 180 670 211 747 q 149 503 149 593 q 180 333 149 411 q 266 199 211 256 q 396 111 321 143 q 557 79 471 79 q 716 111 642 79 q 845 199 790 143 q 931 333 900 256 q 963 503 963 411 q 931 670 963 593 q 845 803 900 747 q 716 892 790 860 q 557 924 642 924 m 822 407 q 790 317 813 357 q 734 249 767 276 q 660 206 701 221 q 574 190 619 190 q 451 215 506 190 q 357 281 396 239 q 297 380 318 322 q 275 504 275 438 q 295 628 275 571 q 353 726 315 685 q 447 790 392 767 q 569 814 501 814 q 660 800 617 814 q 736 759 703 786 q 792 693 769 732 q 821 603 814 654 l 731 603 q 676 692 719 658 q 571 726 633 726 q 488 709 524 726 q 427 662 451 692 q 390 592 403 632 q 378 506 378 551 q 392 419 378 460 q 431 347 406 378 q 492 297 456 315 q 574 278 528 278 q 680 313 638 278 q 731 407 722 349 l 822 407 z "},"ª":{"ha":401,"x_min":42,"x_max":360,"o":"m 175 899 q 164 888 164 899 l 164 640 q 175 631 164 631 l 238 631 l 238 899 l 175 899 m 360 513 l 238 513 l 238 546 l 210 513 l 108 513 q 60 529 78 513 q 42 579 42 546 l 42 940 q 111 1010 42 1010 l 360 1010 l 360 513 z "},"«":{"ha":604,"x_min":21,"x_max":590,"o":"m 425 654 l 590 654 l 426 379 l 590 104 l 425 104 l 257 379 l 425 654 m 183 654 l 353 654 l 185 379 l 353 104 l 183 104 l 21 379 l 183 654 z "},"¬":{"ha":608,"x_min":42,"x_max":567,"o":"m 56 626 l 567 626 l 567 271 l 388 271 l 388 461 l 42 461 l 56 626 z "},"­":{"ha":463,"x_min":42,"x_max":421,"o":"m 56 571 l 421 571 l 407 406 l 42 406 l 56 571 z "},"®":{"ha":1111,"x_min":46,"x_max":1065,"o":"m 557 1010 q 752 972 660 1010 q 914 866 844 933 q 1024 706 983 799 q 1065 503 1065 613 q 1024 298 1065 392 q 914 136 983 204 q 752 30 844 68 q 557 -8 660 -8 q 360 30 453 -8 q 198 136 268 68 q 87 298 128 204 q 46 503 46 392 q 87 706 46 613 q 198 866 128 799 q 360 972 268 933 q 557 1010 453 1010 m 557 924 q 396 892 471 924 q 266 803 321 860 q 180 670 211 747 q 149 503 149 593 q 180 333 149 411 q 266 199 211 256 q 396 111 321 143 q 557 79 471 79 q 716 111 642 79 q 845 199 790 143 q 931 333 900 256 q 963 503 963 411 q 931 670 963 593 q 845 803 900 747 q 716 892 790 860 q 557 924 642 924 m 449 208 l 363 208 l 363 796 l 583 796 q 735 756 685 796 q 785 628 785 715 q 742 512 782 549 q 638 467 703 475 l 803 208 l 704 208 l 550 464 l 449 464 l 449 208 m 556 535 q 609 537 583 535 q 655 549 635 539 q 687 579 675 560 q 699 635 699 599 q 688 681 699 664 q 658 708 676 699 q 616 722 639 718 q 571 725 593 725 l 449 725 l 449 535 l 556 535 z "},"¯":{"ha":599,"x_min":69,"x_max":529,"o":"m 101 1189 l 497 1189 l 529 1061 l 69 1061 l 101 1189 z "},"°":{"ha":433,"x_min":42,"x_max":406,"o":"m 42 853 q 56 924 42 890 q 95 981 71 957 q 153 1020 119 1006 q 224 1035 186 1035 q 294 1020 261 1035 q 352 981 328 1006 q 391 924 376 957 q 406 853 406 890 q 391 782 406 815 q 352 724 376 749 q 294 685 328 700 q 224 671 261 671 q 153 685 186 671 q 95 724 119 700 q 56 782 71 749 q 42 853 42 815 m 154 851 q 174 803 154 822 q 222 783 193 783 q 272 803 251 783 q 292 851 292 822 q 272 901 292 881 q 222 921 251 921 q 174 901 193 921 q 154 851 154 881 z "},"±":{"ha":663,"x_min":42,"x_max":621,"o":"m 42 588 l 264 588 l 264 821 l 401 821 l 401 588 l 621 588 l 621 451 l 401 451 l 401 278 l 621 278 l 621 140 l 42 140 l 42 278 l 264 278 l 264 451 l 42 451 l 42 588 z "},"²":{"ha":365,"x_min":28,"x_max":338,"o":"m 338 753 q 329 712 338 726 q 297 682 321 697 l 169 581 q 163 564 163 575 l 163 458 l 325 458 l 301 333 l 28 333 l 28 576 q 37 631 28 608 q 72 669 46 653 l 199 767 q 208 782 208 774 l 208 872 q 196 885 208 885 l 31 885 l 54 1010 l 247 1010 q 338 919 338 1010 l 338 753 z "},"³":{"ha":360,"x_min":28,"x_max":318,"o":"m 53 333 l 29 458 l 164 458 q 178 461 174 458 q 183 476 183 464 l 183 586 q 181 599 183 594 q 167 603 178 603 l 63 603 l 63 719 l 164 719 q 183 738 183 719 l 183 868 q 179 882 183 879 q 167 885 175 885 l 28 885 l 51 1010 l 225 1010 q 315 921 315 1010 l 315 732 q 306 692 315 708 q 263 674 296 676 q 308 653 297 674 q 318 606 318 633 l 318 424 q 228 333 318 333 l 53 333 z "},"´":{"ha":535,"x_min":69,"x_max":465,"o":"m 217 1097 l 69 1097 l 250 1265 l 465 1265 l 217 1097 z "},"µ":{"ha":563,"x_min":42,"x_max":521,"o":"m 336 50 q 308 13 329 25 q 254 0 286 0 l 224 0 l 224 -267 l 42 -267 l 42 743 l 226 743 l 226 183 q 243 167 226 167 l 319 167 q 336 183 336 167 l 336 743 l 521 743 l 521 0 l 336 0 l 336 50 z "},"¶":{"ha":807,"x_min":42,"x_max":765,"o":"m 765 828 l 728 828 l 728 0 l 547 0 l 547 828 l 442 828 l 442 0 l 267 0 l 267 360 l 229 360 q 135 373 172 360 q 78 407 99 386 q 49 454 57 428 q 42 508 42 481 l 42 846 q 87 967 42 925 q 204 1010 132 1010 l 765 1010 l 765 828 z "},"·":{"ha":300,"x_min":42,"x_max":258,"o":"m 42 504 q 74 581 42 549 q 150 613 106 613 q 226 581 194 613 q 258 504 258 549 q 226 428 258 460 q 150 397 194 397 q 74 428 106 397 q 42 504 42 460 z "},"¸":{"ha":471,"x_min":61,"x_max":382,"o":"m 90 -182 q 133 -206 106 -196 q 186 -215 161 -215 q 232 -203 213 -215 q 251 -164 251 -192 q 238 -133 251 -146 q 204 -119 224 -119 q 177 -122 190 -119 q 149 -132 164 -125 l 97 -101 l 179 18 l 272 18 l 222 -62 q 261 -58 240 -58 q 347 -85 311 -58 q 382 -165 382 -112 q 368 -224 382 -199 q 332 -265 354 -249 q 281 -290 310 -282 q 221 -299 251 -299 q 137 -288 179 -300 q 61 -253 94 -276 l 90 -182 z "},"¹":{"ha":296,"x_min":28,"x_max":268,"o":"m 79 1010 l 222 1010 l 222 458 l 268 458 l 268 333 l 40 333 l 40 458 l 85 458 l 85 885 l 28 885 l 79 1010 z "},"º":{"ha":401,"x_min":42,"x_max":360,"o":"m 226 626 q 238 636 238 626 l 238 892 q 226 903 238 903 l 175 903 q 164 892 164 903 l 164 636 q 175 626 164 626 l 226 626 m 42 940 q 111 1010 42 1010 l 292 1010 q 360 940 360 1010 l 360 582 q 292 513 360 513 l 111 513 q 42 582 42 513 l 42 940 z "},"»":{"ha":604,"x_min":21,"x_max":590,"o":"m 354 379 l 186 104 l 21 104 l 185 379 l 21 654 l 186 654 l 354 379 m 590 379 l 428 104 l 258 104 l 426 379 l 258 654 l 428 654 l 590 379 z "},"¼":{"ha":1043,"x_min":28,"x_max":1015,"o":"m 83 1010 l 244 1010 l 244 393 l 296 393 l 296 253 l 40 253 l 40 393 l 90 393 l 90 869 l 28 869 l 83 1010 m 714 1031 l 403 -19 l 281 -19 l 590 1031 l 714 1031 m 763 757 l 974 757 l 974 257 l 1015 257 l 1015 138 l 974 138 l 974 0 l 825 0 l 825 138 l 594 138 l 594 308 l 763 729 l 763 757 m 825 257 l 825 547 l 739 301 l 739 257 l 825 257 z "},"½":{"ha":1064,"x_min":28,"x_max":1029,"o":"m 1029 469 q 1019 424 1029 440 q 983 389 1010 407 l 842 276 q 833 258 833 271 l 833 140 l 1017 140 l 989 0 l 683 0 l 683 272 q 694 333 683 308 q 732 376 704 357 l 875 485 q 885 501 885 493 l 885 603 q 871 617 885 617 l 686 617 l 713 757 l 929 757 q 1029 656 1029 757 l 1029 469 m 83 1010 l 244 1010 l 244 393 l 296 393 l 296 253 l 40 253 l 40 393 l 90 393 l 90 869 l 28 869 l 83 1010 m 714 1031 l 403 -19 l 281 -19 l 590 1031 l 714 1031 z "},"¾":{"ha":1088,"x_min":28,"x_max":1060,"o":"m 760 1031 l 453 -19 l 331 -19 l 636 1031 l 760 1031 m 807 757 l 1018 757 l 1018 257 l 1060 257 l 1060 138 l 1018 138 l 1018 0 l 869 0 l 869 138 l 639 138 l 639 308 l 807 729 l 807 757 m 869 257 l 869 547 l 783 301 l 783 257 l 869 257 m 54 253 l 29 393 l 183 393 q 199 396 194 393 q 204 413 204 399 l 204 536 q 201 549 204 544 q 186 554 199 554 l 67 554 l 67 685 l 183 685 q 200 689 196 685 q 204 706 204 693 l 204 850 q 200 866 204 863 q 188 869 196 869 l 28 869 l 54 1010 l 247 1010 q 349 911 349 1010 l 349 700 q 338 655 349 674 q 290 633 326 636 q 341 611 329 633 q 353 558 353 589 l 353 354 q 251 253 353 253 l 54 253 z "},"¿":{"ha":506,"x_min":42,"x_max":492,"o":"m 42 250 q 68 322 42 294 q 151 350 94 350 l 258 350 l 258 507 l 425 507 l 425 242 q 408 201 425 218 q 367 183 392 183 l 258 183 q 242 179 244 183 q 239 164 239 175 l 239 -31 q 257 -49 239 -49 l 492 -49 l 457 -236 l 174 -236 q 42 -104 42 -236 l 42 250 m 447 678 q 415 601 447 633 q 339 569 383 569 q 263 601 294 569 q 231 678 231 633 q 263 753 231 722 q 339 785 294 785 q 415 753 383 785 q 447 678 447 722 z "},"Þ":{"ha":599,"x_min":42,"x_max":557,"o":"m 242 708 l 242 292 l 342 292 q 358 297 354 292 q 361 313 361 301 l 361 689 q 343 708 361 708 l 242 708 m 557 256 q 524 160 557 196 q 421 125 492 125 l 242 125 l 242 0 l 42 0 l 42 1010 l 242 1010 l 242 885 l 421 885 q 524 850 492 885 q 557 756 557 815 l 557 256 z "},"ß":{"ha":1108,"x_min":56,"x_max":1106,"o":"m 746 336 q 315 336 532 282 q 349 288 329 313 q 397 240 369 263 q 457 204 424 218 q 531 190 490 190 q 603 204 569 190 q 663 240 636 218 q 711 288 690 263 q 746 336 732 313 m 833 472 l 228 472 l 301 356 q 530 328 417 328 q 758 356 643 329 l 833 472 m 449 629 q 419 707 431 667 q 385 779 408 747 q 367 779 381 785 q 340 765 354 774 q 315 747 325 756 q 307 735 304 738 l 407 610 q 416 609 408 607 q 431 615 424 611 q 444 622 439 618 q 449 629 450 626 m 582 515 l 531 639 l 481 515 l 582 515 m 753 735 q 744 747 754 738 q 721 765 735 756 q 694 779 707 774 q 676 779 681 785 q 640 707 651 747 q 613 629 628 667 q 615 622 610 626 q 629 615 621 618 q 644 609 638 611 q 654 610 651 607 l 753 735 m 913 515 q 883 367 913 436 q 801 245 853 297 q 679 163 749 193 q 531 133 610 133 q 382 163 451 133 q 260 245 313 193 q 178 367 208 297 q 147 515 147 436 q 178 664 147 594 q 260 785 208 733 q 382 867 313 838 q 531 897 451 897 q 679 867 610 897 q 801 785 749 838 q 883 664 853 733 q 913 515 913 594 m 940 515 q 908 675 940 600 q 821 806 876 750 q 690 894 765 861 q 531 926 615 926 q 371 894 446 926 q 240 806 296 861 q 151 675 183 750 q 118 515 118 600 q 151 356 118 431 q 240 226 183 282 q 371 137 296 169 q 531 104 446 104 q 690 137 615 104 q 821 226 765 169 q 908 356 876 282 q 940 515 940 431 m 982 144 l 946 144 l 946 49 l 919 49 l 919 144 l 885 144 l 885 167 l 982 167 l 982 144 m 1006 515 q 968 331 1006 417 q 866 179 931 244 q 715 76 801 114 q 531 39 628 39 q 346 76 432 39 q 195 179 260 114 q 93 331 131 244 q 56 515 56 417 q 93 701 56 614 q 195 852 131 788 q 346 954 260 917 q 531 992 432 992 q 715 954 628 992 q 866 852 801 917 q 968 701 931 788 q 1006 515 1006 614 m 1106 49 l 1085 49 l 1085 144 l 1061 49 l 1039 49 l 1015 144 l 1015 49 l 993 49 l 993 167 l 1028 167 l 1051 75 l 1071 167 l 1106 167 l 1106 49 z "},"à":{"ha":1108,"x_min":56,"x_max":1106,"o":"m 746 336 q 315 336 532 282 q 349 288 329 313 q 397 240 369 263 q 457 204 424 218 q 531 190 490 190 q 603 204 569 190 q 663 240 636 218 q 711 288 690 263 q 746 336 732 313 m 833 472 l 228 472 l 301 356 q 530 328 417 328 q 758 356 643 329 l 833 472 m 449 629 q 419 707 431 667 q 385 779 408 747 q 367 779 381 785 q 340 765 354 774 q 315 747 325 756 q 307 735 304 738 l 407 610 q 416 609 408 607 q 431 615 424 611 q 444 622 439 618 q 449 629 450 626 m 582 515 l 531 639 l 481 515 l 582 515 m 753 735 q 744 747 754 738 q 721 765 735 756 q 694 779 707 774 q 676 779 681 785 q 640 707 651 747 q 613 629 628 667 q 615 622 610 626 q 629 615 621 618 q 644 609 638 611 q 654 610 651 607 l 753 735 m 913 515 q 883 367 913 436 q 801 245 853 297 q 679 163 749 193 q 531 133 610 133 q 382 163 451 133 q 260 245 313 193 q 178 367 208 297 q 147 515 147 436 q 178 664 147 594 q 260 785 208 733 q 382 867 313 838 q 531 897 451 897 q 679 867 610 897 q 801 785 749 838 q 883 664 853 733 q 913 515 913 594 m 940 515 q 908 675 940 600 q 821 806 876 750 q 690 894 765 861 q 531 926 615 926 q 371 894 446 926 q 240 806 296 861 q 151 675 183 750 q 118 515 118 600 q 151 356 118 431 q 240 226 183 282 q 371 137 296 169 q 531 104 446 104 q 690 137 615 104 q 821 226 765 169 q 908 356 876 282 q 940 515 940 431 m 982 144 l 946 144 l 946 49 l 919 49 l 919 144 l 885 144 l 885 167 l 982 167 l 982 144 m 1006 515 q 968 331 1006 417 q 866 179 931 244 q 715 76 801 114 q 531 39 628 39 q 346 76 432 39 q 195 179 260 114 q 93 331 131 244 q 56 515 56 417 q 93 701 56 614 q 195 852 131 788 q 346 954 260 917 q 531 992 432 992 q 715 954 628 992 q 866 852 801 917 q 968 701 931 788 q 1006 515 1006 614 m 1106 49 l 1085 49 l 1085 144 l 1061 49 l 1039 49 l 1015 144 l 1015 49 l 993 49 l 993 167 l 1028 167 l 1051 75 l 1071 167 l 1106 167 l 1106 49 z "},"á":{"ha":1108,"x_min":56,"x_max":1106,"o":"m 746 336 q 315 336 532 282 q 349 288 329 313 q 397 240 369 263 q 457 204 424 218 q 531 190 490 190 q 603 204 569 190 q 663 240 636 218 q 711 288 690 263 q 746 336 732 313 m 833 472 l 228 472 l 301 356 q 530 328 417 328 q 758 356 643 329 l 833 472 m 449 629 q 419 707 431 667 q 385 779 408 747 q 367 779 381 785 q 340 765 354 774 q 315 747 325 756 q 307 735 304 738 l 407 610 q 416 609 408 607 q 431 615 424 611 q 444 622 439 618 q 449 629 450 626 m 582 515 l 531 639 l 481 515 l 582 515 m 753 735 q 744 747 754 738 q 721 765 735 756 q 694 779 707 774 q 676 779 681 785 q 640 707 651 747 q 613 629 628 667 q 615 622 610 626 q 629 615 621 618 q 644 609 638 611 q 654 610 651 607 l 753 735 m 913 515 q 883 367 913 436 q 801 245 853 297 q 679 163 749 193 q 531 133 610 133 q 382 163 451 133 q 260 245 313 193 q 178 367 208 297 q 147 515 147 436 q 178 664 147 594 q 260 785 208 733 q 382 867 313 838 q 531 897 451 897 q 679 867 610 897 q 801 785 749 838 q 883 664 853 733 q 913 515 913 594 m 940 515 q 908 675 940 600 q 821 806 876 750 q 690 894 765 861 q 531 926 615 926 q 371 894 446 926 q 240 806 296 861 q 151 675 183 750 q 118 515 118 600 q 151 356 118 431 q 240 226 183 282 q 371 137 296 169 q 531 104 446 104 q 690 137 615 104 q 821 226 765 169 q 908 356 876 282 q 940 515 940 431 m 982 144 l 946 144 l 946 49 l 919 49 l 919 144 l 885 144 l 885 167 l 982 167 l 982 144 m 1006 515 q 968 331 1006 417 q 866 179 931 244 q 715 76 801 114 q 531 39 628 39 q 346 76 432 39 q 195 179 260 114 q 93 331 131 244 q 56 515 56 417 q 93 701 56 614 q 195 852 131 788 q 346 954 260 917 q 531 992 432 992 q 715 954 628 992 q 866 852 801 917 q 968 701 931 788 q 1006 515 1006 614 m 1106 49 l 1085 49 l 1085 144 l 1061 49 l 1039 49 l 1015 144 l 1015 49 l 993 49 l 993 167 l 1028 167 l 1051 75 l 1071 167 l 1106 167 l 1106 49 z "},"â":{"ha":1108,"x_min":56,"x_max":1106,"o":"m 746 336 q 315 336 532 282 q 349 288 329 313 q 397 240 369 263 q 457 204 424 218 q 531 190 490 190 q 603 204 569 190 q 663 240 636 218 q 711 288 690 263 q 746 336 732 313 m 833 472 l 228 472 l 301 356 q 530 328 417 328 q 758 356 643 329 l 833 472 m 449 629 q 419 707 431 667 q 385 779 408 747 q 367 779 381 785 q 340 765 354 774 q 315 747 325 756 q 307 735 304 738 l 407 610 q 416 609 408 607 q 431 615 424 611 q 444 622 439 618 q 449 629 450 626 m 582 515 l 531 639 l 481 515 l 582 515 m 753 735 q 744 747 754 738 q 721 765 735 756 q 694 779 707 774 q 676 779 681 785 q 640 707 651 747 q 613 629 628 667 q 615 622 610 626 q 629 615 621 618 q 644 609 638 611 q 654 610 651 607 l 753 735 m 913 515 q 883 367 913 436 q 801 245 853 297 q 679 163 749 193 q 531 133 610 133 q 382 163 451 133 q 260 245 313 193 q 178 367 208 297 q 147 515 147 436 q 178 664 147 594 q 260 785 208 733 q 382 867 313 838 q 531 897 451 897 q 679 867 610 897 q 801 785 749 838 q 883 664 853 733 q 913 515 913 594 m 940 515 q 908 675 940 600 q 821 806 876 750 q 690 894 765 861 q 531 926 615 926 q 371 894 446 926 q 240 806 296 861 q 151 675 183 750 q 118 515 118 600 q 151 356 118 431 q 240 226 183 282 q 371 137 296 169 q 531 104 446 104 q 690 137 615 104 q 821 226 765 169 q 908 356 876 282 q 940 515 940 431 m 982 144 l 946 144 l 946 49 l 919 49 l 919 144 l 885 144 l 885 167 l 982 167 l 982 144 m 1006 515 q 968 331 1006 417 q 866 179 931 244 q 715 76 801 114 q 531 39 628 39 q 346 76 432 39 q 195 179 260 114 q 93 331 131 244 q 56 515 56 417 q 93 701 56 614 q 195 852 131 788 q 346 954 260 917 q 531 992 432 992 q 715 954 628 992 q 866 852 801 917 q 968 701 931 788 q 1006 515 1006 614 m 1106 49 l 1085 49 l 1085 144 l 1061 49 l 1039 49 l 1015 144 l 1015 49 l 993 49 l 993 167 l 1028 167 l 1051 75 l 1071 167 l 1106 167 l 1106 49 z "},"ã":{"ha":1108,"x_min":56,"x_max":1106,"o":"m 746 336 q 315 336 532 282 q 349 288 329 313 q 397 240 369 263 q 457 204 424 218 q 531 190 490 190 q 603 204 569 190 q 663 240 636 218 q 711 288 690 263 q 746 336 732 313 m 833 472 l 228 472 l 301 356 q 530 328 417 328 q 758 356 643 329 l 833 472 m 449 629 q 419 707 431 667 q 385 779 408 747 q 367 779 381 785 q 340 765 354 774 q 315 747 325 756 q 307 735 304 738 l 407 610 q 416 609 408 607 q 431 615 424 611 q 444 622 439 618 q 449 629 450 626 m 582 515 l 531 639 l 481 515 l 582 515 m 753 735 q 744 747 754 738 q 721 765 735 756 q 694 779 707 774 q 676 779 681 785 q 640 707 651 747 q 613 629 628 667 q 615 622 610 626 q 629 615 621 618 q 644 609 638 611 q 654 610 651 607 l 753 735 m 913 515 q 883 367 913 436 q 801 245 853 297 q 679 163 749 193 q 531 133 610 133 q 382 163 451 133 q 260 245 313 193 q 178 367 208 297 q 147 515 147 436 q 178 664 147 594 q 260 785 208 733 q 382 867 313 838 q 531 897 451 897 q 679 867 610 897 q 801 785 749 838 q 883 664 853 733 q 913 515 913 594 m 940 515 q 908 675 940 600 q 821 806 876 750 q 690 894 765 861 q 531 926 615 926 q 371 894 446 926 q 240 806 296 861 q 151 675 183 750 q 118 515 118 600 q 151 356 118 431 q 240 226 183 282 q 371 137 296 169 q 531 104 446 104 q 690 137 615 104 q 821 226 765 169 q 908 356 876 282 q 940 515 940 431 m 982 144 l 946 144 l 946 49 l 919 49 l 919 144 l 885 144 l 885 167 l 982 167 l 982 144 m 1006 515 q 968 331 1006 417 q 866 179 931 244 q 715 76 801 114 q 531 39 628 39 q 346 76 432 39 q 195 179 260 114 q 93 331 131 244 q 56 515 56 417 q 93 701 56 614 q 195 852 131 788 q 346 954 260 917 q 531 992 432 992 q 715 954 628 992 q 866 852 801 917 q 968 701 931 788 q 1006 515 1006 614 m 1106 49 l 1085 49 l 1085 144 l 1061 49 l 1039 49 l 1015 144 l 1015 49 l 993 49 l 993 167 l 1028 167 l 1051 75 l 1071 167 l 1106 167 l 1106 49 z "},"ä":{"ha":1108,"x_min":56,"x_max":1106,"o":"m 746 336 q 315 336 532 282 q 349 288 329 313 q 397 240 369 263 q 457 204 424 218 q 531 190 490 190 q 603 204 569 190 q 663 240 636 218 q 711 288 690 263 q 746 336 732 313 m 833 472 l 228 472 l 301 356 q 530 328 417 328 q 758 356 643 329 l 833 472 m 449 629 q 419 707 431 667 q 385 779 408 747 q 367 779 381 785 q 340 765 354 774 q 315 747 325 756 q 307 735 304 738 l 407 610 q 416 609 408 607 q 431 615 424 611 q 444 622 439 618 q 449 629 450 626 m 582 515 l 531 639 l 481 515 l 582 515 m 753 735 q 744 747 754 738 q 721 765 735 756 q 694 779 707 774 q 676 779 681 785 q 640 707 651 747 q 613 629 628 667 q 615 622 610 626 q 629 615 621 618 q 644 609 638 611 q 654 610 651 607 l 753 735 m 913 515 q 883 367 913 436 q 801 245 853 297 q 679 163 749 193 q 531 133 610 133 q 382 163 451 133 q 260 245 313 193 q 178 367 208 297 q 147 515 147 436 q 178 664 147 594 q 260 785 208 733 q 382 867 313 838 q 531 897 451 897 q 679 867 610 897 q 801 785 749 838 q 883 664 853 733 q 913 515 913 594 m 940 515 q 908 675 940 600 q 821 806 876 750 q 690 894 765 861 q 531 926 615 926 q 371 894 446 926 q 240 806 296 861 q 151 675 183 750 q 118 515 118 600 q 151 356 118 431 q 240 226 183 282 q 371 137 296 169 q 531 104 446 104 q 690 137 615 104 q 821 226 765 169 q 908 356 876 282 q 940 515 940 431 m 982 144 l 946 144 l 946 49 l 919 49 l 919 144 l 885 144 l 885 167 l 982 167 l 982 144 m 1006 515 q 968 331 1006 417 q 866 179 931 244 q 715 76 801 114 q 531 39 628 39 q 346 76 432 39 q 195 179 260 114 q 93 331 131 244 q 56 515 56 417 q 93 701 56 614 q 195 852 131 788 q 346 954 260 917 q 531 992 432 992 q 715 954 628 992 q 866 852 801 917 q 968 701 931 788 q 1006 515 1006 614 m 1106 49 l 1085 49 l 1085 144 l 1061 49 l 1039 49 l 1015 144 l 1015 49 l 993 49 l 993 167 l 1028 167 l 1051 75 l 1071 167 l 1106 167 l 1106 49 z "},"å":{"ha":1108,"x_min":56,"x_max":1106,"o":"m 746 336 q 315 336 532 282 q 349 288 329 313 q 397 240 369 263 q 457 204 424 218 q 531 190 490 190 q 603 204 569 190 q 663 240 636 218 q 711 288 690 263 q 746 336 732 313 m 833 472 l 228 472 l 301 356 q 530 328 417 328 q 758 356 643 329 l 833 472 m 449 629 q 419 707 431 667 q 385 779 408 747 q 367 779 381 785 q 340 765 354 774 q 315 747 325 756 q 307 735 304 738 l 407 610 q 416 609 408 607 q 431 615 424 611 q 444 622 439 618 q 449 629 450 626 m 582 515 l 531 639 l 481 515 l 582 515 m 753 735 q 744 747 754 738 q 721 765 735 756 q 694 779 707 774 q 676 779 681 785 q 640 707 651 747 q 613 629 628 667 q 615 622 610 626 q 629 615 621 618 q 644 609 638 611 q 654 610 651 607 l 753 735 m 913 515 q 883 367 913 436 q 801 245 853 297 q 679 163 749 193 q 531 133 610 133 q 382 163 451 133 q 260 245 313 193 q 178 367 208 297 q 147 515 147 436 q 178 664 147 594 q 260 785 208 733 q 382 867 313 838 q 531 897 451 897 q 679 867 610 897 q 801 785 749 838 q 883 664 853 733 q 913 515 913 594 m 940 515 q 908 675 940 600 q 821 806 876 750 q 690 894 765 861 q 531 926 615 926 q 371 894 446 926 q 240 806 296 861 q 151 675 183 750 q 118 515 118 600 q 151 356 118 431 q 240 226 183 282 q 371 137 296 169 q 531 104 446 104 q 690 137 615 104 q 821 226 765 169 q 908 356 876 282 q 940 515 940 431 m 982 144 l 946 144 l 946 49 l 919 49 l 919 144 l 885 144 l 885 167 l 982 167 l 982 144 m 1006 515 q 968 331 1006 417 q 866 179 931 244 q 715 76 801 114 q 531 39 628 39 q 346 76 432 39 q 195 179 260 114 q 93 331 131 244 q 56 515 56 417 q 93 701 56 614 q 195 852 131 788 q 346 954 260 917 q 531 992 432 992 q 715 954 628 992 q 866 852 801 917 q 968 701 931 788 q 1006 515 1006 614 m 1106 49 l 1085 49 l 1085 144 l 1061 49 l 1039 49 l 1015 144 l 1015 49 l 993 49 l 993 167 l 1028 167 l 1051 75 l 1071 167 l 1106 167 l 1106 49 z "},"æ":{"ha":1108,"x_min":56,"x_max":1106,"o":"m 746 336 q 315 336 532 282 q 349 288 329 313 q 397 240 369 263 q 457 204 424 218 q 531 190 490 190 q 603 204 569 190 q 663 240 636 218 q 711 288 690 263 q 746 336 732 313 m 833 472 l 228 472 l 301 356 q 530 328 417 328 q 758 356 643 329 l 833 472 m 449 629 q 419 707 431 667 q 385 779 408 747 q 367 779 381 785 q 340 765 354 774 q 315 747 325 756 q 307 735 304 738 l 407 610 q 416 609 408 607 q 431 615 424 611 q 444 622 439 618 q 449 629 450 626 m 582 515 l 531 639 l 481 515 l 582 515 m 753 735 q 744 747 754 738 q 721 765 735 756 q 694 779 707 774 q 676 779 681 785 q 640 707 651 747 q 613 629 628 667 q 615 622 610 626 q 629 615 621 618 q 644 609 638 611 q 654 610 651 607 l 753 735 m 913 515 q 883 367 913 436 q 801 245 853 297 q 679 163 749 193 q 531 133 610 133 q 382 163 451 133 q 260 245 313 193 q 178 367 208 297 q 147 515 147 436 q 178 664 147 594 q 260 785 208 733 q 382 867 313 838 q 531 897 451 897 q 679 867 610 897 q 801 785 749 838 q 883 664 853 733 q 913 515 913 594 m 940 515 q 908 675 940 600 q 821 806 876 750 q 690 894 765 861 q 531 926 615 926 q 371 894 446 926 q 240 806 296 861 q 151 675 183 750 q 118 515 118 600 q 151 356 118 431 q 240 226 183 282 q 371 137 296 169 q 531 104 446 104 q 690 137 615 104 q 821 226 765 169 q 908 356 876 282 q 940 515 940 431 m 982 144 l 946 144 l 946 49 l 919 49 l 919 144 l 885 144 l 885 167 l 982 167 l 982 144 m 1006 515 q 968 331 1006 417 q 866 179 931 244 q 715 76 801 114 q 531 39 628 39 q 346 76 432 39 q 195 179 260 114 q 93 331 131 244 q 56 515 56 417 q 93 701 56 614 q 195 852 131 788 q 346 954 260 917 q 531 992 432 992 q 715 954 628 992 q 866 852 801 917 q 968 701 931 788 q 1006 515 1006 614 m 1106 49 l 1085 49 l 1085 144 l 1061 49 l 1039 49 l 1015 144 l 1015 49 l 993 49 l 993 167 l 1028 167 l 1051 75 l 1071 167 l 1106 167 l 1106 49 z "},"ç":{"ha":1108,"x_min":56,"x_max":1106,"o":"m 746 336 q 315 336 532 282 q 349 288 329 313 q 397 240 369 263 q 457 204 424 218 q 531 190 490 190 q 603 204 569 190 q 663 240 636 218 q 711 288 690 263 q 746 336 732 313 m 833 472 l 228 472 l 301 356 q 530 328 417 328 q 758 356 643 329 l 833 472 m 449 629 q 419 707 431 667 q 385 779 408 747 q 367 779 381 785 q 340 765 354 774 q 315 747 325 756 q 307 735 304 738 l 407 610 q 416 609 408 607 q 431 615 424 611 q 444 622 439 618 q 449 629 450 626 m 582 515 l 531 639 l 481 515 l 582 515 m 753 735 q 744 747 754 738 q 721 765 735 756 q 694 779 707 774 q 676 779 681 785 q 640 707 651 747 q 613 629 628 667 q 615 622 610 626 q 629 615 621 618 q 644 609 638 611 q 654 610 651 607 l 753 735 m 913 515 q 883 367 913 436 q 801 245 853 297 q 679 163 749 193 q 531 133 610 133 q 382 163 451 133 q 260 245 313 193 q 178 367 208 297 q 147 515 147 436 q 178 664 147 594 q 260 785 208 733 q 382 867 313 838 q 531 897 451 897 q 679 867 610 897 q 801 785 749 838 q 883 664 853 733 q 913 515 913 594 m 940 515 q 908 675 940 600 q 821 806 876 750 q 690 894 765 861 q 531 926 615 926 q 371 894 446 926 q 240 806 296 861 q 151 675 183 750 q 118 515 118 600 q 151 356 118 431 q 240 226 183 282 q 371 137 296 169 q 531 104 446 104 q 690 137 615 104 q 821 226 765 169 q 908 356 876 282 q 940 515 940 431 m 982 144 l 946 144 l 946 49 l 919 49 l 919 144 l 885 144 l 885 167 l 982 167 l 982 144 m 1006 515 q 968 331 1006 417 q 866 179 931 244 q 715 76 801 114 q 531 39 628 39 q 346 76 432 39 q 195 179 260 114 q 93 331 131 244 q 56 515 56 417 q 93 701 56 614 q 195 852 131 788 q 346 954 260 917 q 531 992 432 992 q 715 954 628 992 q 866 852 801 917 q 968 701 931 788 q 1006 515 1006 614 m 1106 49 l 1085 49 l 1085 144 l 1061 49 l 1039 49 l 1015 144 l 1015 49 l 993 49 l 993 167 l 1028 167 l 1051 75 l 1071 167 l 1106 167 l 1106 49 z "},"è":{"ha":1108,"x_min":56,"x_max":1106,"o":"m 746 336 q 315 336 532 282 q 349 288 329 313 q 397 240 369 263 q 457 204 424 218 q 531 190 490 190 q 603 204 569 190 q 663 240 636 218 q 711 288 690 263 q 746 336 732 313 m 833 472 l 228 472 l 301 356 q 530 328 417 328 q 758 356 643 329 l 833 472 m 449 629 q 419 707 431 667 q 385 779 408 747 q 367 779 381 785 q 340 765 354 774 q 315 747 325 756 q 307 735 304 738 l 407 610 q 416 609 408 607 q 431 615 424 611 q 444 622 439 618 q 449 629 450 626 m 582 515 l 531 639 l 481 515 l 582 515 m 753 735 q 744 747 754 738 q 721 765 735 756 q 694 779 707 774 q 676 779 681 785 q 640 707 651 747 q 613 629 628 667 q 615 622 610 626 q 629 615 621 618 q 644 609 638 611 q 654 610 651 607 l 753 735 m 913 515 q 883 367 913 436 q 801 245 853 297 q 679 163 749 193 q 531 133 610 133 q 382 163 451 133 q 260 245 313 193 q 178 367 208 297 q 147 515 147 436 q 178 664 147 594 q 260 785 208 733 q 382 867 313 838 q 531 897 451 897 q 679 867 610 897 q 801 785 749 838 q 883 664 853 733 q 913 515 913 594 m 940 515 q 908 675 940 600 q 821 806 876 750 q 690 894 765 861 q 531 926 615 926 q 371 894 446 926 q 240 806 296 861 q 151 675 183 750 q 118 515 118 600 q 151 356 118 431 q 240 226 183 282 q 371 137 296 169 q 531 104 446 104 q 690 137 615 104 q 821 226 765 169 q 908 356 876 282 q 940 515 940 431 m 982 144 l 946 144 l 946 49 l 919 49 l 919 144 l 885 144 l 885 167 l 982 167 l 982 144 m 1006 515 q 968 331 1006 417 q 866 179 931 244 q 715 76 801 114 q 531 39 628 39 q 346 76 432 39 q 195 179 260 114 q 93 331 131 244 q 56 515 56 417 q 93 701 56 614 q 195 852 131 788 q 346 954 260 917 q 531 992 432 992 q 715 954 628 992 q 866 852 801 917 q 968 701 931 788 q 1006 515 1006 614 m 1106 49 l 1085 49 l 1085 144 l 1061 49 l 1039 49 l 1015 144 l 1015 49 l 993 49 l 993 167 l 1028 167 l 1051 75 l 1071 167 l 1106 167 l 1106 49 z "},"é":{"ha":1108,"x_min":56,"x_max":1106,"o":"m 746 336 q 315 336 532 282 q 349 288 329 313 q 397 240 369 263 q 457 204 424 218 q 531 190 490 190 q 603 204 569 190 q 663 240 636 218 q 711 288 690 263 q 746 336 732 313 m 833 472 l 228 472 l 301 356 q 530 328 417 328 q 758 356 643 329 l 833 472 m 449 629 q 419 707 431 667 q 385 779 408 747 q 367 779 381 785 q 340 765 354 774 q 315 747 325 756 q 307 735 304 738 l 407 610 q 416 609 408 607 q 431 615 424 611 q 444 622 439 618 q 449 629 450 626 m 582 515 l 531 639 l 481 515 l 582 515 m 753 735 q 744 747 754 738 q 721 765 735 756 q 694 779 707 774 q 676 779 681 785 q 640 707 651 747 q 613 629 628 667 q 615 622 610 626 q 629 615 621 618 q 644 609 638 611 q 654 610 651 607 l 753 735 m 913 515 q 883 367 913 436 q 801 245 853 297 q 679 163 749 193 q 531 133 610 133 q 382 163 451 133 q 260 245 313 193 q 178 367 208 297 q 147 515 147 436 q 178 664 147 594 q 260 785 208 733 q 382 867 313 838 q 531 897 451 897 q 679 867 610 897 q 801 785 749 838 q 883 664 853 733 q 913 515 913 594 m 940 515 q 908 675 940 600 q 821 806 876 750 q 690 894 765 861 q 531 926 615 926 q 371 894 446 926 q 240 806 296 861 q 151 675 183 750 q 118 515 118 600 q 151 356 118 431 q 240 226 183 282 q 371 137 296 169 q 531 104 446 104 q 690 137 615 104 q 821 226 765 169 q 908 356 876 282 q 940 515 940 431 m 982 144 l 946 144 l 946 49 l 919 49 l 919 144 l 885 144 l 885 167 l 982 167 l 982 144 m 1006 515 q 968 331 1006 417 q 866 179 931 244 q 715 76 801 114 q 531 39 628 39 q 346 76 432 39 q 195 179 260 114 q 93 331 131 244 q 56 515 56 417 q 93 701 56 614 q 195 852 131 788 q 346 954 260 917 q 531 992 432 992 q 715 954 628 992 q 866 852 801 917 q 968 701 931 788 q 1006 515 1006 614 m 1106 49 l 1085 49 l 1085 144 l 1061 49 l 1039 49 l 1015 144 l 1015 49 l 993 49 l 993 167 l 1028 167 l 1051 75 l 1071 167 l 1106 167 l 1106 49 z "},"ê":{"ha":1108,"x_min":56,"x_max":1106,"o":"m 746 336 q 315 336 532 282 q 349 288 329 313 q 397 240 369 263 q 457 204 424 218 q 531 190 490 190 q 603 204 569 190 q 663 240 636 218 q 711 288 690 263 q 746 336 732 313 m 833 472 l 228 472 l 301 356 q 530 328 417 328 q 758 356 643 329 l 833 472 m 449 629 q 419 707 431 667 q 385 779 408 747 q 367 779 381 785 q 340 765 354 774 q 315 747 325 756 q 307 735 304 738 l 407 610 q 416 609 408 607 q 431 615 424 611 q 444 622 439 618 q 449 629 450 626 m 582 515 l 531 639 l 481 515 l 582 515 m 753 735 q 744 747 754 738 q 721 765 735 756 q 694 779 707 774 q 676 779 681 785 q 640 707 651 747 q 613 629 628 667 q 615 622 610 626 q 629 615 621 618 q 644 609 638 611 q 654 610 651 607 l 753 735 m 913 515 q 883 367 913 436 q 801 245 853 297 q 679 163 749 193 q 531 133 610 133 q 382 163 451 133 q 260 245 313 193 q 178 367 208 297 q 147 515 147 436 q 178 664 147 594 q 260 785 208 733 q 382 867 313 838 q 531 897 451 897 q 679 867 610 897 q 801 785 749 838 q 883 664 853 733 q 913 515 913 594 m 940 515 q 908 675 940 600 q 821 806 876 750 q 690 894 765 861 q 531 926 615 926 q 371 894 446 926 q 240 806 296 861 q 151 675 183 750 q 118 515 118 600 q 151 356 118 431 q 240 226 183 282 q 371 137 296 169 q 531 104 446 104 q 690 137 615 104 q 821 226 765 169 q 908 356 876 282 q 940 515 940 431 m 982 144 l 946 144 l 946 49 l 919 49 l 919 144 l 885 144 l 885 167 l 982 167 l 982 144 m 1006 515 q 968 331 1006 417 q 866 179 931 244 q 715 76 801 114 q 531 39 628 39 q 346 76 432 39 q 195 179 260 114 q 93 331 131 244 q 56 515 56 417 q 93 701 56 614 q 195 852 131 788 q 346 954 260 917 q 531 992 432 992 q 715 954 628 992 q 866 852 801 917 q 968 701 931 788 q 1006 515 1006 614 m 1106 49 l 1085 49 l 1085 144 l 1061 49 l 1039 49 l 1015 144 l 1015 49 l 993 49 l 993 167 l 1028 167 l 1051 75 l 1071 167 l 1106 167 l 1106 49 z "},"ë":{"ha":1108,"x_min":56,"x_max":1106,"o":"m 746 336 q 315 336 532 282 q 349 288 329 313 q 397 240 369 263 q 457 204 424 218 q 531 190 490 190 q 603 204 569 190 q 663 240 636 218 q 711 288 690 263 q 746 336 732 313 m 833 472 l 228 472 l 301 356 q 530 328 417 328 q 758 356 643 329 l 833 472 m 449 629 q 419 707 431 667 q 385 779 408 747 q 367 779 381 785 q 340 765 354 774 q 315 747 325 756 q 307 735 304 738 l 407 610 q 416 609 408 607 q 431 615 424 611 q 444 622 439 618 q 449 629 450 626 m 582 515 l 531 639 l 481 515 l 582 515 m 753 735 q 744 747 754 738 q 721 765 735 756 q 694 779 707 774 q 676 779 681 785 q 640 707 651 747 q 613 629 628 667 q 615 622 610 626 q 629 615 621 618 q 644 609 638 611 q 654 610 651 607 l 753 735 m 913 515 q 883 367 913 436 q 801 245 853 297 q 679 163 749 193 q 531 133 610 133 q 382 163 451 133 q 260 245 313 193 q 178 367 208 297 q 147 515 147 436 q 178 664 147 594 q 260 785 208 733 q 382 867 313 838 q 531 897 451 897 q 679 867 610 897 q 801 785 749 838 q 883 664 853 733 q 913 515 913 594 m 940 515 q 908 675 940 600 q 821 806 876 750 q 690 894 765 861 q 531 926 615 926 q 371 894 446 926 q 240 806 296 861 q 151 675 183 750 q 118 515 118 600 q 151 356 118 431 q 240 226 183 282 q 371 137 296 169 q 531 104 446 104 q 690 137 615 104 q 821 226 765 169 q 908 356 876 282 q 940 515 940 431 m 982 144 l 946 144 l 946 49 l 919 49 l 919 144 l 885 144 l 885 167 l 982 167 l 982 144 m 1006 515 q 968 331 1006 417 q 866 179 931 244 q 715 76 801 114 q 531 39 628 39 q 346 76 432 39 q 195 179 260 114 q 93 331 131 244 q 56 515 56 417 q 93 701 56 614 q 195 852 131 788 q 346 954 260 917 q 531 992 432 992 q 715 954 628 992 q 866 852 801 917 q 968 701 931 788 q 1006 515 1006 614 m 1106 49 l 1085 49 l 1085 144 l 1061 49 l 1039 49 l 1015 144 l 1015 49 l 993 49 l 993 167 l 1028 167 l 1051 75 l 1071 167 l 1106 167 l 1106 49 z "},"ì":{"ha":1108,"x_min":56,"x_max":1106,"o":"m 746 336 q 315 336 532 282 q 349 288 329 313 q 397 240 369 263 q 457 204 424 218 q 531 190 490 190 q 603 204 569 190 q 663 240 636 218 q 711 288 690 263 q 746 336 732 313 m 833 472 l 228 472 l 301 356 q 530 328 417 328 q 758 356 643 329 l 833 472 m 449 629 q 419 707 431 667 q 385 779 408 747 q 367 779 381 785 q 340 765 354 774 q 315 747 325 756 q 307 735 304 738 l 407 610 q 416 609 408 607 q 431 615 424 611 q 444 622 439 618 q 449 629 450 626 m 582 515 l 531 639 l 481 515 l 582 515 m 753 735 q 744 747 754 738 q 721 765 735 756 q 694 779 707 774 q 676 779 681 785 q 640 707 651 747 q 613 629 628 667 q 615 622 610 626 q 629 615 621 618 q 644 609 638 611 q 654 610 651 607 l 753 735 m 913 515 q 883 367 913 436 q 801 245 853 297 q 679 163 749 193 q 531 133 610 133 q 382 163 451 133 q 260 245 313 193 q 178 367 208 297 q 147 515 147 436 q 178 664 147 594 q 260 785 208 733 q 382 867 313 838 q 531 897 451 897 q 679 867 610 897 q 801 785 749 838 q 883 664 853 733 q 913 515 913 594 m 940 515 q 908 675 940 600 q 821 806 876 750 q 690 894 765 861 q 531 926 615 926 q 371 894 446 926 q 240 806 296 861 q 151 675 183 750 q 118 515 118 600 q 151 356 118 431 q 240 226 183 282 q 371 137 296 169 q 531 104 446 104 q 690 137 615 104 q 821 226 765 169 q 908 356 876 282 q 940 515 940 431 m 982 144 l 946 144 l 946 49 l 919 49 l 919 144 l 885 144 l 885 167 l 982 167 l 982 144 m 1006 515 q 968 331 1006 417 q 866 179 931 244 q 715 76 801 114 q 531 39 628 39 q 346 76 432 39 q 195 179 260 114 q 93 331 131 244 q 56 515 56 417 q 93 701 56 614 q 195 852 131 788 q 346 954 260 917 q 531 992 432 992 q 715 954 628 992 q 866 852 801 917 q 968 701 931 788 q 1006 515 1006 614 m 1106 49 l 1085 49 l 1085 144 l 1061 49 l 1039 49 l 1015 144 l 1015 49 l 993 49 l 993 167 l 1028 167 l 1051 75 l 1071 167 l 1106 167 l 1106 49 z "},"í":{"ha":1108,"x_min":56,"x_max":1106,"o":"m 746 336 q 315 336 532 282 q 349 288 329 313 q 397 240 369 263 q 457 204 424 218 q 531 190 490 190 q 603 204 569 190 q 663 240 636 218 q 711 288 690 263 q 746 336 732 313 m 833 472 l 228 472 l 301 356 q 530 328 417 328 q 758 356 643 329 l 833 472 m 449 629 q 419 707 431 667 q 385 779 408 747 q 367 779 381 785 q 340 765 354 774 q 315 747 325 756 q 307 735 304 738 l 407 610 q 416 609 408 607 q 431 615 424 611 q 444 622 439 618 q 449 629 450 626 m 582 515 l 531 639 l 481 515 l 582 515 m 753 735 q 744 747 754 738 q 721 765 735 756 q 694 779 707 774 q 676 779 681 785 q 640 707 651 747 q 613 629 628 667 q 615 622 610 626 q 629 615 621 618 q 644 609 638 611 q 654 610 651 607 l 753 735 m 913 515 q 883 367 913 436 q 801 245 853 297 q 679 163 749 193 q 531 133 610 133 q 382 163 451 133 q 260 245 313 193 q 178 367 208 297 q 147 515 147 436 q 178 664 147 594 q 260 785 208 733 q 382 867 313 838 q 531 897 451 897 q 679 867 610 897 q 801 785 749 838 q 883 664 853 733 q 913 515 913 594 m 940 515 q 908 675 940 600 q 821 806 876 750 q 690 894 765 861 q 531 926 615 926 q 371 894 446 926 q 240 806 296 861 q 151 675 183 750 q 118 515 118 600 q 151 356 118 431 q 240 226 183 282 q 371 137 296 169 q 531 104 446 104 q 690 137 615 104 q 821 226 765 169 q 908 356 876 282 q 940 515 940 431 m 982 144 l 946 144 l 946 49 l 919 49 l 919 144 l 885 144 l 885 167 l 982 167 l 982 144 m 1006 515 q 968 331 1006 417 q 866 179 931 244 q 715 76 801 114 q 531 39 628 39 q 346 76 432 39 q 195 179 260 114 q 93 331 131 244 q 56 515 56 417 q 93 701 56 614 q 195 852 131 788 q 346 954 260 917 q 531 992 432 992 q 715 954 628 992 q 866 852 801 917 q 968 701 931 788 q 1006 515 1006 614 m 1106 49 l 1085 49 l 1085 144 l 1061 49 l 1039 49 l 1015 144 l 1015 49 l 993 49 l 993 167 l 1028 167 l 1051 75 l 1071 167 l 1106 167 l 1106 49 z "},"î":{"ha":1108,"x_min":56,"x_max":1106,"o":"m 746 336 q 315 336 532 282 q 349 288 329 313 q 397 240 369 263 q 457 204 424 218 q 531 190 490 190 q 603 204 569 190 q 663 240 636 218 q 711 288 690 263 q 746 336 732 313 m 833 472 l 228 472 l 301 356 q 530 328 417 328 q 758 356 643 329 l 833 472 m 449 629 q 419 707 431 667 q 385 779 408 747 q 367 779 381 785 q 340 765 354 774 q 315 747 325 756 q 307 735 304 738 l 407 610 q 416 609 408 607 q 431 615 424 611 q 444 622 439 618 q 449 629 450 626 m 582 515 l 531 639 l 481 515 l 582 515 m 753 735 q 744 747 754 738 q 721 765 735 756 q 694 779 707 774 q 676 779 681 785 q 640 707 651 747 q 613 629 628 667 q 615 622 610 626 q 629 615 621 618 q 644 609 638 611 q 654 610 651 607 l 753 735 m 913 515 q 883 367 913 436 q 801 245 853 297 q 679 163 749 193 q 531 133 610 133 q 382 163 451 133 q 260 245 313 193 q 178 367 208 297 q 147 515 147 436 q 178 664 147 594 q 260 785 208 733 q 382 867 313 838 q 531 897 451 897 q 679 867 610 897 q 801 785 749 838 q 883 664 853 733 q 913 515 913 594 m 940 515 q 908 675 940 600 q 821 806 876 750 q 690 894 765 861 q 531 926 615 926 q 371 894 446 926 q 240 806 296 861 q 151 675 183 750 q 118 515 118 600 q 151 356 118 431 q 240 226 183 282 q 371 137 296 169 q 531 104 446 104 q 690 137 615 104 q 821 226 765 169 q 908 356 876 282 q 940 515 940 431 m 982 144 l 946 144 l 946 49 l 919 49 l 919 144 l 885 144 l 885 167 l 982 167 l 982 144 m 1006 515 q 968 331 1006 417 q 866 179 931 244 q 715 76 801 114 q 531 39 628 39 q 346 76 432 39 q 195 179 260 114 q 93 331 131 244 q 56 515 56 417 q 93 701 56 614 q 195 852 131 788 q 346 954 260 917 q 531 992 432 992 q 715 954 628 992 q 866 852 801 917 q 968 701 931 788 q 1006 515 1006 614 m 1106 49 l 1085 49 l 1085 144 l 1061 49 l 1039 49 l 1015 144 l 1015 49 l 993 49 l 993 167 l 1028 167 l 1051 75 l 1071 167 l 1106 167 l 1106 49 z "},"ï":{"ha":1108,"x_min":56,"x_max":1106,"o":"m 746 336 q 315 336 532 282 q 349 288 329 313 q 397 240 369 263 q 457 204 424 218 q 531 190 490 190 q 603 204 569 190 q 663 240 636 218 q 711 288 690 263 q 746 336 732 313 m 833 472 l 228 472 l 301 356 q 530 328 417 328 q 758 356 643 329 l 833 472 m 449 629 q 419 707 431 667 q 385 779 408 747 q 367 779 381 785 q 340 765 354 774 q 315 747 325 756 q 307 735 304 738 l 407 610 q 416 609 408 607 q 431 615 424 611 q 444 622 439 618 q 449 629 450 626 m 582 515 l 531 639 l 481 515 l 582 515 m 753 735 q 744 747 754 738 q 721 765 735 756 q 694 779 707 774 q 676 779 681 785 q 640 707 651 747 q 613 629 628 667 q 615 622 610 626 q 629 615 621 618 q 644 609 638 611 q 654 610 651 607 l 753 735 m 913 515 q 883 367 913 436 q 801 245 853 297 q 679 163 749 193 q 531 133 610 133 q 382 163 451 133 q 260 245 313 193 q 178 367 208 297 q 147 515 147 436 q 178 664 147 594 q 260 785 208 733 q 382 867 313 838 q 531 897 451 897 q 679 867 610 897 q 801 785 749 838 q 883 664 853 733 q 913 515 913 594 m 940 515 q 908 675 940 600 q 821 806 876 750 q 690 894 765 861 q 531 926 615 926 q 371 894 446 926 q 240 806 296 861 q 151 675 183 750 q 118 515 118 600 q 151 356 118 431 q 240 226 183 282 q 371 137 296 169 q 531 104 446 104 q 690 137 615 104 q 821 226 765 169 q 908 356 876 282 q 940 515 940 431 m 982 144 l 946 144 l 946 49 l 919 49 l 919 144 l 885 144 l 885 167 l 982 167 l 982 144 m 1006 515 q 968 331 1006 417 q 866 179 931 244 q 715 76 801 114 q 531 39 628 39 q 346 76 432 39 q 195 179 260 114 q 93 331 131 244 q 56 515 56 417 q 93 701 56 614 q 195 852 131 788 q 346 954 260 917 q 531 992 432 992 q 715 954 628 992 q 866 852 801 917 q 968 701 931 788 q 1006 515 1006 614 m 1106 49 l 1085 49 l 1085 144 l 1061 49 l 1039 49 l 1015 144 l 1015 49 l 993 49 l 993 167 l 1028 167 l 1051 75 l 1071 167 l 1106 167 l 1106 49 z "},"ð":{"ha":1108,"x_min":56,"x_max":1106,"o":"m 746 336 q 315 336 532 282 q 349 288 329 313 q 397 240 369 263 q 457 204 424 218 q 531 190 490 190 q 603 204 569 190 q 663 240 636 218 q 711 288 690 263 q 746 336 732 313 m 833 472 l 228 472 l 301 356 q 530 328 417 328 q 758 356 643 329 l 833 472 m 449 629 q 419 707 431 667 q 385 779 408 747 q 367 779 381 785 q 340 765 354 774 q 315 747 325 756 q 307 735 304 738 l 407 610 q 416 609 408 607 q 431 615 424 611 q 444 622 439 618 q 449 629 450 626 m 582 515 l 531 639 l 481 515 l 582 515 m 753 735 q 744 747 754 738 q 721 765 735 756 q 694 779 707 774 q 676 779 681 785 q 640 707 651 747 q 613 629 628 667 q 615 622 610 626 q 629 615 621 618 q 644 609 638 611 q 654 610 651 607 l 753 735 m 913 515 q 883 367 913 436 q 801 245 853 297 q 679 163 749 193 q 531 133 610 133 q 382 163 451 133 q 260 245 313 193 q 178 367 208 297 q 147 515 147 436 q 178 664 147 594 q 260 785 208 733 q 382 867 313 838 q 531 897 451 897 q 679 867 610 897 q 801 785 749 838 q 883 664 853 733 q 913 515 913 594 m 940 515 q 908 675 940 600 q 821 806 876 750 q 690 894 765 861 q 531 926 615 926 q 371 894 446 926 q 240 806 296 861 q 151 675 183 750 q 118 515 118 600 q 151 356 118 431 q 240 226 183 282 q 371 137 296 169 q 531 104 446 104 q 690 137 615 104 q 821 226 765 169 q 908 356 876 282 q 940 515 940 431 m 982 144 l 946 144 l 946 49 l 919 49 l 919 144 l 885 144 l 885 167 l 982 167 l 982 144 m 1006 515 q 968 331 1006 417 q 866 179 931 244 q 715 76 801 114 q 531 39 628 39 q 346 76 432 39 q 195 179 260 114 q 93 331 131 244 q 56 515 56 417 q 93 701 56 614 q 195 852 131 788 q 346 954 260 917 q 531 992 432 992 q 715 954 628 992 q 866 852 801 917 q 968 701 931 788 q 1006 515 1006 614 m 1106 49 l 1085 49 l 1085 144 l 1061 49 l 1039 49 l 1015 144 l 1015 49 l 993 49 l 993 167 l 1028 167 l 1051 75 l 1071 167 l 1106 167 l 1106 49 z "},"ñ":{"ha":1108,"x_min":56,"x_max":1106,"o":"m 746 336 q 315 336 532 282 q 349 288 329 313 q 397 240 369 263 q 457 204 424 218 q 531 190 490 190 q 603 204 569 190 q 663 240 636 218 q 711 288 690 263 q 746 336 732 313 m 833 472 l 228 472 l 301 356 q 530 328 417 328 q 758 356 643 329 l 833 472 m 449 629 q 419 707 431 667 q 385 779 408 747 q 367 779 381 785 q 340 765 354 774 q 315 747 325 756 q 307 735 304 738 l 407 610 q 416 609 408 607 q 431 615 424 611 q 444 622 439 618 q 449 629 450 626 m 582 515 l 531 639 l 481 515 l 582 515 m 753 735 q 744 747 754 738 q 721 765 735 756 q 694 779 707 774 q 676 779 681 785 q 640 707 651 747 q 613 629 628 667 q 615 622 610 626 q 629 615 621 618 q 644 609 638 611 q 654 610 651 607 l 753 735 m 913 515 q 883 367 913 436 q 801 245 853 297 q 679 163 749 193 q 531 133 610 133 q 382 163 451 133 q 260 245 313 193 q 178 367 208 297 q 147 515 147 436 q 178 664 147 594 q 260 785 208 733 q 382 867 313 838 q 531 897 451 897 q 679 867 610 897 q 801 785 749 838 q 883 664 853 733 q 913 515 913 594 m 940 515 q 908 675 940 600 q 821 806 876 750 q 690 894 765 861 q 531 926 615 926 q 371 894 446 926 q 240 806 296 861 q 151 675 183 750 q 118 515 118 600 q 151 356 118 431 q 240 226 183 282 q 371 137 296 169 q 531 104 446 104 q 690 137 615 104 q 821 226 765 169 q 908 356 876 282 q 940 515 940 431 m 982 144 l 946 144 l 946 49 l 919 49 l 919 144 l 885 144 l 885 167 l 982 167 l 982 144 m 1006 515 q 968 331 1006 417 q 866 179 931 244 q 715 76 801 114 q 531 39 628 39 q 346 76 432 39 q 195 179 260 114 q 93 331 131 244 q 56 515 56 417 q 93 701 56 614 q 195 852 131 788 q 346 954 260 917 q 531 992 432 992 q 715 954 628 992 q 866 852 801 917 q 968 701 931 788 q 1006 515 1006 614 m 1106 49 l 1085 49 l 1085 144 l 1061 49 l 1039 49 l 1015 144 l 1015 49 l 993 49 l 993 167 l 1028 167 l 1051 75 l 1071 167 l 1106 167 l 1106 49 z "},"ò":{"ha":1108,"x_min":56,"x_max":1106,"o":"m 746 336 q 315 336 532 282 q 349 288 329 313 q 397 240 369 263 q 457 204 424 218 q 531 190 490 190 q 603 204 569 190 q 663 240 636 218 q 711 288 690 263 q 746 336 732 313 m 833 472 l 228 472 l 301 356 q 530 328 417 328 q 758 356 643 329 l 833 472 m 449 629 q 419 707 431 667 q 385 779 408 747 q 367 779 381 785 q 340 765 354 774 q 315 747 325 756 q 307 735 304 738 l 407 610 q 416 609 408 607 q 431 615 424 611 q 444 622 439 618 q 449 629 450 626 m 582 515 l 531 639 l 481 515 l 582 515 m 753 735 q 744 747 754 738 q 721 765 735 756 q 694 779 707 774 q 676 779 681 785 q 640 707 651 747 q 613 629 628 667 q 615 622 610 626 q 629 615 621 618 q 644 609 638 611 q 654 610 651 607 l 753 735 m 913 515 q 883 367 913 436 q 801 245 853 297 q 679 163 749 193 q 531 133 610 133 q 382 163 451 133 q 260 245 313 193 q 178 367 208 297 q 147 515 147 436 q 178 664 147 594 q 260 785 208 733 q 382 867 313 838 q 531 897 451 897 q 679 867 610 897 q 801 785 749 838 q 883 664 853 733 q 913 515 913 594 m 940 515 q 908 675 940 600 q 821 806 876 750 q 690 894 765 861 q 531 926 615 926 q 371 894 446 926 q 240 806 296 861 q 151 675 183 750 q 118 515 118 600 q 151 356 118 431 q 240 226 183 282 q 371 137 296 169 q 531 104 446 104 q 690 137 615 104 q 821 226 765 169 q 908 356 876 282 q 940 515 940 431 m 982 144 l 946 144 l 946 49 l 919 49 l 919 144 l 885 144 l 885 167 l 982 167 l 982 144 m 1006 515 q 968 331 1006 417 q 866 179 931 244 q 715 76 801 114 q 531 39 628 39 q 346 76 432 39 q 195 179 260 114 q 93 331 131 244 q 56 515 56 417 q 93 701 56 614 q 195 852 131 788 q 346 954 260 917 q 531 992 432 992 q 715 954 628 992 q 866 852 801 917 q 968 701 931 788 q 1006 515 1006 614 m 1106 49 l 1085 49 l 1085 144 l 1061 49 l 1039 49 l 1015 144 l 1015 49 l 993 49 l 993 167 l 1028 167 l 1051 75 l 1071 167 l 1106 167 l 1106 49 z "},"ó":{"ha":1108,"x_min":56,"x_max":1106,"o":"m 746 336 q 315 336 532 282 q 349 288 329 313 q 397 240 369 263 q 457 204 424 218 q 531 190 490 190 q 603 204 569 190 q 663 240 636 218 q 711 288 690 263 q 746 336 732 313 m 833 472 l 228 472 l 301 356 q 530 328 417 328 q 758 356 643 329 l 833 472 m 449 629 q 419 707 431 667 q 385 779 408 747 q 367 779 381 785 q 340 765 354 774 q 315 747 325 756 q 307 735 304 738 l 407 610 q 416 609 408 607 q 431 615 424 611 q 444 622 439 618 q 449 629 450 626 m 582 515 l 531 639 l 481 515 l 582 515 m 753 735 q 744 747 754 738 q 721 765 735 756 q 694 779 707 774 q 676 779 681 785 q 640 707 651 747 q 613 629 628 667 q 615 622 610 626 q 629 615 621 618 q 644 609 638 611 q 654 610 651 607 l 753 735 m 913 515 q 883 367 913 436 q 801 245 853 297 q 679 163 749 193 q 531 133 610 133 q 382 163 451 133 q 260 245 313 193 q 178 367 208 297 q 147 515 147 436 q 178 664 147 594 q 260 785 208 733 q 382 867 313 838 q 531 897 451 897 q 679 867 610 897 q 801 785 749 838 q 883 664 853 733 q 913 515 913 594 m 940 515 q 908 675 940 600 q 821 806 876 750 q 690 894 765 861 q 531 926 615 926 q 371 894 446 926 q 240 806 296 861 q 151 675 183 750 q 118 515 118 600 q 151 356 118 431 q 240 226 183 282 q 371 137 296 169 q 531 104 446 104 q 690 137 615 104 q 821 226 765 169 q 908 356 876 282 q 940 515 940 431 m 982 144 l 946 144 l 946 49 l 919 49 l 919 144 l 885 144 l 885 167 l 982 167 l 982 144 m 1006 515 q 968 331 1006 417 q 866 179 931 244 q 715 76 801 114 q 531 39 628 39 q 346 76 432 39 q 195 179 260 114 q 93 331 131 244 q 56 515 56 417 q 93 701 56 614 q 195 852 131 788 q 346 954 260 917 q 531 992 432 992 q 715 954 628 992 q 866 852 801 917 q 968 701 931 788 q 1006 515 1006 614 m 1106 49 l 1085 49 l 1085 144 l 1061 49 l 1039 49 l 1015 144 l 1015 49 l 993 49 l 993 167 l 1028 167 l 1051 75 l 1071 167 l 1106 167 l 1106 49 z "},"ô":{"ha":1108,"x_min":56,"x_max":1106,"o":"m 746 336 q 315 336 532 282 q 349 288 329 313 q 397 240 369 263 q 457 204 424 218 q 531 190 490 190 q 603 204 569 190 q 663 240 636 218 q 711 288 690 263 q 746 336 732 313 m 833 472 l 228 472 l 301 356 q 530 328 417 328 q 758 356 643 329 l 833 472 m 449 629 q 419 707 431 667 q 385 779 408 747 q 367 779 381 785 q 340 765 354 774 q 315 747 325 756 q 307 735 304 738 l 407 610 q 416 609 408 607 q 431 615 424 611 q 444 622 439 618 q 449 629 450 626 m 582 515 l 531 639 l 481 515 l 582 515 m 753 735 q 744 747 754 738 q 721 765 735 756 q 694 779 707 774 q 676 779 681 785 q 640 707 651 747 q 613 629 628 667 q 615 622 610 626 q 629 615 621 618 q 644 609 638 611 q 654 610 651 607 l 753 735 m 913 515 q 883 367 913 436 q 801 245 853 297 q 679 163 749 193 q 531 133 610 133 q 382 163 451 133 q 260 245 313 193 q 178 367 208 297 q 147 515 147 436 q 178 664 147 594 q 260 785 208 733 q 382 867 313 838 q 531 897 451 897 q 679 867 610 897 q 801 785 749 838 q 883 664 853 733 q 913 515 913 594 m 940 515 q 908 675 940 600 q 821 806 876 750 q 690 894 765 861 q 531 926 615 926 q 371 894 446 926 q 240 806 296 861 q 151 675 183 750 q 118 515 118 600 q 151 356 118 431 q 240 226 183 282 q 371 137 296 169 q 531 104 446 104 q 690 137 615 104 q 821 226 765 169 q 908 356 876 282 q 940 515 940 431 m 982 144 l 946 144 l 946 49 l 919 49 l 919 144 l 885 144 l 885 167 l 982 167 l 982 144 m 1006 515 q 968 331 1006 417 q 866 179 931 244 q 715 76 801 114 q 531 39 628 39 q 346 76 432 39 q 195 179 260 114 q 93 331 131 244 q 56 515 56 417 q 93 701 56 614 q 195 852 131 788 q 346 954 260 917 q 531 992 432 992 q 715 954 628 992 q 866 852 801 917 q 968 701 931 788 q 1006 515 1006 614 m 1106 49 l 1085 49 l 1085 144 l 1061 49 l 1039 49 l 1015 144 l 1015 49 l 993 49 l 993 167 l 1028 167 l 1051 75 l 1071 167 l 1106 167 l 1106 49 z "},"õ":{"ha":1108,"x_min":56,"x_max":1106,"o":"m 746 336 q 315 336 532 282 q 349 288 329 313 q 397 240 369 263 q 457 204 424 218 q 531 190 490 190 q 603 204 569 190 q 663 240 636 218 q 711 288 690 263 q 746 336 732 313 m 833 472 l 228 472 l 301 356 q 530 328 417 328 q 758 356 643 329 l 833 472 m 449 629 q 419 707 431 667 q 385 779 408 747 q 367 779 381 785 q 340 765 354 774 q 315 747 325 756 q 307 735 304 738 l 407 610 q 416 609 408 607 q 431 615 424 611 q 444 622 439 618 q 449 629 450 626 m 582 515 l 531 639 l 481 515 l 582 515 m 753 735 q 744 747 754 738 q 721 765 735 756 q 694 779 707 774 q 676 779 681 785 q 640 707 651 747 q 613 629 628 667 q 615 622 610 626 q 629 615 621 618 q 644 609 638 611 q 654 610 651 607 l 753 735 m 913 515 q 883 367 913 436 q 801 245 853 297 q 679 163 749 193 q 531 133 610 133 q 382 163 451 133 q 260 245 313 193 q 178 367 208 297 q 147 515 147 436 q 178 664 147 594 q 260 785 208 733 q 382 867 313 838 q 531 897 451 897 q 679 867 610 897 q 801 785 749 838 q 883 664 853 733 q 913 515 913 594 m 940 515 q 908 675 940 600 q 821 806 876 750 q 690 894 765 861 q 531 926 615 926 q 371 894 446 926 q 240 806 296 861 q 151 675 183 750 q 118 515 118 600 q 151 356 118 431 q 240 226 183 282 q 371 137 296 169 q 531 104 446 104 q 690 137 615 104 q 821 226 765 169 q 908 356 876 282 q 940 515 940 431 m 982 144 l 946 144 l 946 49 l 919 49 l 919 144 l 885 144 l 885 167 l 982 167 l 982 144 m 1006 515 q 968 331 1006 417 q 866 179 931 244 q 715 76 801 114 q 531 39 628 39 q 346 76 432 39 q 195 179 260 114 q 93 331 131 244 q 56 515 56 417 q 93 701 56 614 q 195 852 131 788 q 346 954 260 917 q 531 992 432 992 q 715 954 628 992 q 866 852 801 917 q 968 701 931 788 q 1006 515 1006 614 m 1106 49 l 1085 49 l 1085 144 l 1061 49 l 1039 49 l 1015 144 l 1015 49 l 993 49 l 993 167 l 1028 167 l 1051 75 l 1071 167 l 1106 167 l 1106 49 z "},"ö":{"ha":1108,"x_min":56,"x_max":1106,"o":"m 746 336 q 315 336 532 282 q 349 288 329 313 q 397 240 369 263 q 457 204 424 218 q 531 190 490 190 q 603 204 569 190 q 663 240 636 218 q 711 288 690 263 q 746 336 732 313 m 833 472 l 228 472 l 301 356 q 530 328 417 328 q 758 356 643 329 l 833 472 m 449 629 q 419 707 431 667 q 385 779 408 747 q 367 779 381 785 q 340 765 354 774 q 315 747 325 756 q 307 735 304 738 l 407 610 q 416 609 408 607 q 431 615 424 611 q 444 622 439 618 q 449 629 450 626 m 582 515 l 531 639 l 481 515 l 582 515 m 753 735 q 744 747 754 738 q 721 765 735 756 q 694 779 707 774 q 676 779 681 785 q 640 707 651 747 q 613 629 628 667 q 615 622 610 626 q 629 615 621 618 q 644 609 638 611 q 654 610 651 607 l 753 735 m 913 515 q 883 367 913 436 q 801 245 853 297 q 679 163 749 193 q 531 133 610 133 q 382 163 451 133 q 260 245 313 193 q 178 367 208 297 q 147 515 147 436 q 178 664 147 594 q 260 785 208 733 q 382 867 313 838 q 531 897 451 897 q 679 867 610 897 q 801 785 749 838 q 883 664 853 733 q 913 515 913 594 m 940 515 q 908 675 940 600 q 821 806 876 750 q 690 894 765 861 q 531 926 615 926 q 371 894 446 926 q 240 806 296 861 q 151 675 183 750 q 118 515 118 600 q 151 356 118 431 q 240 226 183 282 q 371 137 296 169 q 531 104 446 104 q 690 137 615 104 q 821 226 765 169 q 908 356 876 282 q 940 515 940 431 m 982 144 l 946 144 l 946 49 l 919 49 l 919 144 l 885 144 l 885 167 l 982 167 l 982 144 m 1006 515 q 968 331 1006 417 q 866 179 931 244 q 715 76 801 114 q 531 39 628 39 q 346 76 432 39 q 195 179 260 114 q 93 331 131 244 q 56 515 56 417 q 93 701 56 614 q 195 852 131 788 q 346 954 260 917 q 531 992 432 992 q 715 954 628 992 q 866 852 801 917 q 968 701 931 788 q 1006 515 1006 614 m 1106 49 l 1085 49 l 1085 144 l 1061 49 l 1039 49 l 1015 144 l 1015 49 l 993 49 l 993 167 l 1028 167 l 1051 75 l 1071 167 l 1106 167 l 1106 49 z "},"÷":{"ha":1108,"x_min":56,"x_max":1106,"o":"m 746 336 q 315 336 532 282 q 349 288 329 313 q 397 240 369 263 q 457 204 424 218 q 531 190 490 190 q 603 204 569 190 q 663 240 636 218 q 711 288 690 263 q 746 336 732 313 m 833 472 l 228 472 l 301 356 q 530 328 417 328 q 758 356 643 329 l 833 472 m 449 629 q 419 707 431 667 q 385 779 408 747 q 367 779 381 785 q 340 765 354 774 q 315 747 325 756 q 307 735 304 738 l 407 610 q 416 609 408 607 q 431 615 424 611 q 444 622 439 618 q 449 629 450 626 m 582 515 l 531 639 l 481 515 l 582 515 m 753 735 q 744 747 754 738 q 721 765 735 756 q 694 779 707 774 q 676 779 681 785 q 640 707 651 747 q 613 629 628 667 q 615 622 610 626 q 629 615 621 618 q 644 609 638 611 q 654 610 651 607 l 753 735 m 913 515 q 883 367 913 436 q 801 245 853 297 q 679 163 749 193 q 531 133 610 133 q 382 163 451 133 q 260 245 313 193 q 178 367 208 297 q 147 515 147 436 q 178 664 147 594 q 260 785 208 733 q 382 867 313 838 q 531 897 451 897 q 679 867 610 897 q 801 785 749 838 q 883 664 853 733 q 913 515 913 594 m 940 515 q 908 675 940 600 q 821 806 876 750 q 690 894 765 861 q 531 926 615 926 q 371 894 446 926 q 240 806 296 861 q 151 675 183 750 q 118 515 118 600 q 151 356 118 431 q 240 226 183 282 q 371 137 296 169 q 531 104 446 104 q 690 137 615 104 q 821 226 765 169 q 908 356 876 282 q 940 515 940 431 m 982 144 l 946 144 l 946 49 l 919 49 l 919 144 l 885 144 l 885 167 l 982 167 l 982 144 m 1006 515 q 968 331 1006 417 q 866 179 931 244 q 715 76 801 114 q 531 39 628 39 q 346 76 432 39 q 195 179 260 114 q 93 331 131 244 q 56 515 56 417 q 93 701 56 614 q 195 852 131 788 q 346 954 260 917 q 531 992 432 992 q 715 954 628 992 q 866 852 801 917 q 968 701 931 788 q 1006 515 1006 614 m 1106 49 l 1085 49 l 1085 144 l 1061 49 l 1039 49 l 1015 144 l 1015 49 l 993 49 l 993 167 l 1028 167 l 1051 75 l 1071 167 l 1106 167 l 1106 49 z "},"ø":{"ha":1108,"x_min":56,"x_max":1106,"o":"m 746 336 q 315 336 532 282 q 349 288 329 313 q 397 240 369 263 q 457 204 424 218 q 531 190 490 190 q 603 204 569 190 q 663 240 636 218 q 711 288 690 263 q 746 336 732 313 m 833 472 l 228 472 l 301 356 q 530 328 417 328 q 758 356 643 329 l 833 472 m 449 629 q 419 707 431 667 q 385 779 408 747 q 367 779 381 785 q 340 765 354 774 q 315 747 325 756 q 307 735 304 738 l 407 610 q 416 609 408 607 q 431 615 424 611 q 444 622 439 618 q 449 629 450 626 m 582 515 l 531 639 l 481 515 l 582 515 m 753 735 q 744 747 754 738 q 721 765 735 756 q 694 779 707 774 q 676 779 681 785 q 640 707 651 747 q 613 629 628 667 q 615 622 610 626 q 629 615 621 618 q 644 609 638 611 q 654 610 651 607 l 753 735 m 913 515 q 883 367 913 436 q 801 245 853 297 q 679 163 749 193 q 531 133 610 133 q 382 163 451 133 q 260 245 313 193 q 178 367 208 297 q 147 515 147 436 q 178 664 147 594 q 260 785 208 733 q 382 867 313 838 q 531 897 451 897 q 679 867 610 897 q 801 785 749 838 q 883 664 853 733 q 913 515 913 594 m 940 515 q 908 675 940 600 q 821 806 876 750 q 690 894 765 861 q 531 926 615 926 q 371 894 446 926 q 240 806 296 861 q 151 675 183 750 q 118 515 118 600 q 151 356 118 431 q 240 226 183 282 q 371 137 296 169 q 531 104 446 104 q 690 137 615 104 q 821 226 765 169 q 908 356 876 282 q 940 515 940 431 m 982 144 l 946 144 l 946 49 l 919 49 l 919 144 l 885 144 l 885 167 l 982 167 l 982 144 m 1006 515 q 968 331 1006 417 q 866 179 931 244 q 715 76 801 114 q 531 39 628 39 q 346 76 432 39 q 195 179 260 114 q 93 331 131 244 q 56 515 56 417 q 93 701 56 614 q 195 852 131 788 q 346 954 260 917 q 531 992 432 992 q 715 954 628 992 q 866 852 801 917 q 968 701 931 788 q 1006 515 1006 614 m 1106 49 l 1085 49 l 1085 144 l 1061 49 l 1039 49 l 1015 144 l 1015 49 l 993 49 l 993 167 l 1028 167 l 1051 75 l 1071 167 l 1106 167 l 1106 49 z "},"ù":{"ha":1108,"x_min":56,"x_max":1106,"o":"m 746 336 q 315 336 532 282 q 349 288 329 313 q 397 240 369 263 q 457 204 424 218 q 531 190 490 190 q 603 204 569 190 q 663 240 636 218 q 711 288 690 263 q 746 336 732 313 m 833 472 l 228 472 l 301 356 q 530 328 417 328 q 758 356 643 329 l 833 472 m 449 629 q 419 707 431 667 q 385 779 408 747 q 367 779 381 785 q 340 765 354 774 q 315 747 325 756 q 307 735 304 738 l 407 610 q 416 609 408 607 q 431 615 424 611 q 444 622 439 618 q 449 629 450 626 m 582 515 l 531 639 l 481 515 l 582 515 m 753 735 q 744 747 754 738 q 721 765 735 756 q 694 779 707 774 q 676 779 681 785 q 640 707 651 747 q 613 629 628 667 q 615 622 610 626 q 629 615 621 618 q 644 609 638 611 q 654 610 651 607 l 753 735 m 913 515 q 883 367 913 436 q 801 245 853 297 q 679 163 749 193 q 531 133 610 133 q 382 163 451 133 q 260 245 313 193 q 178 367 208 297 q 147 515 147 436 q 178 664 147 594 q 260 785 208 733 q 382 867 313 838 q 531 897 451 897 q 679 867 610 897 q 801 785 749 838 q 883 664 853 733 q 913 515 913 594 m 940 515 q 908 675 940 600 q 821 806 876 750 q 690 894 765 861 q 531 926 615 926 q 371 894 446 926 q 240 806 296 861 q 151 675 183 750 q 118 515 118 600 q 151 356 118 431 q 240 226 183 282 q 371 137 296 169 q 531 104 446 104 q 690 137 615 104 q 821 226 765 169 q 908 356 876 282 q 940 515 940 431 m 982 144 l 946 144 l 946 49 l 919 49 l 919 144 l 885 144 l 885 167 l 982 167 l 982 144 m 1006 515 q 968 331 1006 417 q 866 179 931 244 q 715 76 801 114 q 531 39 628 39 q 346 76 432 39 q 195 179 260 114 q 93 331 131 244 q 56 515 56 417 q 93 701 56 614 q 195 852 131 788 q 346 954 260 917 q 531 992 432 992 q 715 954 628 992 q 866 852 801 917 q 968 701 931 788 q 1006 515 1006 614 m 1106 49 l 1085 49 l 1085 144 l 1061 49 l 1039 49 l 1015 144 l 1015 49 l 993 49 l 993 167 l 1028 167 l 1051 75 l 1071 167 l 1106 167 l 1106 49 z "},"ú":{"ha":1108,"x_min":56,"x_max":1106,"o":"m 746 336 q 315 336 532 282 q 349 288 329 313 q 397 240 369 263 q 457 204 424 218 q 531 190 490 190 q 603 204 569 190 q 663 240 636 218 q 711 288 690 263 q 746 336 732 313 m 833 472 l 228 472 l 301 356 q 530 328 417 328 q 758 356 643 329 l 833 472 m 449 629 q 419 707 431 667 q 385 779 408 747 q 367 779 381 785 q 340 765 354 774 q 315 747 325 756 q 307 735 304 738 l 407 610 q 416 609 408 607 q 431 615 424 611 q 444 622 439 618 q 449 629 450 626 m 582 515 l 531 639 l 481 515 l 582 515 m 753 735 q 744 747 754 738 q 721 765 735 756 q 694 779 707 774 q 676 779 681 785 q 640 707 651 747 q 613 629 628 667 q 615 622 610 626 q 629 615 621 618 q 644 609 638 611 q 654 610 651 607 l 753 735 m 913 515 q 883 367 913 436 q 801 245 853 297 q 679 163 749 193 q 531 133 610 133 q 382 163 451 133 q 260 245 313 193 q 178 367 208 297 q 147 515 147 436 q 178 664 147 594 q 260 785 208 733 q 382 867 313 838 q 531 897 451 897 q 679 867 610 897 q 801 785 749 838 q 883 664 853 733 q 913 515 913 594 m 940 515 q 908 675 940 600 q 821 806 876 750 q 690 894 765 861 q 531 926 615 926 q 371 894 446 926 q 240 806 296 861 q 151 675 183 750 q 118 515 118 600 q 151 356 118 431 q 240 226 183 282 q 371 137 296 169 q 531 104 446 104 q 690 137 615 104 q 821 226 765 169 q 908 356 876 282 q 940 515 940 431 m 982 144 l 946 144 l 946 49 l 919 49 l 919 144 l 885 144 l 885 167 l 982 167 l 982 144 m 1006 515 q 968 331 1006 417 q 866 179 931 244 q 715 76 801 114 q 531 39 628 39 q 346 76 432 39 q 195 179 260 114 q 93 331 131 244 q 56 515 56 417 q 93 701 56 614 q 195 852 131 788 q 346 954 260 917 q 531 992 432 992 q 715 954 628 992 q 866 852 801 917 q 968 701 931 788 q 1006 515 1006 614 m 1106 49 l 1085 49 l 1085 144 l 1061 49 l 1039 49 l 1015 144 l 1015 49 l 993 49 l 993 167 l 1028 167 l 1051 75 l 1071 167 l 1106 167 l 1106 49 z "},"û":{"ha":1108,"x_min":56,"x_max":1106,"o":"m 746 336 q 315 336 532 282 q 349 288 329 313 q 397 240 369 263 q 457 204 424 218 q 531 190 490 190 q 603 204 569 190 q 663 240 636 218 q 711 288 690 263 q 746 336 732 313 m 833 472 l 228 472 l 301 356 q 530 328 417 328 q 758 356 643 329 l 833 472 m 449 629 q 419 707 431 667 q 385 779 408 747 q 367 779 381 785 q 340 765 354 774 q 315 747 325 756 q 307 735 304 738 l 407 610 q 416 609 408 607 q 431 615 424 611 q 444 622 439 618 q 449 629 450 626 m 582 515 l 531 639 l 481 515 l 582 515 m 753 735 q 744 747 754 738 q 721 765 735 756 q 694 779 707 774 q 676 779 681 785 q 640 707 651 747 q 613 629 628 667 q 615 622 610 626 q 629 615 621 618 q 644 609 638 611 q 654 610 651 607 l 753 735 m 913 515 q 883 367 913 436 q 801 245 853 297 q 679 163 749 193 q 531 133 610 133 q 382 163 451 133 q 260 245 313 193 q 178 367 208 297 q 147 515 147 436 q 178 664 147 594 q 260 785 208 733 q 382 867 313 838 q 531 897 451 897 q 679 867 610 897 q 801 785 749 838 q 883 664 853 733 q 913 515 913 594 m 940 515 q 908 675 940 600 q 821 806 876 750 q 690 894 765 861 q 531 926 615 926 q 371 894 446 926 q 240 806 296 861 q 151 675 183 750 q 118 515 118 600 q 151 356 118 431 q 240 226 183 282 q 371 137 296 169 q 531 104 446 104 q 690 137 615 104 q 821 226 765 169 q 908 356 876 282 q 940 515 940 431 m 982 144 l 946 144 l 946 49 l 919 49 l 919 144 l 885 144 l 885 167 l 982 167 l 982 144 m 1006 515 q 968 331 1006 417 q 866 179 931 244 q 715 76 801 114 q 531 39 628 39 q 346 76 432 39 q 195 179 260 114 q 93 331 131 244 q 56 515 56 417 q 93 701 56 614 q 195 852 131 788 q 346 954 260 917 q 531 992 432 992 q 715 954 628 992 q 866 852 801 917 q 968 701 931 788 q 1006 515 1006 614 m 1106 49 l 1085 49 l 1085 144 l 1061 49 l 1039 49 l 1015 144 l 1015 49 l 993 49 l 993 167 l 1028 167 l 1051 75 l 1071 167 l 1106 167 l 1106 49 z "},"ü":{"ha":1108,"x_min":56,"x_max":1106,"o":"m 746 336 q 315 336 532 282 q 349 288 329 313 q 397 240 369 263 q 457 204 424 218 q 531 190 490 190 q 603 204 569 190 q 663 240 636 218 q 711 288 690 263 q 746 336 732 313 m 833 472 l 228 472 l 301 356 q 530 328 417 328 q 758 356 643 329 l 833 472 m 449 629 q 419 707 431 667 q 385 779 408 747 q 367 779 381 785 q 340 765 354 774 q 315 747 325 756 q 307 735 304 738 l 407 610 q 416 609 408 607 q 431 615 424 611 q 444 622 439 618 q 449 629 450 626 m 582 515 l 531 639 l 481 515 l 582 515 m 753 735 q 744 747 754 738 q 721 765 735 756 q 694 779 707 774 q 676 779 681 785 q 640 707 651 747 q 613 629 628 667 q 615 622 610 626 q 629 615 621 618 q 644 609 638 611 q 654 610 651 607 l 753 735 m 913 515 q 883 367 913 436 q 801 245 853 297 q 679 163 749 193 q 531 133 610 133 q 382 163 451 133 q 260 245 313 193 q 178 367 208 297 q 147 515 147 436 q 178 664 147 594 q 260 785 208 733 q 382 867 313 838 q 531 897 451 897 q 679 867 610 897 q 801 785 749 838 q 883 664 853 733 q 913 515 913 594 m 940 515 q 908 675 940 600 q 821 806 876 750 q 690 894 765 861 q 531 926 615 926 q 371 894 446 926 q 240 806 296 861 q 151 675 183 750 q 118 515 118 600 q 151 356 118 431 q 240 226 183 282 q 371 137 296 169 q 531 104 446 104 q 690 137 615 104 q 821 226 765 169 q 908 356 876 282 q 940 515 940 431 m 982 144 l 946 144 l 946 49 l 919 49 l 919 144 l 885 144 l 885 167 l 982 167 l 982 144 m 1006 515 q 968 331 1006 417 q 866 179 931 244 q 715 76 801 114 q 531 39 628 39 q 346 76 432 39 q 195 179 260 114 q 93 331 131 244 q 56 515 56 417 q 93 701 56 614 q 195 852 131 788 q 346 954 260 917 q 531 992 432 992 q 715 954 628 992 q 866 852 801 917 q 968 701 931 788 q 1006 515 1006 614 m 1106 49 l 1085 49 l 1085 144 l 1061 49 l 1039 49 l 1015 144 l 1015 49 l 993 49 l 993 167 l 1028 167 l 1051 75 l 1071 167 l 1106 167 l 1106 49 z "},"ý":{"ha":1108,"x_min":56,"x_max":1106,"o":"m 746 336 q 315 336 532 282 q 349 288 329 313 q 397 240 369 263 q 457 204 424 218 q 531 190 490 190 q 603 204 569 190 q 663 240 636 218 q 711 288 690 263 q 746 336 732 313 m 833 472 l 228 472 l 301 356 q 530 328 417 328 q 758 356 643 329 l 833 472 m 449 629 q 419 707 431 667 q 385 779 408 747 q 367 779 381 785 q 340 765 354 774 q 315 747 325 756 q 307 735 304 738 l 407 610 q 416 609 408 607 q 431 615 424 611 q 444 622 439 618 q 449 629 450 626 m 582 515 l 531 639 l 481 515 l 582 515 m 753 735 q 744 747 754 738 q 721 765 735 756 q 694 779 707 774 q 676 779 681 785 q 640 707 651 747 q 613 629 628 667 q 615 622 610 626 q 629 615 621 618 q 644 609 638 611 q 654 610 651 607 l 753 735 m 913 515 q 883 367 913 436 q 801 245 853 297 q 679 163 749 193 q 531 133 610 133 q 382 163 451 133 q 260 245 313 193 q 178 367 208 297 q 147 515 147 436 q 178 664 147 594 q 260 785 208 733 q 382 867 313 838 q 531 897 451 897 q 679 867 610 897 q 801 785 749 838 q 883 664 853 733 q 913 515 913 594 m 940 515 q 908 675 940 600 q 821 806 876 750 q 690 894 765 861 q 531 926 615 926 q 371 894 446 926 q 240 806 296 861 q 151 675 183 750 q 118 515 118 600 q 151 356 118 431 q 240 226 183 282 q 371 137 296 169 q 531 104 446 104 q 690 137 615 104 q 821 226 765 169 q 908 356 876 282 q 940 515 940 431 m 982 144 l 946 144 l 946 49 l 919 49 l 919 144 l 885 144 l 885 167 l 982 167 l 982 144 m 1006 515 q 968 331 1006 417 q 866 179 931 244 q 715 76 801 114 q 531 39 628 39 q 346 76 432 39 q 195 179 260 114 q 93 331 131 244 q 56 515 56 417 q 93 701 56 614 q 195 852 131 788 q 346 954 260 917 q 531 992 432 992 q 715 954 628 992 q 866 852 801 917 q 968 701 931 788 q 1006 515 1006 614 m 1106 49 l 1085 49 l 1085 144 l 1061 49 l 1039 49 l 1015 144 l 1015 49 l 993 49 l 993 167 l 1028 167 l 1051 75 l 1071 167 l 1106 167 l 1106 49 z "},"þ":{"ha":1108,"x_min":56,"x_max":1106,"o":"m 746 336 q 315 336 532 282 q 349 288 329 313 q 397 240 369 263 q 457 204 424 218 q 531 190 490 190 q 603 204 569 190 q 663 240 636 218 q 711 288 690 263 q 746 336 732 313 m 833 472 l 228 472 l 301 356 q 530 328 417 328 q 758 356 643 329 l 833 472 m 449 629 q 419 707 431 667 q 385 779 408 747 q 367 779 381 785 q 340 765 354 774 q 315 747 325 756 q 307 735 304 738 l 407 610 q 416 609 408 607 q 431 615 424 611 q 444 622 439 618 q 449 629 450 626 m 582 515 l 531 639 l 481 515 l 582 515 m 753 735 q 744 747 754 738 q 721 765 735 756 q 694 779 707 774 q 676 779 681 785 q 640 707 651 747 q 613 629 628 667 q 615 622 610 626 q 629 615 621 618 q 644 609 638 611 q 654 610 651 607 l 753 735 m 913 515 q 883 367 913 436 q 801 245 853 297 q 679 163 749 193 q 531 133 610 133 q 382 163 451 133 q 260 245 313 193 q 178 367 208 297 q 147 515 147 436 q 178 664 147 594 q 260 785 208 733 q 382 867 313 838 q 531 897 451 897 q 679 867 610 897 q 801 785 749 838 q 883 664 853 733 q 913 515 913 594 m 940 515 q 908 675 940 600 q 821 806 876 750 q 690 894 765 861 q 531 926 615 926 q 371 894 446 926 q 240 806 296 861 q 151 675 183 750 q 118 515 118 600 q 151 356 118 431 q 240 226 183 282 q 371 137 296 169 q 531 104 446 104 q 690 137 615 104 q 821 226 765 169 q 908 356 876 282 q 940 515 940 431 m 982 144 l 946 144 l 946 49 l 919 49 l 919 144 l 885 144 l 885 167 l 982 167 l 982 144 m 1006 515 q 968 331 1006 417 q 866 179 931 244 q 715 76 801 114 q 531 39 628 39 q 346 76 432 39 q 195 179 260 114 q 93 331 131 244 q 56 515 56 417 q 93 701 56 614 q 195 852 131 788 q 346 954 260 917 q 531 992 432 992 q 715 954 628 992 q 866 852 801 917 q 968 701 931 788 q 1006 515 1006 614 m 1106 49 l 1085 49 l 1085 144 l 1061 49 l 1039 49 l 1015 144 l 1015 49 l 993 49 l 993 167 l 1028 167 l 1051 75 l 1071 167 l 1106 167 l 1106 49 z "},"ÿ":{"ha":1108,"x_min":56,"x_max":1106,"o":"m 746 336 q 315 336 532 282 q 349 288 329 313 q 397 240 369 263 q 457 204 424 218 q 531 190 490 190 q 603 204 569 190 q 663 240 636 218 q 711 288 690 263 q 746 336 732 313 m 833 472 l 228 472 l 301 356 q 530 328 417 328 q 758 356 643 329 l 833 472 m 449 629 q 419 707 431 667 q 385 779 408 747 q 367 779 381 785 q 340 765 354 774 q 315 747 325 756 q 307 735 304 738 l 407 610 q 416 609 408 607 q 431 615 424 611 q 444 622 439 618 q 449 629 450 626 m 582 515 l 531 639 l 481 515 l 582 515 m 753 735 q 744 747 754 738 q 721 765 735 756 q 694 779 707 774 q 676 779 681 785 q 640 707 651 747 q 613 629 628 667 q 615 622 610 626 q 629 615 621 618 q 644 609 638 611 q 654 610 651 607 l 753 735 m 913 515 q 883 367 913 436 q 801 245 853 297 q 679 163 749 193 q 531 133 610 133 q 382 163 451 133 q 260 245 313 193 q 178 367 208 297 q 147 515 147 436 q 178 664 147 594 q 260 785 208 733 q 382 867 313 838 q 531 897 451 897 q 679 867 610 897 q 801 785 749 838 q 883 664 853 733 q 913 515 913 594 m 940 515 q 908 675 940 600 q 821 806 876 750 q 690 894 765 861 q 531 926 615 926 q 371 894 446 926 q 240 806 296 861 q 151 675 183 750 q 118 515 118 600 q 151 356 118 431 q 240 226 183 282 q 371 137 296 169 q 531 104 446 104 q 690 137 615 104 q 821 226 765 169 q 908 356 876 282 q 940 515 940 431 m 982 144 l 946 144 l 946 49 l 919 49 l 919 144 l 885 144 l 885 167 l 982 167 l 982 144 m 1006 515 q 968 331 1006 417 q 866 179 931 244 q 715 76 801 114 q 531 39 628 39 q 346 76 432 39 q 195 179 260 114 q 93 331 131 244 q 56 515 56 417 q 93 701 56 614 q 195 852 131 788 q 346 954 260 917 q 531 992 432 992 q 715 954 628 992 q 866 852 801 917 q 968 701 931 788 q 1006 515 1006 614 m 1106 49 l 1085 49 l 1085 144 l 1061 49 l 1039 49 l 1015 144 l 1015 49 l 993 49 l 993 167 l 1028 167 l 1051 75 l 1071 167 l 1106 167 l 1106 49 z "},"D":{"ha":597,"x_min":42,"x_max":556,"o":"m 242 831 l 242 176 l 336 176 q 352 181 349 176 q 356 197 356 186 l 356 811 q 338 831 356 831 l 242 831 m 556 156 q 521 36 556 72 q 399 0 486 0 l 42 0 l 42 1007 l 436 1007 q 526 974 496 1007 q 556 885 556 940 l 556 156 z "},"!":{"ha":279,"x_min":28,"x_max":251,"o":"m 28 1006 l 251 1006 l 201 264 l 75 264 l 28 1006 m 31 93 q 63 17 31 49 q 139 -14 94 -14 q 215 17 183 -14 q 247 93 247 49 q 215 169 247 138 q 139 201 183 201 q 63 169 94 201 q 31 93 31 138 z "},"\"":{"ha":443,"x_min":38,"x_max":406,"o":"m 247 1006 l 406 1006 l 374 663 l 278 663 l 247 1006 m 38 1006 l 197 1006 l 167 663 l 69 663 l 38 1006 z "},"#":{"ha":639,"x_min":42,"x_max":611,"o":"m 376 549 l 292 549 l 278 461 l 361 461 l 376 549 l 376 549 m 611 632 l 596 549 l 472 549 l 456 461 l 579 461 l 567 378 l 440 378 l 374 0 l 278 0 l 346 378 l 263 378 l 194 0 l 99 0 l 165 378 l 42 378 l 57 461 l 181 461 l 196 549 l 71 549 l 89 632 l 213 632 l 279 1010 l 375 1010 l 307 632 l 390 632 l 460 1010 l 553 1010 l 488 632 l 611 632 l 611 632 z "},"$":{"ha":488,"x_min":43,"x_max":446,"o":"m 264 361 l 89 510 q 48 574 53 540 q 43 651 43 607 l 43 776 q 71 855 43 825 q 153 885 99 885 l 207 885 l 207 1006 l 297 1006 l 297 885 l 401 885 l 440 713 l 211 713 l 211 640 l 400 472 q 437 422 428 449 q 446 358 446 394 l 446 215 q 340 122 446 122 l 297 122 l 297 0 l 207 0 l 207 122 l 99 122 l 50 276 l 264 276 l 264 361 z "},"%":{"ha":971,"x_min":42,"x_max":933,"o":"m 718 247 q 719 184 718 208 q 725 147 721 160 q 736 129 729 133 q 754 125 743 125 q 772 129 764 125 q 783 147 779 133 q 790 184 788 160 q 792 247 792 208 q 790 310 792 286 q 783 348 788 335 q 772 365 779 361 q 754 369 764 369 q 736 365 743 369 q 725 348 729 361 q 719 310 721 335 q 718 247 718 286 m 933 247 q 921 115 933 165 q 885 35 908 64 q 828 -3 861 7 q 754 -14 796 -14 q 680 -3 713 -14 q 624 35 647 7 q 588 115 600 64 q 575 247 575 165 q 588 379 575 328 q 624 459 600 431 q 680 498 647 488 q 754 508 713 508 q 828 498 796 508 q 885 459 861 488 q 921 379 908 431 q 933 247 933 328 m 183 763 q 185 699 183 724 q 192 662 188 675 q 203 644 196 649 q 221 640 210 640 q 238 644 231 640 q 249 662 244 649 q 255 699 253 675 q 257 763 257 724 q 255 826 257 801 q 249 863 253 850 q 238 881 244 876 q 221 885 231 885 q 203 881 210 885 q 192 863 196 876 q 185 826 188 850 q 183 763 183 801 m 400 763 q 388 630 400 681 q 351 551 375 579 q 295 512 328 522 q 221 501 263 501 q 147 512 179 501 q 90 551 114 522 q 54 630 67 579 q 42 763 42 681 q 54 894 42 843 q 90 974 67 946 q 147 1013 114 1003 q 221 1024 179 1024 q 295 1013 263 1024 q 351 974 328 1003 q 388 894 375 946 q 400 763 400 843 m 758 1017 l 364 -7 l 214 -7 l 613 1017 l 758 1017 z "},"&":{"ha":765,"x_min":42,"x_max":736,"o":"m 251 504 q 235 496 240 501 q 231 463 231 490 l 231 203 q 241 172 231 181 q 272 164 251 164 l 322 164 q 363 173 342 164 q 393 207 383 182 q 328 341 365 272 q 251 504 292 410 m 378 658 q 433 671 414 657 q 456 708 453 685 q 459 762 458 732 q 457 818 460 792 q 440 858 454 849 q 394 867 426 867 l 364 867 q 310 840 318 867 q 321 775 301 813 l 378 658 m 736 0 l 564 0 q 517 14 540 0 q 481 64 494 28 q 429 22 457 36 q 372 1 401 7 q 310 -7 342 -6 q 249 -8 278 -8 q 151 1 190 -8 q 87 35 111 11 q 52 101 63 60 q 42 203 42 142 l 42 507 q 81 598 42 560 q 186 640 119 636 l 136 736 q 119 789 124 760 q 117 849 114 818 q 131 907 119 879 q 163 956 142 935 q 379 1014 219 1014 q 485 1006 439 1014 q 561 976 531 997 q 608 919 592 956 q 624 826 624 883 l 624 749 q 618 680 624 715 q 592 615 613 644 q 534 565 572 585 q 432 543 496 546 l 522 350 q 547 415 535 371 q 560 507 560 458 l 721 507 q 713 435 721 476 q 691 352 704 394 q 660 270 678 310 q 622 201 642 231 q 619 192 619 197 q 635 188 619 188 l 699 188 l 736 0 z "},"'":{"ha":235,"x_min":38,"x_max":197,"o":"m 38 1006 l 197 1006 l 167 663 l 69 663 l 38 1006 z "},"(":{"ha":385,"x_min":42,"x_max":371,"o":"m 371 -56 l 229 -56 q 92 200 143 57 q 42 504 42 343 q 92 809 42 668 q 229 1065 143 950 l 371 1065 q 285 794 315 935 q 254 504 254 654 q 283 215 254 354 q 371 -56 313 75 z "},")":{"ha":385,"x_min":14,"x_max":343,"o":"m 14 -56 q 101 215 72 75 q 131 504 131 354 q 100 794 131 654 q 14 1065 69 935 l 156 1065 q 292 809 242 950 q 343 504 343 668 q 292 200 343 343 q 156 -56 242 57 l 14 -56 l 14 -56 z "},"*":{"ha":538,"x_min":44,"x_max":493,"o":"m 493 771 l 419 643 l 306 756 l 346 600 l 192 600 l 231 756 l 118 643 l 44 771 l 213 811 l 44 851 l 118 979 l 231 863 l 192 1021 l 346 1021 l 304 863 l 419 979 l 493 851 l 322 811 l 493 771 z "},"+":{"ha":686,"x_min":42,"x_max":644,"o":"m 42 575 l 272 575 l 272 806 l 413 806 l 413 575 l 644 575 l 644 435 l 413 435 l 413 204 l 272 204 l 272 435 l 42 435 l 42 575 z "},",":{"ha":300,"x_min":42,"x_max":258,"o":"m 42 93 q 74 169 42 138 q 150 201 106 201 q 226 169 194 201 q 258 93 258 138 q 249 42 258 69 q 223 -10 239 15 q 188 -59 207 -36 q 151 -99 169 -82 l 79 -99 q 105 -56 93 -78 q 124 -10 117 -33 q 62 28 82 -3 q 42 93 42 58 z "},"-":{"ha":393,"x_min":42,"x_max":351,"o":"m 56 571 l 351 571 l 338 406 l 42 406 l 56 571 z "},".":{"ha":300,"x_min":42,"x_max":258,"o":"m 42 93 q 74 169 42 138 q 150 201 106 201 q 226 169 194 201 q 258 93 258 138 q 226 17 258 49 q 150 -14 194 -14 q 74 17 106 -14 q 42 93 42 49 z "},"/":{"ha":504,"x_min":28,"x_max":476,"o":"m 476 1017 l 172 -7 l 28 -7 l 331 1017 l 476 1017 z "},":":{"ha":300,"x_min":42,"x_max":258,"o":"m 42 617 q 74 693 42 661 q 150 725 106 725 q 226 693 194 725 q 258 617 258 661 q 226 541 258 572 q 150 510 194 510 q 74 541 106 510 q 42 617 42 572 m 42 97 q 74 174 42 142 q 150 206 106 206 q 226 174 194 206 q 258 97 258 142 q 226 22 258 53 q 150 -10 194 -10 q 74 22 106 -10 q 42 97 42 53 z "},";":{"ha":300,"x_min":42,"x_max":258,"o":"m 42 617 q 74 693 42 661 q 150 725 106 725 q 226 693 194 725 q 258 617 258 661 q 226 541 258 572 q 150 510 194 510 q 74 541 106 510 q 42 617 42 572 m 42 93 q 74 169 42 138 q 150 201 106 201 q 226 169 194 201 q 258 93 258 138 q 249 42 258 69 q 223 -10 239 15 q 188 -59 207 -36 q 151 -99 169 -82 l 79 -99 q 105 -56 93 -78 q 124 -10 117 -33 q 62 28 82 -3 q 42 93 42 58 z "},"<":{"ha":585,"x_min":42,"x_max":536,"o":"m 42 442 l 42 568 l 536 833 l 536 668 l 194 506 l 536 342 l 536 176 l 42 442 z "},"=":{"ha":593,"x_min":49,"x_max":544,"o":"m 49 456 l 544 456 l 544 321 l 49 321 l 49 456 m 49 689 l 544 689 l 544 556 l 49 556 l 49 689 z "},">":{"ha":585,"x_min":49,"x_max":543,"o":"m 49 176 l 49 342 l 390 506 l 49 668 l 49 833 l 543 568 l 543 442 l 49 176 z "},"?":{"ha":506,"x_min":14,"x_max":464,"o":"m 267 801 q 249 819 267 819 l 14 819 l 49 1007 l 347 1007 q 432 976 400 1007 q 464 892 464 944 l 464 526 q 438 451 464 482 q 354 421 411 421 l 247 421 l 247 264 l 81 264 l 81 531 q 99 571 81 554 q 139 588 117 588 l 247 588 q 264 592 261 588 q 267 607 267 596 l 267 801 m 58 93 q 90 17 58 49 q 167 -14 122 -14 q 243 17 211 -14 q 275 93 275 49 q 243 169 275 138 q 167 201 211 201 q 90 169 122 201 q 58 93 58 138 z "},"@":{"ha":772,"x_min":42,"x_max":731,"o":"m 731 239 l 400 239 q 332 262 361 239 q 303 329 303 285 l 303 689 q 327 749 303 726 q 383 771 351 771 l 576 771 l 576 818 q 571 844 576 838 q 544 851 565 851 l 261 851 q 232 821 232 851 l 232 203 q 253 178 232 178 l 657 178 l 621 0 l 165 0 q 77 26 113 0 q 42 119 42 53 l 42 892 q 72 974 42 942 q 158 1007 103 1007 l 632 1007 q 704 981 678 1007 q 731 914 731 954 l 731 239 m 563 644 l 492 644 q 472 625 472 644 l 472 386 q 478 374 472 378 q 492 369 485 369 l 563 369 l 563 644 z "},"[":{"ha":276,"x_min":42,"x_max":283,"o":"m 283 1108 l 283 1049 l 219 1049 l 219 -36 l 283 -36 l 283 -99 l 42 -99 l 42 1108 l 283 1108 z "},"\\":{"ha":504,"x_min":28,"x_max":476,"o":"m 174 1017 l 476 -7 l 332 -7 l 28 1017 l 174 1017 z "},"]":{"ha":276,"x_min":-7,"x_max":235,"o":"m 235 1108 l 235 -99 l -7 -99 l -7 -36 l 57 -36 l 57 1049 l -7 1049 l -7 1108 l 235 1108 z "},"^":{"ha":972,"x_min":56,"x_max":917,"o":"m 486 886 l 249 433 l 56 433 l 404 1038 l 568 1038 l 917 433 l 724 433 l 486 886 z "},"_":{"ha":531,"x_min":42,"x_max":489,"o":"m 42 -26 l 489 -26 l 489 -185 l 42 -185 l 42 -26 z "},"À":{"ha":607,"x_min":-17,"x_max":593,"o":"m 372 125 l 390 0 l 593 0 l 411 1010 l 196 1010 l 14 0 l 217 0 l 235 125 l 372 125 m 304 644 l 350 285 l 257 285 l 304 644 m -17 1229 l 199 1229 l 379 1061 l 232 1061 l -17 1229 z "},"Á":{"ha":607,"x_min":14,"x_max":628,"o":"m 235 125 l 217 0 l 14 0 l 196 1010 l 411 1010 l 593 0 l 390 0 l 372 125 l 235 125 m 257 285 l 350 285 l 304 644 l 257 285 m 379 1058 l 232 1058 l 413 1226 l 628 1226 l 379 1058 z "},"Â":{"ha":607,"x_min":14,"x_max":593,"o":"m 235 125 l 217 0 l 14 0 l 196 1010 l 411 1010 l 593 0 l 390 0 l 372 125 l 235 125 m 257 285 l 350 285 l 304 644 l 257 285 m 385 1240 l 542 1058 l 378 1058 l 303 1158 l 228 1058 l 67 1058 l 222 1240 l 385 1240 z "},"Ã":{"ha":607,"x_min":14,"x_max":593,"o":"m 235 125 l 217 0 l 14 0 l 196 1010 l 411 1010 l 593 0 l 390 0 l 372 125 l 235 125 m 257 285 l 350 285 l 304 644 l 257 285 m 542 1228 q 516 1100 549 1149 q 404 1051 483 1051 q 349 1060 372 1051 q 303 1080 325 1069 q 260 1099 282 1090 q 213 1108 239 1108 q 161 1050 161 1108 l 74 1050 q 112 1181 71 1133 q 219 1228 153 1228 q 274 1219 249 1228 q 321 1198 299 1210 q 363 1177 343 1186 q 401 1168 383 1168 q 441 1184 425 1168 q 454 1228 457 1200 l 542 1228 z "},"Ä":{"ha":607,"x_min":14,"x_max":593,"o":"m 235 125 l 217 0 l 14 0 l 196 1010 l 411 1010 l 593 0 l 390 0 l 372 125 l 235 125 m 257 285 l 350 285 l 304 644 l 257 285 m 65 1150 q 94 1224 65 1193 q 168 1254 124 1254 q 240 1224 211 1254 q 269 1150 269 1193 q 240 1076 269 1107 q 168 1046 211 1046 q 94 1076 124 1046 q 65 1150 65 1107 m 340 1150 q 369 1224 340 1193 q 442 1254 399 1254 q 515 1224 485 1254 q 544 1150 544 1193 q 515 1076 544 1107 q 442 1046 485 1046 q 369 1076 399 1046 q 340 1150 340 1107 z "},"Å":{"ha":607,"x_min":14,"x_max":593,"o":"m 235 125 l 217 0 l 14 0 l 196 1010 l 411 1010 l 593 0 l 390 0 l 372 125 l 235 125 m 257 285 l 350 285 l 304 644 l 257 285 m 163 1192 q 174 1247 163 1221 q 204 1293 185 1274 q 249 1324 224 1313 q 303 1335 274 1335 q 358 1324 332 1335 q 404 1293 385 1313 q 435 1247 424 1274 q 446 1192 446 1221 q 435 1138 446 1163 q 404 1093 424 1113 q 358 1063 385 1074 q 303 1051 332 1051 q 249 1063 274 1051 q 204 1093 224 1074 q 174 1138 185 1113 q 163 1192 163 1163 m 251 1192 q 267 1156 251 1171 q 303 1140 282 1140 q 341 1156 325 1140 q 357 1192 357 1171 q 341 1230 357 1214 q 303 1246 325 1246 q 267 1230 282 1246 q 251 1192 251 1214 z "},"Æ":{"ha":883,"x_min":14,"x_max":856,"o":"m 271 125 l 229 0 l 14 0 l 385 1010 l 821 1010 l 856 822 l 636 822 l 636 581 l 803 581 l 803 407 l 636 407 l 636 188 l 847 188 l 813 0 l 435 0 l 435 125 l 271 125 m 322 285 l 435 285 l 435 644 l 322 285 z "},"Ç":{"ha":488,"x_min":42,"x_max":460,"o":"m 146 -182 q 189 -206 161 -196 q 242 -215 217 -215 q 288 -203 268 -215 q 307 -164 307 -192 q 293 -133 307 -146 q 260 -119 279 -119 q 233 -122 246 -119 q 204 -132 219 -125 l 153 -101 l 222 0 l 196 0 q 76 35 110 0 q 42 153 42 69 l 42 886 q 77 978 42 946 q 164 1010 113 1010 l 425 1010 l 460 822 l 267 822 q 249 803 249 822 l 249 207 q 267 188 249 188 l 460 188 l 424 0 l 317 0 l 278 -62 q 317 -58 296 -58 q 402 -85 367 -58 q 438 -165 438 -112 q 424 -224 438 -199 q 388 -265 410 -249 q 336 -290 365 -282 q 276 -299 307 -299 q 192 -288 235 -300 q 117 -253 150 -276 l 146 -182 z "},"È":{"ha":496,"x_min":-58,"x_max":468,"o":"m 42 1010 l 433 1010 l 468 822 l 249 822 l 249 581 l 415 581 l 415 407 l 249 407 l 249 188 l 460 188 l 425 0 l 42 0 l 42 1010 m -58 1229 l 157 1229 l 338 1061 l 190 1061 l -58 1229 z "},"É":{"ha":496,"x_min":42,"x_max":569,"o":"m 42 1010 l 433 1010 l 468 822 l 249 822 l 249 581 l 415 581 l 415 407 l 249 407 l 249 188 l 460 188 l 425 0 l 42 0 l 42 1010 m 321 1058 l 174 1058 l 354 1226 l 569 1226 l 321 1058 z "},"Ê":{"ha":496,"x_min":11,"x_max":486,"o":"m 42 1010 l 433 1010 l 468 822 l 249 822 l 249 581 l 415 581 l 415 407 l 249 407 l 249 188 l 460 188 l 425 0 l 42 0 l 42 1010 m 329 1240 l 486 1058 l 322 1058 l 247 1158 l 172 1058 l 11 1058 l 167 1240 l 329 1240 z "},"Ë":{"ha":496,"x_min":10,"x_max":489,"o":"m 42 1010 l 433 1010 l 468 822 l 249 822 l 249 581 l 415 581 l 415 407 l 249 407 l 249 188 l 460 188 l 425 0 l 42 0 l 42 1010 m 10 1150 q 39 1224 10 1193 q 113 1254 68 1254 q 185 1224 156 1254 q 214 1150 214 1193 q 185 1076 214 1107 q 113 1046 156 1046 q 39 1076 68 1046 q 10 1150 10 1107 m 285 1150 q 314 1224 285 1193 q 386 1254 343 1254 q 459 1224 429 1254 q 489 1150 489 1193 q 459 1076 489 1107 q 386 1046 429 1046 q 314 1076 343 1046 q 285 1150 285 1107 z "},"Ì":{"ha":285,"x_min":-181,"x_max":243,"o":"m 42 1010 l 243 1010 l 243 0 l 42 0 l 42 1010 m -181 1229 l 35 1229 l 215 1061 l 68 1061 l -181 1229 z "},"Í":{"ha":285,"x_min":42,"x_max":465,"o":"m 42 1010 l 243 1010 l 243 0 l 42 0 l 42 1010 m 217 1058 l 69 1058 l 250 1226 l 465 1226 l 217 1058 z "},"Î":{"ha":285,"x_min":-93,"x_max":382,"o":"m 42 1010 l 243 1010 l 243 0 l 42 0 l 42 1010 m 225 1240 l 382 1058 l 218 1058 l 143 1158 l 68 1058 l -93 1058 l 63 1240 l 225 1240 z "},"Ï":{"ha":285,"x_min":-96,"x_max":383,"o":"m 42 1010 l 243 1010 l 243 0 l 42 0 l 42 1010 m -96 1150 q -67 1224 -96 1193 q 7 1254 -37 1254 q 79 1224 50 1254 q 108 1150 108 1193 q 79 1076 108 1107 q 7 1046 50 1046 q -67 1076 -37 1046 q -96 1150 -96 1107 m 179 1150 q 208 1224 179 1193 q 281 1254 238 1254 q 353 1224 324 1254 q 383 1150 383 1193 q 353 1076 383 1107 q 281 1046 324 1046 q 208 1076 238 1046 q 179 1150 179 1107 z "},"Ð":{"ha":618,"x_min":14,"x_max":576,"o":"m 28 588 l 56 588 l 56 1010 l 442 1010 q 576 875 576 1010 l 576 135 q 442 0 576 0 l 56 0 l 56 421 l 14 421 l 28 588 m 256 833 l 256 588 l 318 588 l 304 421 l 256 421 l 256 176 l 357 176 q 373 181 369 176 q 376 197 376 186 l 376 814 q 358 833 376 833 l 256 833 z "},"Ñ":{"ha":585,"x_min":42,"x_max":543,"o":"m 42 1010 l 233 1010 l 336 603 l 336 1010 l 543 1010 l 543 0 l 336 0 l 228 421 l 228 0 l 42 0 l 42 1010 m 532 1228 q 506 1100 539 1149 q 394 1051 474 1051 q 339 1060 363 1051 q 294 1080 315 1069 q 251 1099 272 1090 q 203 1108 229 1108 q 151 1050 151 1108 l 64 1050 q 102 1181 61 1133 q 210 1228 143 1228 q 264 1219 239 1228 q 311 1198 289 1210 q 353 1177 333 1186 q 392 1168 374 1168 q 431 1184 415 1168 q 444 1228 447 1200 l 532 1228 z "},"Ò":{"ha":606,"x_min":-14,"x_max":564,"o":"m 342 833 q 360 814 360 833 l 360 197 q 356 181 360 186 q 340 176 353 176 l 264 176 q 248 181 251 176 q 244 197 244 186 l 244 814 q 263 833 244 833 l 342 833 m 564 879 q 532 974 564 939 q 429 1010 500 1010 l 176 1010 q 74 974 106 1010 q 42 879 42 939 l 42 143 q 48 88 42 114 q 71 43 54 63 q 115 12 88 24 q 185 0 143 0 l 421 0 q 490 12 463 0 q 535 43 518 24 q 558 88 551 63 q 564 143 564 114 l 564 879 m -14 1229 l 201 1229 l 382 1061 l 235 1061 l -14 1229 z "},"Ó":{"ha":606,"x_min":42,"x_max":619,"o":"m 263 833 q 244 814 244 833 l 244 197 q 248 181 244 186 q 264 176 251 176 l 340 176 q 356 181 353 176 q 360 197 360 186 l 360 814 q 342 833 360 833 l 263 833 m 564 143 q 558 88 564 114 q 535 43 551 63 q 490 12 518 24 q 421 0 463 0 l 185 0 q 115 12 143 0 q 71 43 88 24 q 48 88 54 63 q 42 143 42 114 l 42 879 q 74 974 42 939 q 176 1010 106 1010 l 429 1010 q 532 974 500 1010 q 564 879 564 939 l 564 143 m 371 1058 l 224 1058 l 404 1226 l 619 1226 l 371 1058 z "},"Ô":{"ha":606,"x_min":42,"x_max":564,"o":"m 263 833 q 244 814 244 833 l 244 197 q 248 181 244 186 q 264 176 251 176 l 340 176 q 356 181 353 176 q 360 197 360 186 l 360 814 q 342 833 360 833 l 263 833 m 564 143 q 558 88 564 114 q 535 43 551 63 q 490 12 518 24 q 421 0 463 0 l 185 0 q 115 12 143 0 q 71 43 88 24 q 48 88 54 63 q 42 143 42 114 l 42 879 q 74 974 42 939 q 176 1010 106 1010 l 429 1010 q 532 974 500 1010 q 564 879 564 939 l 564 143 m 385 1240 l 542 1058 l 378 1058 l 303 1158 l 228 1058 l 67 1058 l 222 1240 l 385 1240 z "},"Õ":{"ha":606,"x_min":42,"x_max":564,"o":"m 263 833 q 244 814 244 833 l 244 197 q 248 181 244 186 q 264 176 251 176 l 340 176 q 356 181 353 176 q 360 197 360 186 l 360 814 q 342 833 360 833 l 263 833 m 564 143 q 558 88 564 114 q 535 43 551 63 q 490 12 518 24 q 421 0 463 0 l 185 0 q 115 12 143 0 q 71 43 88 24 q 48 88 54 63 q 42 143 42 114 l 42 879 q 74 974 42 939 q 176 1010 106 1010 l 429 1010 q 532 974 500 1010 q 564 879 564 939 l 564 143 m 536 1228 q 510 1100 543 1149 q 399 1051 478 1051 q 343 1060 367 1051 q 298 1080 319 1069 q 255 1099 276 1090 q 207 1108 233 1108 q 156 1050 156 1108 l 68 1050 q 106 1181 65 1133 q 214 1228 147 1228 q 268 1219 243 1228 q 315 1198 293 1210 q 358 1177 338 1186 q 396 1168 378 1168 q 435 1184 419 1168 q 449 1228 451 1200 l 536 1228 z "},"Ö":{"ha":606,"x_min":42,"x_max":564,"o":"m 263 833 q 244 814 244 833 l 244 197 q 248 181 244 186 q 264 176 251 176 l 340 176 q 356 181 353 176 q 360 197 360 186 l 360 814 q 342 833 360 833 l 263 833 m 564 143 q 558 88 564 114 q 535 43 551 63 q 490 12 518 24 q 421 0 463 0 l 185 0 q 115 12 143 0 q 71 43 88 24 q 48 88 54 63 q 42 143 42 114 l 42 879 q 74 974 42 939 q 176 1010 106 1010 l 429 1010 q 532 974 500 1010 q 564 879 564 939 l 564 143 m 64 1150 q 93 1224 64 1193 q 167 1254 122 1254 q 239 1224 210 1254 q 268 1150 268 1193 q 239 1076 268 1107 q 167 1046 210 1046 q 93 1076 122 1046 q 64 1150 64 1107 m 339 1150 q 368 1224 339 1193 q 440 1254 397 1254 q 513 1224 483 1254 q 543 1150 543 1193 q 513 1076 543 1107 q 440 1046 483 1046 q 368 1076 397 1046 q 339 1150 339 1107 z "},"×":{"ha":1108,"x_min":56,"x_max":1106,"o":"m 746 336 q 315 336 532 282 q 349 288 329 313 q 397 240 369 263 q 457 204 424 218 q 531 190 490 190 q 603 204 569 190 q 663 240 636 218 q 711 288 690 263 q 746 336 732 313 m 833 472 l 228 472 l 301 356 q 530 328 417 328 q 758 356 643 329 l 833 472 m 449 629 q 419 707 431 667 q 385 779 408 747 q 367 779 381 785 q 340 765 354 774 q 315 747 325 756 q 307 735 304 738 l 407 610 q 416 609 408 607 q 431 615 424 611 q 444 622 439 618 q 449 629 450 626 m 582 515 l 531 639 l 481 515 l 582 515 m 753 735 q 744 747 754 738 q 721 765 735 756 q 694 779 707 774 q 676 779 681 785 q 640 707 651 747 q 613 629 628 667 q 615 622 610 626 q 629 615 621 618 q 644 609 638 611 q 654 610 651 607 l 753 735 m 913 515 q 883 367 913 436 q 801 245 853 297 q 679 163 749 193 q 531 133 610 133 q 382 163 451 133 q 260 245 313 193 q 178 367 208 297 q 147 515 147 436 q 178 664 147 594 q 260 785 208 733 q 382 867 313 838 q 531 897 451 897 q 679 867 610 897 q 801 785 749 838 q 883 664 853 733 q 913 515 913 594 m 940 515 q 908 675 940 600 q 821 806 876 750 q 690 894 765 861 q 531 926 615 926 q 371 894 446 926 q 240 806 296 861 q 151 675 183 750 q 118 515 118 600 q 151 356 118 431 q 240 226 183 282 q 371 137 296 169 q 531 104 446 104 q 690 137 615 104 q 821 226 765 169 q 908 356 876 282 q 940 515 940 431 m 982 144 l 946 144 l 946 49 l 919 49 l 919 144 l 885 144 l 885 167 l 982 167 l 982 144 m 1006 515 q 968 331 1006 417 q 866 179 931 244 q 715 76 801 114 q 531 39 628 39 q 346 76 432 39 q 195 179 260 114 q 93 331 131 244 q 56 515 56 417 q 93 701 56 614 q 195 852 131 788 q 346 954 260 917 q 531 992 432 992 q 715 954 628 992 q 866 852 801 917 q 968 701 931 788 q 1006 515 1006 614 m 1106 49 l 1085 49 l 1085 144 l 1061 49 l 1039 49 l 1015 144 l 1015 49 l 993 49 l 993 167 l 1028 167 l 1051 75 l 1071 167 l 1106 167 l 1106 49 z "},"Ø":{"ha":606,"x_min":42,"x_max":571,"o":"m 564 143 q 558 88 564 114 q 535 43 551 63 q 490 12 518 24 q 421 0 463 0 l 185 0 q 124 8 149 0 l 108 -28 l 44 1 l 65 49 q 47 92 51 68 q 42 143 42 115 l 42 879 q 74 974 42 939 q 176 1010 106 1010 l 429 1010 q 489 1000 465 1010 l 506 1038 l 571 1008 l 546 954 q 564 879 564 924 l 564 143 m 260 833 q 242 814 242 833 l 242 429 l 363 744 l 363 814 q 344 833 363 833 l 260 833 m 343 176 q 359 181 356 176 q 363 197 363 186 l 363 556 l 242 242 l 242 197 q 245 181 242 186 q 261 176 249 176 l 343 176 z "},"Ù":{"ha":604,"x_min":-14,"x_max":563,"o":"m 410 0 q 529 34 496 0 q 563 151 563 68 l 563 1010 l 357 1010 l 357 199 q 353 182 357 188 q 338 176 350 176 l 267 176 q 251 182 254 176 q 247 199 247 188 l 247 1010 l 42 1010 l 42 151 q 75 34 42 68 q 194 0 108 0 l 410 0 m -14 1229 l 201 1229 l 382 1061 l 235 1061 l -14 1229 z "},"Ú":{"ha":604,"x_min":42,"x_max":618,"o":"m 194 0 q 75 34 108 0 q 42 151 42 68 l 42 1010 l 247 1010 l 247 199 q 251 182 247 188 q 267 176 254 176 l 338 176 q 353 182 350 176 q 357 199 357 188 l 357 1010 l 563 1010 l 563 151 q 529 34 563 68 q 410 0 496 0 l 194 0 m 369 1058 l 222 1058 l 403 1226 l 618 1226 l 369 1058 z "},"Û":{"ha":604,"x_min":42,"x_max":563,"o":"m 194 0 q 75 34 108 0 q 42 151 42 68 l 42 1010 l 247 1010 l 247 199 q 251 182 247 188 q 267 176 254 176 l 338 176 q 353 182 350 176 q 357 199 357 188 l 357 1010 l 563 1010 l 563 151 q 529 34 563 68 q 410 0 496 0 l 194 0 m 385 1240 l 542 1058 l 378 1058 l 303 1158 l 228 1058 l 67 1058 l 222 1240 l 385 1240 z "},"Ü":{"ha":604,"x_min":42,"x_max":563,"o":"m 194 0 q 75 34 108 0 q 42 151 42 68 l 42 1010 l 247 1010 l 247 199 q 251 182 247 188 q 267 176 254 176 l 338 176 q 353 182 350 176 q 357 199 357 188 l 357 1010 l 563 1010 l 563 151 q 529 34 563 68 q 410 0 496 0 l 194 0 m 64 1150 q 93 1224 64 1193 q 167 1254 122 1254 q 239 1224 210 1254 q 268 1150 268 1193 q 239 1076 268 1107 q 167 1046 210 1046 q 93 1076 122 1046 q 64 1150 64 1107 m 339 1150 q 368 1224 339 1193 q 440 1254 397 1254 q 513 1224 483 1254 q 543 1150 543 1193 q 513 1076 543 1107 q 440 1046 483 1046 q 368 1076 397 1046 q 339 1150 339 1107 z "},"Ý":{"ha":626,"x_min":14,"x_max":633,"o":"m 419 0 l 207 0 l 207 256 l 14 1010 l 222 1010 l 313 532 l 404 1010 l 613 1010 l 419 256 l 419 0 m 385 1058 l 238 1058 l 418 1226 l 633 1226 l 385 1058 z "},"Œ":{"ha":815,"x_min":42,"x_max":788,"o":"m 753 1010 l 788 822 l 568 822 l 568 581 l 735 581 l 735 407 l 568 407 l 568 188 l 779 188 l 744 0 l 185 0 q 115 12 143 0 q 71 43 88 24 q 48 88 54 63 q 42 143 42 114 l 42 879 q 74 974 42 939 q 176 1010 106 1010 l 753 1010 m 263 822 q 244 803 244 822 l 244 208 q 248 192 244 197 q 264 188 251 188 l 360 188 l 360 822 l 263 822 z "},"Š":{"ha":536,"x_min":38,"x_max":513,"o":"m 360 0 q 494 135 494 0 l 494 485 q 469 565 494 542 q 394 588 443 588 l 268 588 q 245 593 253 588 q 238 614 238 599 l 238 800 q 263 822 238 822 l 490 822 l 456 1010 l 176 1010 q 74 974 106 1010 q 42 879 42 939 l 42 535 q 51 475 42 497 q 76 440 60 453 q 112 424 92 428 q 154 421 132 421 l 258 421 q 288 417 279 421 q 296 392 296 413 l 296 208 q 272 188 296 188 l 56 188 l 92 0 l 360 0 m 193 1058 l 38 1240 l 199 1240 l 274 1140 l 349 1240 l 513 1240 l 356 1058 l 193 1058 z "},"a":{"ha":607,"x_min":14,"x_max":593,"o":"m 235 125 l 217 0 l 14 0 l 196 1007 l 411 1007 l 593 0 l 390 0 l 372 125 l 235 125 m 257 285 l 350 285 l 304 642 l 257 285 z "},"b":{"ha":606,"x_min":42,"x_max":564,"o":"m 242 831 l 242 567 l 336 567 q 354 573 347 567 q 361 593 361 579 l 361 811 q 343 831 361 831 l 242 831 m 364 385 q 356 408 364 401 q 333 414 347 414 l 242 414 l 242 176 l 343 176 q 360 181 356 176 q 364 197 364 186 l 364 385 m 554 608 q 540 544 554 571 q 485 506 525 517 q 545 476 526 503 q 564 417 564 450 l 564 156 q 529 36 564 72 q 407 0 494 0 l 42 0 l 42 1007 l 435 1007 q 524 974 494 1007 q 554 885 554 940 l 554 608 z "},"c":{"ha":488,"x_min":42,"x_max":460,"o":"m 199 0 q 76 36 111 0 q 42 156 42 72 l 42 883 q 76 975 42 943 q 160 1007 110 1007 l 425 1007 l 460 819 l 267 819 q 249 800 249 819 l 249 207 q 267 188 249 188 l 460 188 l 424 0 l 199 0 z "},"d":{"ha":597,"x_min":42,"x_max":556,"o":"m 242 831 l 242 176 l 336 176 q 352 181 349 176 q 356 197 356 186 l 356 811 q 338 831 356 831 l 242 831 m 556 156 q 521 36 556 72 q 399 0 486 0 l 42 0 l 42 1007 l 436 1007 q 526 974 496 1007 q 556 885 556 940 l 556 156 z "},"e":{"ha":496,"x_min":42,"x_max":468,"o":"m 42 1007 l 433 1007 l 468 819 l 249 819 l 249 581 l 415 581 l 415 407 l 249 407 l 249 188 l 460 188 l 425 0 l 42 0 l 42 1007 z "},"f":{"ha":489,"x_min":42,"x_max":468,"o":"m 42 1007 l 433 1007 l 468 819 l 249 819 l 249 581 l 415 581 l 415 407 l 249 407 l 249 0 l 42 0 l 42 1007 z "},"g":{"ha":588,"x_min":42,"x_max":550,"o":"m 42 885 q 72 974 42 940 q 161 1007 101 1007 l 449 1007 l 483 819 l 263 819 q 244 800 244 819 l 244 203 q 263 183 244 183 l 354 183 l 354 581 l 550 581 l 550 0 l 199 0 q 76 36 111 0 q 42 156 42 72 l 42 885 z "},"h":{"ha":604,"x_min":42,"x_max":563,"o":"m 563 0 l 357 0 l 357 403 l 247 403 l 247 0 l 42 0 l 42 1007 l 247 1007 l 247 576 l 357 576 l 357 1007 l 563 1007 l 563 0 z "},"i":{"ha":285,"x_min":42,"x_max":243,"o":"m 42 1007 l 243 1007 l 243 0 l 42 0 l 42 1007 z "},"j":{"ha":588,"x_min":38,"x_max":546,"o":"m 38 581 l 233 581 l 233 200 q 251 181 233 181 l 325 181 q 343 201 343 181 l 343 819 l 125 819 l 160 1007 l 546 1007 l 546 144 q 511 42 546 85 q 410 0 476 0 l 171 0 q 74 35 111 0 q 38 129 38 69 l 38 581 z "},"k":{"ha":603,"x_min":42,"x_max":589,"o":"m 247 575 l 278 575 l 381 1007 l 589 1007 l 468 543 l 588 0 l 367 0 l 288 415 l 247 415 l 247 0 l 42 0 l 42 1007 l 247 1007 l 247 575 l 247 575 z "},"l":{"ha":472,"x_min":42,"x_max":451,"o":"m 42 1007 l 249 1007 l 249 188 l 451 188 l 417 0 l 42 0 l 42 1007 z "},"m":{"ha":729,"x_min":42,"x_max":688,"o":"m 238 475 l 238 0 l 42 0 l 42 1007 l 254 1007 l 364 582 l 474 1007 l 688 1007 l 688 0 l 492 0 l 492 475 l 364 72 l 238 475 z "},"n":{"ha":585,"x_min":42,"x_max":543,"o":"m 42 1007 l 233 1007 l 336 603 l 336 1007 l 543 1007 l 543 0 l 336 0 l 228 421 l 228 0 l 42 0 l 42 1007 z "},"o":{"ha":606,"x_min":42,"x_max":564,"o":"m 263 831 q 244 811 244 831 l 244 197 q 248 181 244 186 q 264 176 251 176 l 340 176 q 356 181 353 176 q 360 197 360 186 l 360 811 q 342 831 360 831 l 263 831 m 564 143 q 557 88 564 114 q 533 43 550 63 q 489 12 517 24 q 419 0 461 0 l 186 0 q 117 12 144 0 q 72 43 89 24 q 49 88 56 63 q 42 143 42 114 l 42 876 q 74 972 42 936 q 178 1007 107 1007 l 428 1007 q 531 972 499 1007 q 564 876 564 936 l 564 143 z "},"p":{"ha":594,"x_min":42,"x_max":557,"o":"m 242 831 l 242 435 l 342 435 q 358 440 354 435 q 361 456 361 444 l 361 811 q 343 831 361 831 l 242 831 m 438 1007 q 527 974 497 1007 q 557 885 557 940 l 557 403 q 551 349 557 374 q 528 307 544 325 q 483 278 511 289 q 414 268 456 268 l 242 268 l 242 0 l 42 0 l 42 1007 l 438 1007 z "},"q":{"ha":610,"x_min":42,"x_max":568,"o":"m 264 831 q 244 810 244 831 l 244 197 q 248 181 244 186 q 264 176 251 176 l 344 176 q 360 181 357 176 q 364 197 364 186 l 364 811 q 346 831 364 831 l 264 831 m 432 1007 q 535 972 503 1007 q 568 876 568 936 l 568 156 q 533 36 568 72 q 411 0 499 0 l 385 0 l 385 -81 l 224 -81 l 224 0 l 199 0 q 76 36 111 0 q 42 156 42 72 l 42 876 q 74 972 42 936 q 178 1007 107 1007 l 432 1007 z "},"r":{"ha":604,"x_min":42,"x_max":575,"o":"m 243 831 l 243 483 l 342 483 q 361 504 361 483 l 361 810 q 342 831 361 831 l 243 831 m 560 410 q 537 349 560 376 q 469 321 514 321 l 575 0 l 367 0 l 269 321 l 243 321 l 243 0 l 42 0 l 42 1007 l 424 1007 q 527 972 494 1007 q 560 876 560 936 l 560 410 z "},"s":{"ha":536,"x_min":42,"x_max":494,"o":"m 92 0 l 56 188 l 272 188 q 296 208 296 188 l 296 392 q 288 417 296 413 q 258 421 279 421 l 154 421 q 112 424 132 421 q 76 440 92 428 q 51 475 60 453 q 42 535 42 497 l 42 876 q 74 972 42 936 q 178 1007 107 1007 l 456 1007 l 490 819 l 263 819 q 238 797 238 819 l 238 614 q 245 593 238 599 q 268 588 253 588 l 394 588 q 469 565 443 588 q 494 485 494 542 l 494 153 q 460 35 494 69 q 340 0 426 0 l 92 0 z "},"t":{"ha":503,"x_min":14,"x_max":489,"o":"m 439 1007 l 489 819 l 354 819 l 354 0 l 149 0 l 149 819 l 14 819 l 67 1007 l 439 1007 z "},"u":{"ha":604,"x_min":42,"x_max":563,"o":"m 199 0 q 76 36 111 0 q 42 156 42 72 l 42 1007 l 247 1007 l 247 199 q 251 182 247 188 q 267 176 254 176 l 338 176 q 353 182 350 176 q 357 199 357 188 l 357 1007 l 563 1007 l 563 156 q 528 36 563 72 q 406 0 493 0 l 199 0 z "},"v":{"ha":610,"x_min":14,"x_max":596,"o":"m 392 1007 l 596 1007 l 410 0 l 200 0 l 14 1007 l 218 1007 l 236 878 l 304 357 l 374 881 l 392 1007 z "},"w":{"ha":876,"x_min":14,"x_max":863,"o":"m 657 1007 l 863 1007 l 704 0 l 521 0 l 438 525 l 356 0 l 172 0 l 14 1007 l 219 1007 l 283 421 l 365 1007 l 511 1007 l 592 421 l 657 1007 z "},"x":{"ha":590,"x_min":14,"x_max":576,"o":"m 433 525 l 576 0 l 372 0 l 294 354 l 218 0 l 14 0 l 157 525 l 19 1007 l 219 1007 l 294 653 l 372 1007 l 571 1007 l 433 525 z "},"y":{"ha":626,"x_min":14,"x_max":613,"o":"m 419 0 l 207 0 l 207 256 l 14 1007 l 222 1007 l 313 532 l 404 1007 l 613 1007 l 419 256 l 419 0 z "},"z":{"ha":515,"x_min":14,"x_max":501,"o":"m 285 188 l 474 188 l 439 0 l 14 0 l 240 819 l 31 819 l 65 1007 l 501 1007 l 285 188 z "},"A":{"ha":607,"x_min":14,"x_max":593,"o":"m 235 125 l 217 0 l 14 0 l 196 1007 l 411 1007 l 593 0 l 390 0 l 372 125 l 235 125 m 257 285 l 350 285 l 304 642 l 257 285 z "},"B":{"ha":606,"x_min":42,"x_max":564,"o":"m 242 831 l 242 567 l 336 567 q 354 573 347 567 q 361 593 361 579 l 361 811 q 343 831 361 831 l 242 831 m 364 385 q 356 408 364 401 q 333 414 347 414 l 242 414 l 242 176 l 343 176 q 360 181 356 176 q 364 197 364 186 l 364 385 m 554 608 q 540 544 554 571 q 485 506 525 517 q 545 476 526 503 q 564 417 564 450 l 564 156 q 529 36 564 72 q 407 0 494 0 l 42 0 l 42 1007 l 435 1007 q 524 974 494 1007 q 554 885 554 940 l 554 608 z "},"C":{"ha":488,"x_min":42,"x_max":460,"o":"m 199 0 q 76 36 111 0 q 42 156 42 72 l 42 883 q 76 975 42 943 q 160 1007 110 1007 l 425 1007 l 460 819 l 267 819 q 249 800 249 819 l 249 207 q 267 188 249 188 l 460 188 l 424 0 l 199 0 z "},"А":{"ha":607,"x_min":14,"x_max":593,"o":"m 235 125 l 217 0 l 14 0 l 196 1010 l 411 1010 l 593 0 l 390 0 l 372 125 l 235 125 m 257 285 l 350 285 l 304 644 l 257 285 z "},"Б":{"ha":599,"x_min":42,"x_max":557,"o":"m 343 176 q 361 196 361 176 l 361 429 q 358 445 361 440 q 342 450 354 450 l 242 450 l 242 176 l 343 176 m 42 1010 l 490 1010 l 525 822 l 242 822 l 242 617 l 421 617 q 524 581 492 617 q 557 486 557 546 l 557 129 q 524 35 557 69 q 421 0 492 0 l 42 0 l 42 1010 z "},"В":{"ha":606,"x_min":42,"x_max":564,"o":"m 242 833 l 242 567 l 336 567 q 354 573 347 567 q 361 593 361 579 l 361 814 q 343 833 361 833 l 242 833 m 364 385 q 356 408 364 401 q 333 414 347 414 l 242 414 l 242 176 l 343 176 q 360 181 356 176 q 364 197 364 186 l 364 385 m 554 608 q 540 544 554 571 q 485 506 525 517 q 545 476 526 503 q 564 417 564 450 l 564 156 q 529 36 564 72 q 407 0 494 0 l 42 0 l 42 1010 l 419 1010 q 554 875 554 1010 l 554 608 z "},"Г":{"ha":482,"x_min":42,"x_max":454,"o":"m 42 1010 l 419 1010 l 454 822 l 249 822 l 249 0 l 42 0 l 42 1010 z "},"Д":{"ha":746,"x_min":28,"x_max":718,"o":"m 457 188 l 457 822 l 360 822 q 354 663 357 744 q 346 499 351 581 q 331 339 340 418 q 306 188 321 260 l 457 188 m 215 -149 l 28 -183 l 28 188 l 82 188 q 104 267 90 196 q 131 451 118 338 q 154 708 144 564 q 164 1010 164 853 l 663 1010 l 663 188 l 718 188 l 718 -149 l 531 -183 l 531 0 l 215 0 l 215 -149 z "},"Е":{"ha":496,"x_min":42,"x_max":468,"o":"m 42 1010 l 433 1010 l 468 822 l 249 822 l 249 581 l 415 581 l 415 407 l 249 407 l 249 188 l 460 188 l 425 0 l 42 0 l 42 1010 z "},"Ж":{"ha":1014,"x_min":21,"x_max":993,"o":"m 406 1010 l 608 1010 l 608 575 l 636 575 l 765 981 q 810 1010 775 1010 l 958 1010 l 993 822 l 922 822 q 908 813 911 822 l 828 544 l 986 0 l 763 0 l 650 419 l 608 419 l 608 0 l 406 0 l 406 419 l 364 419 l 251 0 l 28 0 l 186 544 l 106 813 q 92 822 103 822 l 21 822 l 56 1010 l 204 1010 q 249 981 239 1010 l 378 575 l 406 575 l 406 1010 z "},"З":{"ha":503,"x_min":28,"x_max":461,"o":"m 64 0 l 29 188 l 231 188 q 251 191 244 188 q 258 213 258 194 l 258 378 q 254 396 258 389 q 233 403 250 403 l 79 403 l 79 576 l 231 576 q 253 582 247 576 q 258 604 258 588 l 258 797 q 252 817 258 813 q 235 822 246 822 l 28 822 l 63 1010 l 321 1010 q 456 878 456 1010 l 456 596 q 441 536 456 561 q 378 507 426 511 q 445 477 429 507 q 461 407 461 447 l 461 135 q 326 0 461 0 l 64 0 z "},"И":{"ha":618,"x_min":42,"x_max":576,"o":"m 247 389 l 371 968 l 371 1010 l 576 1010 l 576 0 l 371 0 l 371 619 l 247 42 l 247 0 l 42 0 l 42 1010 l 247 1010 l 247 389 z "},"Й":{"ha":618,"x_min":42,"x_max":576,"o":"m 247 389 l 371 968 l 371 1010 l 576 1010 l 576 0 l 371 0 l 371 619 l 247 42 l 247 0 l 42 0 l 42 1010 l 247 1010 l 247 389 m 531 1240 q 509 1142 528 1179 q 460 1084 490 1104 q 390 1057 429 1064 q 310 1050 351 1050 q 229 1057 268 1050 q 160 1084 190 1064 q 110 1142 129 1104 q 89 1240 90 1179 l 211 1240 q 219 1187 211 1207 q 240 1156 226 1167 q 272 1143 254 1146 q 310 1140 289 1140 q 350 1143 332 1140 q 381 1156 368 1146 q 401 1187 394 1167 q 408 1240 408 1207 l 531 1240 z "},"К":{"ha":646,"x_min":42,"x_max":632,"o":"m 247 575 l 275 575 l 404 981 q 449 1010 414 1010 l 597 1010 l 632 822 l 561 822 q 547 813 550 822 l 467 544 l 625 0 l 401 0 l 289 419 l 247 419 l 247 0 l 42 0 l 42 1010 l 247 1010 l 247 575 z "},"Л":{"ha":672,"x_min":14,"x_max":631,"o":"m 631 0 l 425 0 l 425 822 l 315 822 l 315 0 l 49 0 l 14 188 l 110 188 l 110 1010 l 631 1010 l 631 0 z "},"М":{"ha":729,"x_min":42,"x_max":688,"o":"m 238 475 l 238 0 l 42 0 l 42 1010 l 254 1010 l 364 582 l 474 1010 l 688 1010 l 688 0 l 492 0 l 492 475 l 364 72 l 238 475 z "},"Н":{"ha":604,"x_min":42,"x_max":563,"o":"m 563 0 l 357 0 l 357 403 l 247 403 l 247 0 l 42 0 l 42 1010 l 247 1010 l 247 576 l 357 576 l 357 1010 l 563 1010 l 563 0 z "},"О":{"ha":606,"x_min":42,"x_max":564,"o":"m 263 833 q 244 814 244 833 l 244 197 q 248 181 244 186 q 264 176 251 176 l 340 176 q 356 181 353 176 q 360 197 360 186 l 360 814 q 342 833 360 833 l 263 833 m 564 143 q 558 88 564 114 q 535 43 551 63 q 490 12 518 24 q 421 0 463 0 l 185 0 q 115 12 143 0 q 71 43 88 24 q 48 88 54 63 q 42 143 42 114 l 42 879 q 74 974 42 939 q 176 1010 106 1010 l 429 1010 q 532 974 500 1010 q 564 879 564 939 l 564 143 z "},"П":{"ha":604,"x_min":42,"x_max":563,"o":"m 563 0 l 357 0 l 357 822 l 247 822 l 247 0 l 42 0 l 42 1010 l 563 1010 l 563 0 z "},"Р":{"ha":594,"x_min":42,"x_max":557,"o":"m 242 833 l 242 435 l 342 435 q 358 440 354 435 q 361 456 361 444 l 361 814 q 343 833 361 833 l 242 833 m 557 399 q 524 303 557 339 q 421 268 492 268 l 242 268 l 242 0 l 42 0 l 42 1010 l 421 1010 q 524 975 492 1010 q 557 881 557 940 l 557 399 z "},"С":{"ha":488,"x_min":42,"x_max":460,"o":"m 196 0 q 76 35 110 0 q 42 153 42 69 l 42 886 q 77 978 42 946 q 164 1010 113 1010 l 425 1010 l 460 822 l 267 822 q 249 803 249 822 l 249 207 q 267 188 249 188 l 460 188 l 424 0 l 196 0 z "},"Т":{"ha":503,"x_min":14,"x_max":489,"o":"m 439 1010 l 489 822 l 354 822 l 354 0 l 149 0 l 149 822 l 14 822 l 67 1010 l 439 1010 z "},"У":{"ha":660,"x_min":14,"x_max":646,"o":"m 444 1010 l 646 1010 l 431 122 q 414 71 424 93 q 388 33 404 49 q 345 8 371 17 q 282 0 319 0 l 124 0 l 89 188 l 225 188 q 247 222 260 188 l 14 1010 l 228 1010 l 350 500 l 444 1010 z "},"Ф":{"ha":811,"x_min":42,"x_max":769,"o":"m 318 83 l 178 83 q 77 116 113 83 q 42 215 42 149 l 42 794 q 77 894 42 861 q 178 926 113 926 l 318 926 l 318 1010 l 496 1010 l 496 926 l 633 926 q 734 894 699 926 q 769 794 769 861 l 769 215 q 734 116 769 149 q 633 83 699 83 l 496 83 l 496 0 l 318 0 l 318 83 m 575 728 q 572 744 575 739 q 556 749 568 749 l 496 749 l 496 261 l 557 261 q 575 281 575 261 l 575 728 m 239 282 q 242 266 239 271 q 258 261 246 261 l 318 261 l 318 749 l 257 749 q 239 729 239 749 l 239 282 z "},"Х":{"ha":590,"x_min":14,"x_max":576,"o":"m 433 525 l 576 0 l 372 0 l 294 354 l 218 0 l 14 0 l 157 525 l 19 1010 l 219 1010 l 294 653 l 372 1010 l 571 1010 l 433 525 z "},"Ц":{"ha":660,"x_min":42,"x_max":618,"o":"m 563 188 l 618 188 l 618 -149 l 431 -183 l 431 0 l 42 0 l 42 1010 l 247 1010 l 247 188 l 357 188 l 357 1010 l 563 1010 l 563 188 z "},"Ч":{"ha":618,"x_min":42,"x_max":576,"o":"m 371 1010 l 576 1010 l 576 0 l 371 0 l 371 406 l 194 406 q 75 440 108 406 q 42 557 42 474 l 42 1010 l 247 1010 l 247 604 q 251 588 247 593 q 267 582 254 582 l 371 582 l 371 1010 z "},"Ш":{"ha":919,"x_min":42,"x_max":878,"o":"m 878 0 l 42 0 l 42 1010 l 247 1010 l 247 188 l 357 188 l 357 1010 l 563 1010 l 563 188 l 672 188 l 672 1010 l 878 1010 l 878 0 z "},"Щ":{"ha":968,"x_min":42,"x_max":933,"o":"m 878 188 l 933 188 l 933 -149 l 746 -183 l 746 0 l 42 0 l 42 1010 l 247 1010 l 247 188 l 357 188 l 357 1010 l 563 1010 l 563 188 l 672 188 l 672 1010 l 878 1010 l 878 188 z "},"Ъ":{"ha":743,"x_min":14,"x_max":701,"o":"m 382 617 l 565 617 q 669 581 636 617 q 701 486 701 546 l 701 129 q 669 35 701 69 q 565 0 636 0 l 176 0 l 176 822 l 14 822 l 67 1010 l 382 1010 l 382 617 m 486 176 q 504 196 504 176 l 504 429 q 501 445 504 440 q 485 450 497 450 l 382 450 l 382 176 l 486 176 z "},"Ы":{"ha":894,"x_min":42,"x_max":853,"o":"m 853 0 l 647 0 l 647 1010 l 853 1010 l 853 0 m 247 1010 l 42 1010 l 42 0 l 431 0 q 534 35 501 0 q 567 129 567 69 l 567 486 q 534 581 567 546 q 431 617 501 617 l 247 617 l 247 1010 m 247 176 l 247 450 l 350 450 q 366 445 363 450 q 369 429 369 440 l 369 196 q 351 176 369 176 l 247 176 z "},"Ь":{"ha":608,"x_min":42,"x_max":567,"o":"m 247 617 l 431 617 q 534 581 501 617 q 567 486 567 546 l 567 129 q 534 35 567 69 q 431 0 501 0 l 42 0 l 42 1010 l 247 1010 l 247 617 m 351 176 q 369 196 369 176 l 369 429 q 366 445 369 440 q 350 450 363 450 l 247 450 l 247 176 l 351 176 z "},"Э":{"ha":488,"x_min":28,"x_max":446,"o":"m 239 407 l 72 407 l 72 581 l 239 581 l 239 803 q 221 822 239 822 l 28 822 l 63 1010 l 324 1010 q 410 978 375 1010 q 446 886 446 946 l 446 153 q 412 35 446 69 q 292 0 378 0 l 64 0 l 28 188 l 221 188 q 239 207 239 188 l 239 407 z "},"Ю":{"ha":917,"x_min":42,"x_max":875,"o":"m 875 143 q 869 88 875 114 q 846 43 863 63 q 801 12 829 24 q 732 0 774 0 l 496 0 q 426 12 454 0 q 382 43 399 24 q 359 88 365 63 q 353 143 353 114 l 353 417 l 243 417 l 243 0 l 42 0 l 42 1010 l 243 1010 l 243 592 l 353 592 l 353 879 q 385 974 353 939 q 488 1010 417 1010 l 740 1010 q 843 974 811 1010 q 875 879 875 939 l 875 143 m 574 833 q 556 814 556 833 l 556 197 q 559 181 556 186 q 575 176 563 176 l 651 176 q 667 181 664 176 q 671 197 671 186 l 671 814 q 653 833 671 833 l 574 833 z "},"Я":{"ha":601,"x_min":15,"x_max":560,"o":"m 42 875 q 176 1010 42 1010 l 560 1010 l 560 0 l 363 0 l 363 318 l 336 318 q 298 297 308 318 q 282 251 288 275 l 221 0 l 15 0 l 81 254 q 99 299 86 278 q 135 328 111 319 q 69 351 97 328 q 42 413 42 374 l 42 875 m 260 833 q 240 813 240 833 l 240 504 q 260 483 240 483 l 363 483 l 363 833 l 260 833 z "},"Ё":{"ha":496,"x_min":10,"x_max":489,"o":"m 42 1010 l 433 1010 l 468 822 l 249 822 l 249 581 l 415 581 l 415 407 l 249 407 l 249 188 l 460 188 l 425 0 l 42 0 l 42 1010 m 10 1150 q 39 1224 10 1193 q 113 1254 68 1254 q 185 1224 156 1254 q 214 1150 214 1193 q 185 1076 214 1107 q 113 1046 156 1046 q 39 1076 68 1046 q 10 1150 10 1107 m 285 1150 q 314 1224 285 1193 q 386 1254 343 1254 q 459 1224 429 1254 q 489 1150 489 1193 q 459 1076 489 1107 q 386 1046 429 1046 q 314 1076 343 1046 q 285 1150 285 1107 z "},"Α":{"ha":607,"x_min":14,"x_max":593,"o":"m 235 125 l 217 0 l 14 0 l 196 1010 l 411 1010 l 593 0 l 390 0 l 372 125 l 235 125 m 257 285 l 350 285 l 304 644 l 257 285 z "},"Β":{"ha":606,"x_min":42,"x_max":564,"o":"m 242 833 l 242 567 l 336 567 q 354 573 347 567 q 361 593 361 579 l 361 814 q 343 833 361 833 l 242 833 m 364 385 q 356 408 364 401 q 333 414 347 414 l 242 414 l 242 176 l 343 176 q 360 181 356 176 q 364 197 364 186 l 364 385 m 554 608 q 540 544 554 571 q 485 506 525 517 q 545 476 526 503 q 564 417 564 450 l 564 156 q 529 36 564 72 q 407 0 494 0 l 42 0 l 42 1010 l 419 1010 q 554 875 554 1010 l 554 608 z "},"Γ":{"ha":489,"x_min":42,"x_max":468,"o":"m 42 1010 l 433 1010 l 468 822 l 249 822 l 249 0 l 42 0 l 42 1010 z "},"Δ":{"ha":611,"x_min":14,"x_max":597,"o":"m 365 188 l 306 633 l 246 188 l 365 188 m 597 0 l 14 0 l 203 1010 l 408 1010 l 597 0 z "},"Ε":{"ha":496,"x_min":42,"x_max":468,"o":"m 42 1010 l 433 1010 l 468 822 l 249 822 l 249 581 l 415 581 l 415 407 l 249 407 l 249 188 l 460 188 l 425 0 l 42 0 l 42 1010 z "},"Ζ":{"ha":515,"x_min":14,"x_max":501,"o":"m 285 188 l 474 188 l 439 0 l 14 0 l 240 822 l 31 822 l 65 1010 l 501 1010 l 285 188 z "},"Η":{"ha":604,"x_min":42,"x_max":563,"o":"m 563 0 l 357 0 l 357 403 l 247 403 l 247 0 l 42 0 l 42 1010 l 247 1010 l 247 576 l 357 576 l 357 1010 l 563 1010 l 563 0 z "},"Θ":{"ha":606,"x_min":42,"x_max":564,"o":"m 242 199 q 246 182 242 188 q 263 176 250 176 l 344 176 q 364 199 364 176 l 364 424 l 242 424 l 242 199 m 364 813 q 344 833 364 833 l 261 833 q 242 813 242 833 l 242 586 l 364 586 l 364 813 m 564 143 q 558 88 564 114 q 535 43 551 63 q 490 12 518 24 q 421 0 463 0 l 185 0 q 115 12 143 0 q 71 43 88 24 q 48 88 54 63 q 42 143 42 114 l 42 879 q 74 974 42 939 q 176 1010 106 1010 l 429 1010 q 532 974 500 1010 q 564 879 564 939 l 564 143 z "},"Ι":{"ha":290,"x_min":44,"x_max":246,"o":"m 44 1010 l 246 1010 l 246 0 l 44 0 l 44 1010 z "},"Κ":{"ha":603,"x_min":42,"x_max":589,"o":"m 247 575 l 278 575 l 381 1010 l 589 1010 l 468 543 l 588 0 l 367 0 l 288 415 l 247 415 l 247 0 l 42 0 l 42 1010 l 247 1010 l 247 575 l 247 575 z "},"Λ":{"ha":606,"x_min":14,"x_max":592,"o":"m 303 606 l 222 0 l 14 0 l 194 1010 l 411 1010 l 592 0 l 383 0 l 303 606 z "},"Μ":{"ha":729,"x_min":42,"x_max":688,"o":"m 238 475 l 238 0 l 42 0 l 42 1010 l 254 1010 l 364 582 l 474 1010 l 688 1010 l 688 0 l 492 0 l 492 475 l 364 72 l 238 475 z "},"Ν":{"ha":585,"x_min":42,"x_max":543,"o":"m 42 1010 l 233 1010 l 336 603 l 336 1010 l 543 1010 l 543 0 l 336 0 l 228 421 l 228 0 l 42 0 l 42 1010 z "},"Ξ":{"ha":536,"x_min":28,"x_max":508,"o":"m 474 822 l 63 822 l 28 1010 l 508 1010 l 474 822 m 104 407 l 432 407 l 432 581 l 104 581 l 104 407 m 63 188 l 474 188 l 508 0 l 28 0 l 63 188 z "},"Ο":{"ha":606,"x_min":42,"x_max":564,"o":"m 263 833 q 244 814 244 833 l 244 197 q 248 181 244 186 q 264 176 251 176 l 340 176 q 356 181 353 176 q 360 197 360 186 l 360 814 q 342 833 360 833 l 263 833 m 564 143 q 558 88 564 114 q 535 43 551 63 q 490 12 518 24 q 421 0 463 0 l 185 0 q 115 12 143 0 q 71 43 88 24 q 48 88 54 63 q 42 143 42 114 l 42 879 q 74 974 42 939 q 176 1010 106 1010 l 429 1010 q 532 974 500 1010 q 564 879 564 939 l 564 143 z "},"Π":{"ha":604,"x_min":42,"x_max":563,"o":"m 563 0 l 357 0 l 357 822 l 247 822 l 247 0 l 42 0 l 42 1010 l 563 1010 l 563 0 z "},"Ρ":{"ha":594,"x_min":42,"x_max":557,"o":"m 242 833 l 242 435 l 342 435 q 358 440 354 435 q 361 456 361 444 l 361 814 q 343 833 361 833 l 242 833 m 557 399 q 524 303 557 339 q 421 268 492 268 l 242 268 l 242 0 l 42 0 l 42 1010 l 421 1010 q 524 975 492 1010 q 557 881 557 940 l 557 399 z "},"Σ":{"ha":531,"x_min":14,"x_max":510,"o":"m 464 0 l 14 0 l 175 504 l 19 1010 l 475 1010 l 510 822 l 293 822 l 401 504 l 294 188 l 499 188 l 464 0 z "},"Τ":{"ha":503,"x_min":14,"x_max":489,"o":"m 439 1010 l 489 822 l 354 822 l 354 0 l 149 0 l 149 822 l 14 822 l 67 1010 l 439 1010 z "},"Υ":{"ha":626,"x_min":14,"x_max":613,"o":"m 419 0 l 207 0 l 207 256 l 14 1010 l 222 1010 l 313 532 l 404 1010 l 613 1010 l 419 256 l 419 0 z "},"Φ":{"ha":783,"x_min":46,"x_max":738,"o":"m 318 0 l 182 0 q 81 33 117 0 q 46 132 46 65 l 46 878 q 81 977 46 944 q 182 1010 117 1010 l 318 1010 l 318 1051 l 468 1051 l 468 1010 l 601 1010 q 702 977 667 1010 q 738 878 738 944 l 738 132 q 702 33 738 65 q 601 0 667 0 l 468 0 l 468 -42 l 318 -42 l 318 0 m 543 811 q 540 827 543 822 q 524 832 536 832 l 468 832 l 468 178 l 525 178 q 543 197 543 178 l 543 811 m 243 199 q 247 183 243 188 q 263 178 250 178 l 318 178 l 318 832 l 261 832 q 243 813 243 832 l 243 199 z "},"Χ":{"ha":590,"x_min":14,"x_max":576,"o":"m 433 525 l 576 0 l 372 0 l 294 354 l 218 0 l 14 0 l 157 525 l 19 1010 l 219 1010 l 294 653 l 372 1010 l 571 1010 l 433 525 z "},"Ψ":{"ha":879,"x_min":42,"x_max":838,"o":"m 344 0 l 344 188 l 197 188 q 78 222 114 188 q 42 340 42 257 l 42 1010 l 240 1010 l 240 385 q 244 368 240 374 q 260 363 247 363 l 344 363 l 344 1010 l 535 1010 l 535 363 l 619 363 q 635 368 632 363 q 639 385 639 374 l 639 1010 l 838 1010 l 838 340 q 801 222 838 257 q 682 188 765 188 l 535 188 l 535 0 l 344 0 z "},"Ω":{"ha":663,"x_min":28,"x_max":635,"o":"m 485 1010 q 584 977 549 1010 q 619 878 619 944 l 619 407 q 617 332 619 363 q 603 281 614 301 q 569 249 592 261 q 504 233 546 238 l 504 188 l 635 188 l 601 0 l 368 0 l 368 328 q 400 335 392 328 q 408 367 408 343 l 408 797 q 406 828 408 824 q 378 833 403 833 l 285 833 q 257 828 260 833 q 254 797 254 824 l 254 367 q 263 335 254 343 q 294 328 271 328 l 294 0 l 61 0 l 28 188 l 158 188 l 158 233 q 94 249 117 238 q 60 281 71 261 q 46 332 49 301 q 43 407 43 363 l 43 878 q 78 977 43 944 q 178 1010 114 1010 l 485 1010 z "}}}
